<svg width="577" height="416" viewBox="0 0 577 416" fill="none" xmlns="http://www.w3.org/2000/svg">
<g clip-path="url(#clip0_61_905)">
<g clip-path="url(#clip1_61_905)">
<path d="M642 370.674H36.7796V370.98H642V370.674Z" fill="#DEE8F2"/>
<path d="M581.357 390.365H541.267V390.671H581.357V390.365Z" fill="#DEE8F2"/>
<path d="M437.702 393.694H427.183V394H437.702V393.694Z" fill="#DEE8F2"/>
<path d="M540.057 379.008H516.828V379.314H540.057V379.008Z" fill="#DEE8F2"/>
<path d="M152.558 381.065H100.279V381.371H152.558V381.065Z" fill="#DEE8F2"/>
<path d="M171.005 381.065H163.343V381.371H171.005V381.065Z" fill="#DEE8F2"/>
<path d="M309.31 386.229H195.916V386.535H309.31V386.229Z" fill="#DEE8F2"/>
<path d="M585.485 316.092H351.748C349.916 316.089 348.16 315.352 346.865 314.042C345.569 312.732 344.84 310.957 344.837 309.105V-23.0733C344.856 -24.9149 345.592 -26.6748 346.886 -27.9714C348.18 -29.268 349.927 -29.9969 351.748 -30H585.485C587.303 -29.9936 589.046 -29.263 590.335 -27.9664C591.624 -26.6698 592.356 -24.9117 592.372 -23.0733V309.105C592.372 310.954 591.647 312.727 590.356 314.037C589.065 315.347 587.313 316.086 585.485 316.092ZM351.748 -29.7552C349.997 -29.752 348.317 -29.047 347.079 -27.7946C345.84 -26.5421 345.143 -24.8444 345.139 -23.0733V309.105C345.143 310.876 345.84 312.573 347.079 313.826C348.317 315.078 349.997 315.783 351.748 315.787H585.485C587.236 315.783 588.916 315.078 590.154 313.826C591.393 312.573 592.09 310.876 592.094 309.105V-23.0733C592.09 -24.8444 591.393 -26.5421 590.154 -27.7946C588.916 -29.047 587.236 -29.752 585.485 -29.7552H351.748Z" fill="#DEE8F2"/>
<path d="M253.618 199.696L534.065 199.696V11.1444L253.618 11.1444V199.696Z" fill="#E1ECF8"/>
<path d="M249.272 199.696L529.719 199.696V11.1444L249.272 11.1444V199.696Z" fill="#E4ECF3"/>
<path d="M521.924 190.836V19.9803L257.055 19.9803V190.836L521.924 190.836Z" fill="white"/>
<path d="M260.348 190.848V19.9927H257.068V190.848H260.348Z" fill="#E1ECF8"/>
<path d="M252.492 149.606L526.5 149.606V137.723L252.492 137.723V149.606Z" fill="#E4ECF3"/>
<g opacity="0.4">
<path opacity="0.4" d="M267.042 1.8313H240.569V161.342H267.042V1.8313Z" fill="#E1ECF8"/>
<path opacity="0.4" d="M267.054 148.529H280.175V1.8313H267.054V148.529Z" fill="#E4ECF3"/>
<path opacity="0.4" d="M306.647 1.83118H280.175V161.342H306.647V1.83118Z" fill="#E1ECF8"/>
<path opacity="0.4" d="M306.659 148.529H319.781V1.8313H306.659V148.529Z" fill="#E4ECF3"/>
<path opacity="0.4" d="M346.253 1.83118H319.781V161.342H346.253V1.83118Z" fill="#E1ECF8"/>
<path opacity="0.4" d="M346.265 148.529H359.386V1.8313H346.265V148.529Z" fill="#E4ECF3"/>
<path opacity="0.4" d="M385.859 1.83118H359.386V161.342H385.859V1.83118Z" fill="#E1ECF8"/>
<path opacity="0.4" d="M385.871 148.529H398.992V1.8313H385.871V148.529Z" fill="#E4ECF3"/>
<path opacity="0.4" d="M425.464 1.83118H398.992V161.342H425.464V1.83118Z" fill="#E1ECF8"/>
<path opacity="0.4" d="M425.464 148.529H438.585V1.8313H425.464V148.529Z" fill="#E4ECF3"/>
<path opacity="0.4" d="M465.058 1.83118H438.585V161.342H465.058V1.83118Z" fill="#E1ECF8"/>
<path opacity="0.4" d="M465.07 148.529H478.191V1.8313H465.07V148.529Z" fill="#E4ECF3"/>
<path opacity="0.4" d="M504.663 1.83118H478.191V161.342H504.663V1.83118Z" fill="#E1ECF8"/>
<path opacity="0.4" d="M504.675 148.529H517.797V1.8313H504.675V148.529Z" fill="#E4ECF3"/>
<path opacity="0.4" d="M544.269 1.83118H517.797V161.342H544.269V1.83118Z" fill="#E1ECF8"/>
</g>
<path d="M136.992 370.674H199.075L199.075 241.685H136.992V370.674Z" fill="#DEE8F2"/>
<path d="M148.782 370.674H136.992V344.399H161.152L148.782 370.674Z" fill="#E4ECF3"/>
<path d="M491.215 370.674H553.299V241.685H491.215V370.674Z" fill="#DEE8F2"/>
<path d="M136.992 354.557L501.504 354.557V241.685L136.992 241.685V354.557Z" fill="#E4ECF3"/>
<path d="M489.387 322.713H381.331C381.068 322.713 380.816 322.607 380.63 322.419C380.444 322.231 380.339 321.976 380.339 321.71V250.252C380.339 249.985 380.444 249.73 380.63 249.542C380.816 249.354 381.068 249.248 381.331 249.248H401.28C401.493 249.243 401.703 249.312 401.873 249.444C404.838 251.636 408.126 253.341 411.617 254.498C415.825 255.907 420.232 256.618 424.665 256.603H446.042C454.219 256.748 462.228 254.253 468.907 249.481C469.073 249.351 469.278 249.282 469.488 249.285H489.448C489.711 249.285 489.964 249.39 490.15 249.579C490.336 249.767 490.441 250.022 490.441 250.288V321.71C490.441 321.847 490.413 321.982 490.36 322.108C490.306 322.234 490.227 322.348 490.129 322.442C490.03 322.536 489.913 322.608 489.786 322.655C489.658 322.702 489.523 322.721 489.387 322.713ZM382.324 320.706H488.395V251.292H469.754C462.805 256.188 454.511 258.757 446.042 258.635H424.665C420.017 258.65 415.398 257.902 410.987 256.42C407.407 255.232 404.028 253.498 400.965 251.28H382.324V320.706Z" fill="#E1ECF8"/>
<path d="M373.282 322.713H265.214C264.951 322.713 264.698 322.607 264.512 322.419C264.326 322.231 264.221 321.976 264.221 321.71V250.252C264.221 249.985 264.326 249.73 264.512 249.542C264.698 249.354 264.951 249.248 265.214 249.248H284.085C284.299 249.243 284.508 249.312 284.678 249.444C287.622 251.634 290.89 253.34 294.361 254.498C298.57 255.907 302.977 256.618 307.41 256.603H328.786C336.936 256.724 344.911 254.217 351.555 249.444C351.726 249.316 351.934 249.247 352.148 249.248H373.282C373.413 249.246 373.543 249.271 373.664 249.321C373.785 249.371 373.895 249.445 373.988 249.538C374.08 249.632 374.153 249.743 374.202 249.866C374.252 249.988 374.276 250.119 374.275 250.252V321.673C374.28 321.808 374.258 321.942 374.21 322.068C374.162 322.194 374.09 322.309 373.997 322.406C373.904 322.503 373.793 322.581 373.671 322.633C373.548 322.686 373.416 322.713 373.282 322.713ZM266.219 320.706H372.29V251.292H352.535C345.594 256.186 337.309 258.755 328.847 258.635H307.47C302.823 258.65 298.203 257.902 293.792 256.42C290.206 255.239 286.821 253.506 283.758 251.28H266.206L266.219 320.706Z" fill="#E1ECF8"/>
<path d="M257.165 322.713H149.108C148.845 322.713 148.593 322.607 148.407 322.419C148.22 322.231 148.116 321.976 148.116 321.71V250.252C148.114 250.119 148.139 249.988 148.188 249.866C148.237 249.743 148.31 249.632 148.403 249.538C148.495 249.445 148.606 249.371 148.727 249.321C148.848 249.271 148.978 249.246 149.108 249.248H167.979C168.189 249.245 168.394 249.314 168.56 249.444C171.507 251.63 174.775 253.335 178.244 254.498C182.457 255.907 186.867 256.618 191.304 256.603H212.681C220.837 256.723 228.82 254.215 235.473 249.444C235.643 249.312 235.853 249.243 236.067 249.248H257.104C257.367 249.248 257.62 249.354 257.806 249.542C257.992 249.73 258.097 249.985 258.097 250.252V321.673C258.106 321.935 258.015 322.191 257.84 322.385C257.666 322.58 257.424 322.697 257.165 322.713ZM150.101 320.706H256.172V251.292H236.502C229.557 256.187 221.267 258.755 212.802 258.635H191.365C186.717 258.652 182.097 257.903 177.687 256.42C174.1 255.24 170.715 253.506 167.652 251.28H150.101V320.706Z" fill="#E1ECF8"/>
<path d="M489.714 370.674H501.504V344.399H477.356L489.714 370.674Z" fill="#E4ECF3"/>
<path d="M211.01 220.073H201.218C201.291 213.22 201.218 195.817 200.528 155.958C199.318 83.753 197.054 79.2983 197.054 79.2983L208.662 114.96C211.418 123.347 213.023 132.077 213.431 140.905C214.714 168.71 209.873 190.91 211.01 220.073Z" fill="#E1ECF8"/>
<path d="M218.455 104.203C231.515 84.2179 257.588 73.7911 284.242 63.9762C294.7 60.1212 265.335 107.935 243.983 129.621C227.4 146.461 211.301 146.081 206.544 162.664C205.624 143.401 207.197 121.422 218.455 104.203Z" fill="#E1ECF8"/>
<path d="M203.494 91.377C193.253 68.0023 167.386 37.6886 138.311 16.3331C126.897 7.95006 155.064 79.9711 174.927 109.416C190.397 132.375 204.825 146.35 207.076 162.725C216.833 142.238 213.722 114.739 203.494 91.377Z" fill="#E1ECF8"/>
<path d="M204.462 241.685C209.998 241.685 215.323 239.543 219.348 235.7C223.372 231.857 225.789 226.603 226.105 221.015L228.029 201.202H180.895L182.807 221.015C183.125 226.604 185.545 231.858 189.572 235.701C193.598 239.544 198.925 241.685 204.462 241.685Z" fill="#EBF1F8"/>
<path d="M177.844 201.312H231.08L232.605 194.275H176.319L177.844 201.312Z" fill="#EBF1F8"/>
<path d="M180.471 213.379H228.453L229.833 206.342H179.091L180.471 213.379Z" fill="#EBF1F8"/>
<path d="M469.116 405.55H172.085C171.159 405.557 170.242 405.37 169.392 405C168.541 404.631 167.776 404.087 167.144 403.403C166.512 402.72 166.027 401.911 165.719 401.028C165.412 400.145 165.289 399.208 165.358 398.275L177.591 202.016C177.746 200.06 178.615 198.232 180.029 196.887C181.442 195.542 183.3 194.777 185.241 194.74H482.257C483.182 194.733 484.099 194.921 484.95 195.29C485.8 195.659 486.566 196.203 487.198 196.887C487.83 197.571 488.315 198.379 488.622 199.262C488.929 200.145 489.052 201.082 488.983 202.016L476.75 398.275C476.596 400.228 475.729 402.054 474.319 403.398C472.908 404.742 471.054 405.509 469.116 405.55Z" fill="#1F364D"/>
<path opacity="0.6" d="M469.116 405.55H172.085C171.159 405.557 170.242 405.37 169.392 405C168.541 404.631 167.776 404.087 167.144 403.403C166.512 402.72 166.027 401.911 165.719 401.028C165.412 400.145 165.289 399.208 165.358 398.275L177.591 202.016C177.746 200.06 178.615 198.232 180.029 196.887C181.442 195.542 183.3 194.777 185.241 194.74H482.257C483.182 194.733 484.099 194.921 484.95 195.29C485.8 195.659 486.566 196.203 487.198 196.887C487.83 197.571 488.315 198.379 488.622 199.262C488.929 200.145 489.052 201.082 488.983 202.016L476.75 398.275C476.596 400.228 475.729 402.054 474.319 403.398C472.908 404.742 471.054 405.509 469.116 405.55Z" fill="#1F364D"/>
<path d="M466.895 405.55H169.879C168.952 405.559 168.034 405.373 167.181 405.005C166.329 404.636 165.562 404.093 164.928 403.409C164.294 402.725 163.808 401.916 163.499 401.032C163.191 400.148 163.068 399.209 163.137 398.274L175.37 202.015C175.525 200.059 176.394 198.231 177.807 196.887C179.221 195.542 181.079 194.777 183.019 194.74H480.035C480.962 194.731 481.88 194.916 482.731 195.285C483.583 195.654 484.349 196.197 484.982 196.881C485.614 197.566 486.099 198.375 486.406 199.259C486.712 200.143 486.833 201.082 486.762 202.015L474.529 398.274C474.374 400.228 473.508 402.054 472.097 403.398C470.687 404.742 468.833 405.509 466.895 405.55Z" fill="#1F364D"/>
<path d="M466.52 408.049H113.095C111.468 408.034 109.87 408.485 108.486 409.35C107.102 410.215 105.988 411.458 105.273 412.936C105.092 413.32 105.011 413.744 105.037 414.168C105.064 414.593 105.197 415.003 105.424 415.361C105.651 415.719 105.965 416.012 106.335 416.213C106.706 416.415 107.121 416.517 107.541 416.51H471.995C472.415 416.517 472.83 416.415 473.201 416.213C473.572 416.012 473.885 415.719 474.112 415.361C474.34 415.003 474.473 414.593 474.499 414.168C474.525 413.744 474.444 413.32 474.263 412.936C473.557 411.468 472.456 410.231 471.087 409.366C469.717 408.502 468.134 408.045 466.52 408.049Z" fill="#1F364D"/>
<path opacity="0.6" d="M466.519 408.049H416.258C414.643 408.043 413.06 408.499 411.69 409.364C410.32 410.228 409.219 411.467 408.515 412.936C408.334 413.319 408.253 413.741 408.279 414.164C408.304 414.587 408.436 414.997 408.661 415.354C408.887 415.712 409.198 416.005 409.567 416.208C409.935 416.41 410.348 416.514 410.767 416.51H471.995C472.415 416.517 472.83 416.415 473.201 416.214C473.571 416.012 473.885 415.719 474.112 415.361C474.339 415.003 474.472 414.593 474.499 414.168C474.525 413.744 474.444 413.32 474.263 412.936C473.557 411.468 472.456 410.231 471.086 409.366C469.717 408.502 468.134 408.045 466.519 408.049Z" fill="#1F364D"/>
<path d="M435.358 414.217H422.375C422.075 414.213 421.788 414.089 421.577 413.873C421.366 413.657 421.248 413.366 421.248 413.062C421.248 412.759 421.366 412.467 421.577 412.251C421.788 412.035 422.075 411.912 422.375 411.908H435.358C435.508 411.908 435.657 411.937 435.795 411.995C435.934 412.054 436.06 412.139 436.166 412.246C436.272 412.353 436.356 412.48 436.413 412.62C436.471 412.76 436.5 412.911 436.5 413.062C436.5 413.214 436.471 413.364 436.413 413.504C436.356 413.644 436.272 413.771 436.166 413.879C436.06 413.986 435.934 414.071 435.795 414.129C435.657 414.187 435.508 414.217 435.358 414.217Z" fill="#1864AB"/>
<path opacity="0.7" d="M268.4 414.217H255.431C255.129 414.217 254.838 414.095 254.624 413.879C254.41 413.662 254.289 413.368 254.289 413.062C254.289 412.911 254.319 412.76 254.376 412.62C254.434 412.48 254.518 412.353 254.624 412.246C254.73 412.139 254.856 412.054 254.994 411.995C255.133 411.937 255.281 411.908 255.431 411.908H268.4C268.55 411.908 268.698 411.937 268.837 411.995C268.975 412.054 269.101 412.139 269.207 412.246C269.313 412.353 269.397 412.48 269.455 412.62C269.512 412.76 269.542 412.911 269.542 413.062C269.542 413.368 269.421 413.662 269.207 413.879C268.993 414.095 268.702 414.217 268.4 414.217Z" fill="white"/>
<path d="M448.796 411.908H440.302C439.783 411.908 439.363 412.332 439.363 412.857V413.268C439.363 413.792 439.783 414.217 440.302 414.217H448.796C449.314 414.217 449.734 413.792 449.734 413.268V412.857C449.734 412.332 449.314 411.908 448.796 411.908Z" fill="#1864AB"/>
<path d="M169.832 391.189L181.189 209.101C181.248 208.341 181.585 207.631 182.135 207.11C182.685 206.59 183.408 206.295 184.161 206.286H477.454C477.814 206.28 478.17 206.351 478.501 206.493C478.832 206.634 479.13 206.845 479.376 207.11C479.622 207.375 479.81 207.689 479.929 208.032C480.048 208.375 480.095 208.739 480.067 209.101L468.725 391.189C468.663 391.95 468.322 392.66 467.77 393.181C467.217 393.701 466.493 393.995 465.737 394.004H172.46C172.101 394.007 171.745 393.935 171.414 393.793C171.084 393.65 170.786 393.44 170.539 393.176C170.293 392.912 170.102 392.599 169.981 392.257C169.859 391.915 169.809 391.551 169.832 391.189Z" fill="white"/>
<path opacity="0.1" d="M336.682 200.671L238.991 388.405H166.923C166.561 388.411 166.203 388.34 165.87 388.197C165.537 388.055 165.237 387.843 164.99 387.577C164.743 387.31 164.553 386.995 164.433 386.65C164.314 386.305 164.266 385.939 164.295 385.574L175.652 203.502C175.71 202.741 176.047 202.029 176.596 201.506C177.146 200.982 177.869 200.685 178.624 200.671H336.682Z" fill="#1864AB"/>
<path opacity="0.1" d="M422.234 200.671L324.543 388.405H301.766L399.458 200.671H422.234Z" fill="#1864AB"/>
<path opacity="0.1" d="M474.529 203.502L463.172 385.574C463.117 386.337 462.781 387.051 462.231 387.575C461.681 388.099 460.956 388.396 460.2 388.405H349.134L446.825 200.671H471.854C472.219 200.662 472.581 200.729 472.919 200.87C473.256 201.01 473.56 201.22 473.812 201.487C474.064 201.754 474.258 202.071 474.382 202.418C474.505 202.765 474.555 203.134 474.529 203.502Z" fill="#1864AB"/>
<path opacity="0.4" d="M333.256 200.861C333.213 201.435 332.96 201.972 332.546 202.367C332.133 202.762 331.588 202.986 331.019 202.996C330.747 202.999 330.478 202.945 330.228 202.837C329.978 202.729 329.753 202.569 329.568 202.368C329.382 202.168 329.24 201.93 329.151 201.67C329.061 201.411 329.026 201.135 329.048 200.861C329.087 200.286 329.339 199.747 329.754 199.352C330.168 198.956 330.715 198.733 331.285 198.726C331.557 198.723 331.826 198.777 332.076 198.885C332.326 198.993 332.551 199.153 332.736 199.354C332.922 199.555 333.064 199.793 333.153 200.052C333.243 200.312 333.278 200.587 333.256 200.861Z" fill="white"/>
<g clip-path="url(#clip2_61_905)">
<path d="M309.532 96.0142C298.781 108.451 292.57 146.576 300.531 165.331C308.491 184.086 216.133 202.861 292.335 233.337C368.536 263.813 429.485 228.469 407.432 196.9C385.38 165.331 409.811 112.762 384.279 99.5505C361.205 87.511 331.074 71.0807 309.532 96.0142Z" fill="#1F364D"/>
<path d="M287 249.878C282.968 263.737 278.681 277.595 274.236 291.454C269.791 305.313 265.17 319.014 260.273 332.774L258.404 337.961L257.46 340.555L257.165 341.327L256.693 342.495C256.398 343.247 255.946 344.059 255.553 344.831C253.63 348.366 250.762 351.288 247.273 353.265C244.106 354.996 240.571 355.934 236.967 355.997C231.914 356.022 226.906 355.033 222.237 353.087C218.415 351.526 214.714 349.679 211.164 347.563C198.27 339.581 186.451 329.959 176 318.935L184.476 308.877C187.328 310.718 190.377 312.678 193.327 314.52C196.277 316.361 199.364 318.143 202.354 319.905C208.211 323.356 214.259 326.469 220.467 329.23C223.296 330.486 226.215 331.525 229.199 332.338C231.263 333.027 233.445 333.283 235.61 333.091C236.161 333.091 236.063 332.774 235.61 332.952C235.158 333.13 234.666 333.645 234.647 333.585C234.627 333.526 234.647 333.585 234.647 333.467C234.656 333.428 234.656 333.387 234.647 333.348L234.804 332.853L235.551 330.299L237.066 325.151L249.082 283.575C253.173 269.716 257.382 255.857 261.708 241.998L287 249.878Z" fill="#EBB6A8"/>
<path d="M183.528 308.648L161 299.998L169.937 324.701C169.937 324.701 185.835 327.074 192 318.404L186.979 311.424C186.108 310.175 184.911 309.211 183.528 308.648Z" fill="#F8C7BA"/>
<path d="M140 307.094L148.893 326.998L170 324.27L160.704 299.998L140 307.094Z" fill="#F8C7BA"/>
<path d="M269.762 213.751C259.263 216.443 252 260.056 252 260.056L280.912 279.998C280.912 279.998 308.542 236.006 300.549 224.36C292.063 212.136 285.057 209.823 269.762 213.751Z" fill="#1864AB"/>
<path opacity="0.5" d="M269.762 213.751C259.263 216.443 252 260.056 252 260.056L280.912 279.998C280.912 279.998 308.542 236.006 300.549 224.36C292.063 212.136 285.057 209.823 269.762 213.751Z" fill="white"/>
<path opacity="0.2" d="M269.505 229.998L291.857 235.21L294 257.267C290.213 265.054 286.033 272.641 281.477 279.998L264 268.107C264.767 257.901 266.654 236.934 269.505 229.998Z" fill="#1F364D"/>
<path d="M270.035 213.46C270.035 213.46 257.884 217.778 282.207 368.998H385.664C383.925 326.406 383.886 300.123 404 212.721C389.519 209.692 374.839 207.735 360.076 206.865C342.669 206.005 328.462 205.446 313.09 206.865C292.916 208.724 270.035 213.46 270.035 213.46Z" fill="#1864AB"/>
<path opacity="0.5" d="M270.035 213.46C270.035 213.46 257.884 217.778 282.207 368.998H385.664C383.925 326.406 383.886 300.123 404 212.721C389.519 209.692 374.839 207.735 360.076 206.865C342.669 206.005 328.462 205.446 313.09 206.865C292.916 208.724 270.035 213.46 270.035 213.46Z" fill="white"/>
<path opacity="0.2" d="M379.228 252.998L393 264.54C390.066 279.871 388.09 292.595 386.888 303.998C384.26 292.615 377.7 261.715 379.228 252.998Z" fill="#1F364D"/>
<path d="M355.374 153.998C352.433 169.202 349.493 197.066 360 207.222C360 207.222 350.198 229.998 324.224 229.998C298.249 229.998 313.383 207.222 313.383 207.222C330.105 203.247 329.674 190.587 326.772 178.781L355.374 153.998Z" fill="#F8C7BA"/>
<path d="M356.137 201.341C353.693 206.425 345.818 218.051 323.824 222.198C323.213 222.314 322.582 222.185 322.059 221.839C317.947 218.888 315.387 212.647 317.191 205.408C317.31 204.964 317.307 204.494 317.18 204.051C317.053 203.608 316.808 203.211 316.473 202.904C316.138 202.597 315.726 202.392 315.284 202.314C314.842 202.235 314.387 202.284 313.971 202.457C312.282 203.184 310.659 204.065 309.122 205.089C308.785 205.32 308.511 205.636 308.327 206.007C306.717 209.117 300.201 224.352 319.867 233.743C320.181 233.881 320.516 233.962 320.857 233.983C332.494 234.222 352.839 231.869 365.698 208.061C365.928 207.631 366.03 207.141 365.992 206.652C365.954 206.163 365.778 205.696 365.485 205.309C363.757 203.364 361.749 201.703 359.531 200.384C359.251 200.199 358.938 200.077 358.609 200.026C358.281 199.974 357.946 199.994 357.626 200.084C357.306 200.175 357.008 200.333 356.751 200.55C356.495 200.766 356.285 201.036 356.137 201.341Z" fill="#F6FBFF"/>
<path d="M362.355 263.997L335.036 263.249C334.75 263.251 334.468 263.195 334.206 263.086C333.945 262.977 333.711 262.816 333.52 262.615C333.329 262.414 333.185 262.177 333.097 261.919C333.01 261.661 332.981 261.389 333.012 261.12L333.275 257.916C333.354 257.378 333.639 256.885 334.075 256.531C334.511 256.178 335.069 255.988 335.643 255.998L362.962 256.746C363.249 256.744 363.534 256.8 363.797 256.911C364.059 257.021 364.294 257.184 364.486 257.387C364.677 257.59 364.821 257.83 364.907 258.09C364.993 258.35 365.02 258.624 364.985 258.895L364.722 262.079C364.643 262.618 364.359 263.111 363.922 263.464C363.486 263.818 362.928 264.007 362.355 263.997Z" fill="#F6FBFF"/>
<path opacity="0.2" d="M343.418 163.998L326 178.623C326.747 181.366 327.246 184.168 327.492 186.998C334.044 186.065 343.075 178.961 343.78 172.194C344.166 169.463 344.043 166.685 343.418 163.998Z" fill="#1F364D"/>
<path d="M375.309 124.789C370.57 149.882 369.095 160.602 354.86 171.92C333.447 188.968 304.13 177.55 301.416 151.539C298.959 128.123 307.119 91.0332 332.877 84.1662C338.521 82.6434 344.455 82.6086 350.117 84.065C355.778 85.5214 360.98 88.4209 365.229 92.4888C369.478 96.5568 372.634 101.659 374.398 107.311C376.162 112.963 376.475 118.979 375.309 124.789Z" fill="#F8C7BA"/>
<path d="M360.853 106.752C357.736 122.34 356.997 142.998 371.4 142.998C385.802 142.998 397.088 118.695 384.663 99.6615C372.239 80.6276 362.67 97.562 360.853 106.752Z" fill="#1F364D"/>
<path d="M385 108.125C385 125.001 363.781 116.662 354.391 109.387C345.002 102.112 344.549 102.901 327.148 102.881C309.747 102.861 306.263 101.659 301.126 93.3389C295.988 85.0191 296.461 79.5384 308.035 81.293C319.609 83.0476 309.885 71.2186 318.507 64.6535C327.129 58.0884 337.345 59.7445 349.135 74.7279C360.926 89.7113 385 78.8878 385 108.125Z" fill="#1F364D"/>
<path d="M379.228 147.238C381.462 139.535 379.271 132.104 374.334 130.641C369.398 129.177 363.585 134.236 361.351 141.939C359.117 149.642 361.309 157.073 366.245 158.536C371.182 159.999 376.995 154.941 379.228 147.238Z" fill="white"/>
<path d="M339.784 166.998C335.201 166.997 330.666 166.054 326.455 164.226C326.365 164.189 326.283 164.134 326.214 164.065C326.145 163.996 326.091 163.913 326.054 163.822C326.017 163.731 325.999 163.633 326 163.535C326.001 163.437 326.022 163.34 326.06 163.249C326.143 163.068 326.291 162.925 326.475 162.85C326.659 162.776 326.864 162.776 327.048 162.851C331.015 164.57 335.284 165.468 339.602 165.492C343.92 165.516 348.198 164.665 352.184 162.99C356.062 161.388 359.582 159.02 362.539 156.023C365.496 153.027 367.83 149.464 369.403 145.544C375.327 128.417 381.369 107.043 374.379 93.7047C372.973 91.1085 371.027 88.8502 368.675 87.0847C366.324 85.3192 363.622 84.0883 360.754 83.4763C360.564 83.4248 360.401 83.2997 360.302 83.1281C360.202 82.9565 360.173 82.7521 360.221 82.5591C360.272 82.367 360.396 82.2028 360.566 82.102C360.736 82.0013 360.938 81.9721 361.13 82.0208C364.193 82.6864 367.078 84.0103 369.589 85.9026C372.101 87.7949 374.179 90.2111 375.682 92.9869C382.949 106.764 376.887 128.557 370.785 146.003C369.13 150.12 366.675 153.86 363.565 157.004C360.456 160.148 356.754 162.63 352.678 164.306C348.594 166.039 344.214 166.953 339.784 166.998Z" fill="white"/>
<path opacity="0.6" d="M378.204 147.286C376.483 153.478 372.539 157.833 369.387 156.863C366.236 155.893 365.076 149.99 366.796 143.716C368.517 137.442 372.461 133.149 375.613 134.14C378.764 135.131 379.924 141.012 378.204 147.286Z" fill="#1864AB"/>
<path d="M328.564 160.441L320.849 158.936C319.493 158.672 318.181 159.569 317.919 160.94L317.834 161.39C317.572 162.761 318.459 164.087 319.816 164.352L327.531 165.857C328.887 166.121 330.199 165.224 330.46 163.853L330.546 163.403C330.808 162.032 329.921 160.706 328.564 160.441Z" fill="white"/>
<path d="M318 126.998C318 126.998 313.894 135.658 310 139.546C312.106 142.529 316.354 141.953 316.354 141.953L318 126.998Z" fill="#E1AB9D"/>
<path d="M323.202 151.949H323.38C327.881 152.262 332.349 151.061 335.886 148.587C335.959 148.521 336 148.433 336 148.342C336 148.25 335.959 148.162 335.886 148.096C335.851 148.065 335.81 148.04 335.764 148.023C335.718 148.007 335.668 147.998 335.619 147.998C335.569 147.998 335.519 148.007 335.473 148.023C335.427 148.04 335.386 148.065 335.351 148.096C331.973 150.439 327.724 151.582 323.44 151.301C323.389 151.294 323.337 151.296 323.286 151.307C323.236 151.318 323.189 151.338 323.148 151.366C323.107 151.394 323.073 151.429 323.048 151.469C323.023 151.509 323.008 151.553 323.003 151.599C322.993 151.668 323.007 151.738 323.042 151.801C323.077 151.863 323.133 151.915 323.202 151.949Z" fill="#1F364D"/>
<path d="M345.015 116.9C345.117 116.964 345.231 116.998 345.348 116.998C345.464 116.998 345.579 116.964 345.68 116.9C345.834 116.783 345.943 116.603 345.983 116.397C346.023 116.192 345.992 115.977 345.896 115.797C345.036 114.162 343.846 112.783 342.424 111.774C341.002 110.766 339.389 110.157 337.719 109.998C337.531 109.998 337.351 110.081 337.217 110.23C337.082 110.379 337.005 110.581 337 110.794C337 111.002 337.071 111.201 337.199 111.35C337.327 111.499 337.5 111.585 337.683 111.591C339.122 111.746 340.509 112.286 341.73 113.166C342.951 114.046 343.972 115.242 344.71 116.655C344.79 116.766 344.896 116.851 345.015 116.9Z" fill="#1F364D"/>
<path d="M333.916 127.445C333.579 129.572 332.211 131.209 330.863 130.976C329.515 130.742 328.742 128.849 329.079 126.552C329.416 124.256 330.803 122.788 332.132 123.022C333.46 123.256 334.273 125.255 333.916 127.445Z" fill="#1F364D"/>
<path d="M310.916 123.447C310.579 125.572 309.211 127.209 307.863 126.976C306.515 126.742 305.742 124.743 306.079 122.554C306.416 120.364 307.803 118.77 309.132 119.025C310.46 119.28 311.273 121.236 310.916 123.447Z" fill="#1F364D"/>
<path d="M310 119.424L305 116.998C305 116.998 306.992 121.573 310 119.424Z" fill="#1F364D"/>
<path d="M333 123.411L328 120.998C328 120.998 329.992 125.59 333 123.411Z" fill="#1F364D"/>
<path d="M303.44 109.888C303.557 109.96 303.691 109.998 303.828 109.998C303.964 109.998 304.098 109.96 304.216 109.888C305.413 108.86 306.836 108.142 308.363 107.797C309.89 107.452 311.477 107.489 312.987 107.905C313.177 107.974 313.386 107.962 313.568 107.873C313.75 107.783 313.89 107.624 313.957 107.429C314.024 107.235 314.012 107.021 313.925 106.835C313.838 106.649 313.682 106.506 313.491 106.438C311.75 105.931 309.914 105.861 308.141 106.234C306.367 106.607 304.708 107.411 303.304 108.579C303.223 108.638 303.154 108.713 303.103 108.8C303.052 108.887 303.019 108.984 303.006 109.084C302.993 109.185 303.001 109.287 303.029 109.385C303.057 109.482 303.104 109.573 303.168 109.65C303.233 109.756 303.328 109.839 303.44 109.888Z" fill="#1F364D"/>
<path d="M278.004 393.998C278.004 393.998 277.727 379.959 281.952 368.998H385.294C385.294 368.998 394.592 383.9 397 393.998H278.004Z" fill="#1864AB"/>
<path d="M387.102 362.764L387.91 371.601C388.285 372.299 387.437 372.998 386.234 372.998H281.702C280.775 372.998 280.006 372.564 279.947 371.997L279 363.141C279 362.537 279.749 362.008 280.775 362.008H385.307C385.649 361.974 385.995 362.025 386.309 362.157C386.624 362.29 386.897 362.499 387.102 362.764Z" fill="#1864AB"/>
<path opacity="0.3" d="M387.102 362.764L387.91 371.601C388.285 372.299 387.437 372.998 386.234 372.998H281.702C280.775 372.998 280.006 372.564 279.947 371.997L279 363.141C279 362.537 279.749 362.008 280.775 362.008H385.307C385.649 361.974 385.995 362.025 386.309 362.157C386.624 362.29 386.897 362.499 387.102 362.764Z" fill="#F6FBFF"/>
<path d="M372.765 373.998H375.928C376.574 373.998 377.042 373.727 376.997 373.38L375.527 361.616C375.527 361.268 374.926 360.998 374.302 360.998H371.072C370.426 360.998 369.958 361.268 370.003 361.616L371.473 373.38C371.584 373.727 372.141 373.998 372.765 373.998Z" fill="#1864AB"/>
<path d="M289.347 373.998H292.075C292.613 373.998 293.036 373.727 292.998 373.38L291.71 361.616C291.71 361.268 291.211 360.998 290.653 360.998H287.925C287.387 360.998 286.964 361.268 287.002 361.616L288.29 373.38C288.328 373.727 288.809 373.998 289.347 373.998Z" fill="#1864AB"/>
<path d="M331.424 373.998H334.075C334.613 373.998 335.036 373.727 334.998 373.38L333.71 361.616C333.71 361.268 333.191 360.998 332.653 360.998H329.925C329.387 360.998 328.964 361.268 329.002 361.616L330.29 373.38C330.405 373.727 330.866 373.998 331.424 373.998Z" fill="#1864AB"/>
<path d="M412.272 241.998C416.775 256.947 421.101 271.976 425.251 287.085L431.496 309.629L434.608 320.84L435.392 323.603L435.783 324.985L435.881 325.305L435.568 324.805C435.073 324.08 434.464 323.444 433.767 322.923C432.235 321.783 430.412 321.122 428.52 321.021C427.091 320.951 425.666 321.24 424.37 321.861C422.961 322.642 423.098 322.822 423.215 322.682C423.547 322.387 423.849 322.059 424.116 321.701C425.039 320.522 425.889 319.285 426.661 317.997C428.383 315.114 430.086 311.871 431.692 308.547C435.02 301.901 438.015 294.853 441.049 287.766C444.083 280.678 446.922 273.511 449.858 266.283C452.794 259.056 455.594 251.788 458.491 244.621L471 248.425C467.75 264.041 463.953 279.377 459.254 294.653C456.945 302.321 454.38 309.909 451.424 317.597C449.897 321.441 448.272 325.285 446.256 329.269C445.181 331.424 443.978 333.511 442.654 335.516C441.831 336.774 440.915 337.965 439.914 339.079C438.325 340.923 436.396 342.426 434.237 343.504C432.082 344.576 429.701 345.085 427.307 344.986C424.468 344.824 421.742 343.799 419.476 342.043C418.033 340.929 416.782 339.576 415.776 338.038C415.14 337.052 414.584 336.014 414.113 334.935C413.936 334.495 413.741 334.034 413.604 333.634L413.232 332.653L412.723 331.231L411.705 328.408C410.374 324.664 409.023 320.92 407.79 317.177C405.284 309.689 402.778 302.221 400.429 294.713C395.626 279.711 391.15 264.635 387 249.486L412.272 241.998Z" fill="#EBB6A8"/>
<path d="M403.576 212.575C414.022 215.753 430 256.912 430 256.912L389.508 285.998C389.508 285.998 371.302 250.815 375.679 237.262C380.256 223.149 391.677 208.936 403.576 212.575Z" fill="#1864AB"/>
<path opacity="0.5" d="M403.576 212.575C414.022 215.753 430 256.912 430 256.912L389.508 285.998C389.508 285.998 371.302 250.815 375.679 237.262C380.256 223.149 391.677 208.936 403.576 212.575Z" fill="white"/>
<path d="M459.532 250.583L454 225.998L476.999 238.231C476.999 238.231 477.277 254.781 467.998 259.998L459.532 250.583Z" fill="#F8C7BA"/>
<path d="M463.514 206.998L478 217.247L476.708 237.998L454 226.051L463.514 206.998Z" fill="#F8C7BA"/>
</g>
<path d="M104.211 179.203H211.175C213.217 179.183 215.241 179.591 217.119 180.402C218.997 181.213 220.689 182.409 222.086 183.915C223.484 185.421 224.557 187.204 225.238 189.15C225.919 191.097 226.194 193.165 226.044 195.224L223.059 244.17C222.731 248.479 220.825 252.509 217.714 255.472C214.602 258.435 210.509 260.118 206.236 260.191H193.849L198.907 277L174.715 260.191H99.3121C97.2699 260.212 95.2457 259.803 93.3675 258.992C91.4893 258.181 89.798 256.985 88.4006 255.479C87.0031 253.973 85.9298 252.191 85.2486 250.244C84.5673 248.297 84.293 246.229 84.4429 244.17L87.4009 195.224C87.7288 190.918 89.6332 186.89 92.7418 183.927C95.8504 180.964 99.9399 179.28 104.211 179.203Z" fill="#1864AB"/>
<path d="M201.376 204.837H110.92C110.536 204.835 110.156 204.752 109.805 204.594C109.455 204.436 109.14 204.206 108.882 203.919C108.624 203.631 108.427 203.293 108.305 202.924C108.183 202.556 108.138 202.167 108.173 201.78C108.232 200.97 108.589 200.211 109.172 199.653C109.756 199.094 110.525 198.777 111.329 198.762H201.799C202.181 198.763 202.559 198.844 202.909 198.998C203.259 199.153 203.574 199.379 203.834 199.662C204.094 199.945 204.294 200.279 204.421 200.643C204.548 201.008 204.599 201.394 204.572 201.78C204.525 202.605 204.168 203.381 203.574 203.949C202.98 204.518 202.194 204.835 201.376 204.837Z" fill="white"/>
<path d="M147.789 222.714H109.837C109.452 222.717 109.072 222.64 108.719 222.487C108.365 222.333 108.047 222.108 107.784 221.825C107.521 221.541 107.319 221.206 107.191 220.84C107.062 220.474 107.01 220.085 107.037 219.697C107.097 218.884 107.455 218.124 108.042 217.565C108.628 217.007 109.401 216.691 110.206 216.68H148.198C148.584 216.675 148.966 216.751 149.321 216.903C149.675 217.056 149.995 217.281 150.259 217.564C150.524 217.848 150.727 218.184 150.856 218.551C150.986 218.918 151.038 219.308 151.011 219.697C150.948 220.518 150.581 221.284 149.984 221.843C149.387 222.402 148.603 222.714 147.789 222.714Z" fill="white"/>
<path d="M180.314 240.591H108.754C108.37 240.594 107.989 240.517 107.636 240.364C107.282 240.21 106.964 239.985 106.701 239.702C106.439 239.418 106.236 239.083 106.108 238.717C105.979 238.351 105.927 237.962 105.954 237.574C106.011 236.76 106.368 235.998 106.956 235.439C107.543 234.88 108.317 234.565 109.124 234.557H180.683C181.068 234.552 181.45 234.628 181.804 234.781C182.158 234.933 182.477 235.158 182.74 235.442C183.004 235.726 183.206 236.062 183.334 236.429C183.461 236.796 183.512 237.186 183.483 237.574C183.424 238.387 183.065 239.147 182.479 239.706C181.892 240.264 181.119 240.58 180.314 240.591Z" fill="white"/>
<path d="M175.665 222.714H160.704C160.319 222.717 159.939 222.64 159.585 222.487C159.232 222.333 158.914 222.108 158.651 221.825C158.388 221.541 158.186 221.206 158.058 220.84C157.929 220.474 157.877 220.085 157.904 219.697C157.966 218.886 158.326 218.127 158.912 217.569C159.498 217.011 160.269 216.694 161.073 216.68H176.022C176.407 216.675 176.788 216.751 177.143 216.903C177.497 217.056 177.816 217.281 178.079 217.565C178.342 217.849 178.544 218.185 178.672 218.552C178.8 218.919 178.851 219.309 178.821 219.697C178.762 220.507 178.406 221.266 177.822 221.824C177.238 222.382 176.469 222.7 175.665 222.714Z" fill="white"/>
<path d="M253.155 91.219H194.84C191.515 91.2695 188.328 92.5755 185.907 94.8805C183.485 97.1854 182.004 100.323 181.754 103.676L179.482 141.78C179.369 143.382 179.585 144.99 180.118 146.504C180.65 148.017 181.486 149.402 182.574 150.573C183.662 151.743 184.978 152.673 186.439 153.303C187.9 153.934 189.475 154.252 191.063 154.236H200.611L195.091 167.321L215.506 154.236H249.339C252.664 154.186 255.851 152.88 258.272 150.575C260.694 148.27 262.175 145.133 262.425 141.78L264.736 103.676C264.849 102.074 264.633 100.465 264.101 98.9518C263.568 97.4385 262.732 96.053 261.644 94.8827C260.556 93.7124 259.24 92.7827 257.779 92.1522C256.318 91.5216 254.743 91.2039 253.155 91.219Z" fill="#1864AB"/>
<g opacity="0.5">
<path opacity="0.5" d="M253.155 91.219H194.84C191.515 91.2695 188.328 92.5755 185.907 94.8805C183.485 97.1854 182.004 100.323 181.754 103.676L179.482 141.78C179.369 143.382 179.585 144.99 180.118 146.504C180.65 148.017 181.486 149.402 182.574 150.573C183.662 151.743 184.978 152.673 186.439 153.303C187.9 153.934 189.475 154.252 191.063 154.236H200.611L195.091 167.321L215.506 154.236H249.339C252.664 154.186 255.851 152.88 258.272 150.575C260.694 148.27 262.175 145.133 262.425 141.78L264.736 103.676C264.849 102.074 264.633 100.465 264.101 98.9518C263.568 97.4385 262.732 96.053 261.644 94.8827C260.556 93.7124 259.24 92.7827 257.779 92.1522C256.318 91.5216 254.743 91.2039 253.155 91.219Z" fill="#F6FBFF"/>
</g>
<path d="M225.041 128.962C224.84 129.802 224.366 130.548 223.696 131.083C223.026 131.618 222.197 131.91 221.343 131.913H217.897C217.897 130.925 217.976 130.324 217.989 130.111C218.039 128.186 218.527 126.299 219.415 124.597C220.663 122.699 222.248 121.051 224.09 119.737C225.559 118.661 226.945 117.473 228.236 116.185C228.921 115.366 229.329 114.346 229.398 113.275C229.45 112.565 229.34 111.853 229.077 111.194C228.814 110.534 228.404 109.944 227.88 109.47C226.599 108.36 224.942 107.796 223.258 107.894C221.487 107.845 219.756 108.432 218.372 109.55C217.549 110.236 216.875 111.086 216.391 112.047C216.035 112.748 215.481 113.328 214.8 113.713C214.118 114.098 213.34 114.27 212.562 114.209C212.002 114.139 211.468 113.928 211.011 113.594C210.554 113.26 210.187 112.815 209.944 112.3C209.702 111.785 209.592 111.216 209.625 110.647C209.658 110.078 209.832 109.526 210.132 109.043C210.929 107.69 211.952 106.489 213.156 105.491C216.018 103.165 219.615 101.965 223.284 102.113C227.603 102.113 230.957 103.248 233.373 105.531C234.505 106.515 235.395 107.75 235.975 109.14C236.554 110.53 236.807 112.036 236.714 113.542C236.593 115.253 236.008 116.897 235.024 118.295C233.169 120.604 231.025 122.66 228.646 124.41C227.413 125.28 226.348 126.37 225.503 127.627C225.288 128.048 225.132 128.498 225.041 128.962ZM217.5 138.549V138.121C217.57 137.157 217.995 136.253 218.692 135.591C219.389 134.928 220.307 134.554 221.264 134.543H221.739C222.197 134.536 222.651 134.626 223.073 134.806C223.494 134.986 223.874 135.253 224.188 135.589C224.502 135.926 224.744 136.325 224.897 136.761C225.051 137.196 225.113 137.66 225.08 138.121V138.549C225.011 139.515 224.586 140.419 223.889 141.084C223.193 141.749 222.275 142.126 221.317 142.14H220.894C220.431 142.155 219.97 142.07 219.541 141.893C219.112 141.715 218.725 141.448 218.405 141.11C218.085 140.771 217.839 140.368 217.683 139.926C217.527 139.485 217.465 139.016 217.5 138.549Z" fill="white"/>
</g>
</g>
<defs>
<clipPath id="clip0_61_905">
<rect width="577" height="416" fill="white"/>
</clipPath>
<clipPath id="clip1_61_905">
<rect width="652.142" height="619.235" fill="white" transform="translate(-10.1416 -30)"/>
</clipPath>
<clipPath id="clip2_61_905">
<rect width="338" height="333" fill="white" transform="translate(140 60.9978)"/>
</clipPath>
</defs>
</svg>
