<svg width="360" height="329" viewBox="0 0 360 329" fill="none" xmlns="http://www.w3.org/2000/svg">
<g clip-path="url(#clip0_61_685)">
<path d="M401.231 289.422H-42V289.643H401.231V289.422Z" fill="#F7FBFF"/>
<path d="M356.819 303.645H327.46V303.866H356.819V303.645Z" fill="#F7FBFF"/>
<path d="M251.614 306.05H243.911V306.271H251.614V306.05Z" fill="#F7FBFF"/>
<path d="M326.573 295.442H309.562V295.663H326.573V295.442Z" fill="#F7FBFF"/>
<path d="M42.7901 296.927H4.50383V297.148H42.7901V296.927Z" fill="#F7FBFF"/>
<path d="M56.2998 296.927H50.6885V297.148H56.2998V296.927Z" fill="#F7FBFF"/>
<path d="M157.587 300.657H74.5432V300.878H157.587V300.657Z" fill="#F7FBFF"/>
<path d="M168.092 249.995H-3.07543C-4.41634 249.993 -5.70153 249.46 -6.64886 248.514C-7.5962 247.567 -8.12827 246.285 -8.12827 244.948V5.00346C-8.11659 3.67394 -7.57937 2.40271 -6.6333 1.46588C-5.68722 0.529052 -4.40869 0.00229279 -3.07543 1.52588e-05H168.092C169.434 1.52588e-05 170.722 0.531819 171.671 1.47844C172.62 2.42505 173.153 3.70894 173.153 5.04765V244.948C173.153 246.286 172.62 247.57 171.671 248.517C170.722 249.463 169.434 249.995 168.092 249.995ZM-3.07543 0.176816C-4.35756 0.179158 -5.58638 0.688709 -6.49216 1.59363C-7.39793 2.49854 -7.90665 3.72488 -7.90665 5.00346V244.948C-7.90665 246.226 -7.39793 247.452 -6.49216 248.357C-5.58638 249.262 -4.35756 249.772 -3.07543 249.774H168.092C169.375 249.772 170.604 249.263 171.511 248.358C172.419 247.453 172.929 246.227 172.932 244.948V5.00346C172.929 3.72407 172.419 2.49775 171.511 1.59309C170.604 0.688422 169.375 0.179153 168.092 0.176816H-3.07543Z" fill="#F7FBFF"/>
<path d="M359.842 249.995H188.666C187.325 249.993 186.039 249.46 185.09 248.514C184.141 247.568 183.607 246.286 183.605 244.948V5.00346C183.619 3.67314 184.158 2.40191 185.105 1.46533C186.053 0.528743 187.332 0.00226795 188.666 1.52588e-05H359.842C361.174 0.00461603 362.45 0.532404 363.394 1.46898C364.339 2.40556 364.875 3.67547 364.886 5.00346V244.948C364.886 246.283 364.355 247.564 363.41 248.511C362.465 249.457 361.182 249.991 359.842 249.995ZM188.666 0.176816C187.383 0.179153 186.154 0.688422 185.247 1.59309C184.339 2.49775 183.829 3.72407 183.826 5.00346V244.948C183.829 246.227 184.339 247.453 185.247 248.358C186.154 249.263 187.383 249.772 188.666 249.774H359.842C361.125 249.772 362.355 249.263 363.262 248.358C364.169 247.453 364.68 246.227 364.682 244.948V5.00346C364.68 3.72407 364.169 2.49775 363.262 1.59309C362.355 0.688422 361.125 0.179153 359.842 0.176816H188.666Z" fill="#F7FBFF"/>
<path d="M195.377 289.422H226.492V173.856H195.377V289.422Z" fill="#EBF1F8"/>
<path d="M200.554 289.422H195.377V279.017H205.988L200.554 289.422Z" fill="#DEE8F2"/>
<path d="M322.017 289.422H353.132V173.856H322.017V289.422Z" fill="#EBF1F8"/>
<path d="M195.377 285.426H326.538V173.856H195.377V285.426Z" fill="#DEE8F2"/>
<path d="M199.401 209.393L322.522 209.393V178.798H199.401V209.393Z" fill="#EBF1F8"/>
<path d="M255.142 188.292H266.773C271.825 188.292 276.657 184.517 280.132 177.852H241.783C245.258 184.535 250.089 188.292 255.142 188.292Z" fill="#DEE8F2"/>
<path d="M321.361 289.422H326.538V279.017H315.927L321.361 289.422Z" fill="#DEE8F2"/>
<path d="M199.401 244.939L322.522 244.939V214.343H199.401V244.939Z" fill="#EBF1F8"/>
<path d="M255.142 223.846H266.773C271.825 223.846 276.657 220.072 280.132 213.406H241.783C245.258 220.116 250.089 223.846 255.142 223.846Z" fill="#DEE8F2"/>
<path d="M199.401 280.484H322.522V249.889H199.401V280.484Z" fill="#EBF1F8"/>
<path d="M255.142 259.392H266.773C271.825 259.392 276.657 255.617 280.132 248.952H241.783C245.258 255.617 250.089 259.392 255.142 259.392Z" fill="#DEE8F2"/>
<path d="M27.1352 147.646L145.957 147.646L145.957 27.7488L27.1352 27.7488L27.1352 147.646Z" fill="#EBF1F8"/>
<path d="M18.8822 147.646L143.767 147.646L143.767 27.7488L18.8822 27.7488L18.8822 147.646Z" fill="#DEE8F2"/>
<path d="M133.316 137.214V38.1799L29.3602 38.1799V137.214H133.316Z" fill="white"/>
<path d="M80.6155 51.272L61.5388 70.331C56.9289 74.9396 54.3401 81.1834 54.3401 87.6928C54.3401 94.2022 56.9289 100.446 61.5388 105.055L80.6155 124.087C80.7085 124.18 80.8191 124.254 80.9408 124.304C81.0625 124.355 81.1929 124.381 81.3247 124.381C81.4564 124.381 81.5869 124.355 81.7086 124.304C81.8302 124.254 81.9408 124.18 82.0338 124.087L101.119 105.055C105.729 100.446 108.318 94.2022 108.318 87.6928C108.318 81.1834 105.729 74.9396 101.119 70.331L82.0427 51.272C81.8521 51.0857 81.5959 50.9814 81.3291 50.9814C81.0622 50.9814 80.8061 51.0857 80.6155 51.272ZM62.9572 103.605C58.7246 99.3725 56.3477 93.6391 56.3477 87.6618C56.3477 81.6846 58.7246 75.9512 62.9572 71.7189V103.605ZM99.701 103.605V71.7543C103.934 75.9866 106.31 81.7199 106.31 87.6972C106.31 93.6745 103.934 99.4079 99.701 103.64V103.605Z" fill="#DEE8F2"/>
<path d="M318.657 132.6H252.27L248.485 171.69H314.872L318.657 132.6Z" fill="#EBF1F8"/>
<path d="M314.872 171.691L314.606 173.856H248.21L248.485 171.691H314.872Z" fill="#EBF1F8"/>
<path d="M316.618 132.6H250.231L246.437 171.69H312.824L316.618 132.6Z" fill="#DEE8F2"/>
<path d="M311.486 169.145L314.26 135.252C314.268 135.139 314.252 135.026 314.214 134.92C314.176 134.813 314.116 134.716 314.039 134.633C313.962 134.55 313.869 134.484 313.765 134.439C313.661 134.393 313.549 134.369 313.436 134.368H252.403C252.194 134.367 251.992 134.445 251.838 134.586C251.683 134.727 251.588 134.92 251.57 135.128L248.76 169.012C248.752 169.126 248.769 169.239 248.807 169.346C248.846 169.453 248.906 169.551 248.984 169.634C249.062 169.717 249.157 169.783 249.261 169.828C249.366 169.873 249.479 169.896 249.593 169.896H310.626C310.839 169.906 311.047 169.833 311.208 169.693C311.368 169.553 311.468 169.356 311.486 169.145Z" fill="white"/>
<path d="M295.529 171.691L295.263 173.856H222.157L222.423 171.691H295.529Z" fill="#DEE8F2"/>
<path d="M206.289 111.702L330.952 111.702V29.0571L206.289 29.0571V111.702Z" fill="#EBF1F8"/>
<path d="M203.524 111.702L328.187 111.702V29.0571L203.524 29.0571V111.702Z" fill="#F0F6FD"/>
<path d="M323.214 106.133V34.6351L208.497 34.6351V106.133H323.214Z" fill="white"/>
<path d="M210.58 106.124V34.6263H208.488V106.124H210.58Z" fill="#EBF1F8"/>
<path d="M205.58 96.6477L326.13 96.6477V89.1691L205.58 89.1691V96.6477Z" fill="#F0F6FD"/>
<path d="M198.098 19.8459H336.386C336.588 19.8482 336.781 19.929 336.923 20.0711C337.065 20.2131 337.147 20.4052 337.149 20.6061C337.149 20.8077 337.069 21.0011 336.926 21.1437C336.783 21.2862 336.589 21.3663 336.386 21.3663H198.098C197.998 21.3675 197.897 21.3487 197.804 21.311C197.71 21.2733 197.625 21.2175 197.554 21.1468C197.482 21.0761 197.425 20.9919 197.386 20.8991C197.347 20.8063 197.327 20.7067 197.327 20.6061C197.329 20.4037 197.412 20.2103 197.556 20.068C197.701 19.9257 197.895 19.8458 198.098 19.8459Z" fill="#EBF1F8"/>
<path d="M195.421 20.606C195.421 20.9833 195.533 21.3521 195.743 21.6659C195.953 21.9798 196.252 22.2245 196.601 22.3693C196.951 22.514 197.335 22.5524 197.706 22.4794C198.078 22.4064 198.419 22.2255 198.687 21.9593C198.955 21.6932 199.138 21.3537 199.213 20.9839C199.288 20.6141 199.251 20.2305 199.108 19.8814C198.964 19.5324 198.72 19.2336 198.406 19.0227C198.093 18.8118 197.723 18.6983 197.345 18.6966C197.093 18.6954 196.843 18.744 196.609 18.8394C196.376 18.9348 196.164 19.0753 195.985 19.2527C195.806 19.4302 195.665 19.641 195.568 19.8733C195.471 20.1055 195.421 20.3545 195.421 20.606Z" fill="#EBF1F8"/>
<path d="M329.915 24.8846C330.187 24.8846 330.448 24.7781 330.642 24.5879C330.836 24.3978 330.948 24.1392 330.952 23.868V21.658C330.952 21.3837 330.843 21.1206 330.649 20.9266C330.454 20.7327 330.19 20.6237 329.915 20.6237C329.779 20.6237 329.645 20.6505 329.52 20.7026C329.394 20.7547 329.281 20.831 329.185 20.9272C329.089 21.0233 329.014 21.1374 328.963 21.2628C328.912 21.3883 328.886 21.5226 328.887 21.658V23.868C328.892 24.1377 329.002 24.3949 329.194 24.5848C329.386 24.7747 329.645 24.8823 329.915 24.8846Z" fill="#EBF1F8"/>
<path d="M209.64 24.8846C209.905 24.8734 210.156 24.7622 210.342 24.5735C210.528 24.3847 210.635 24.1325 210.642 23.868V21.658C210.642 21.3837 210.533 21.1206 210.338 20.9266C210.144 20.7327 209.88 20.6237 209.605 20.6237C209.469 20.6237 209.334 20.6505 209.209 20.7026C209.084 20.7547 208.97 20.831 208.874 20.9272C208.779 21.0233 208.703 21.1374 208.652 21.2628C208.601 21.3883 208.575 21.5226 208.576 21.658V23.868C208.579 24.0046 208.608 24.1393 208.663 24.2645C208.718 24.3897 208.797 24.5028 208.896 24.5974C208.995 24.6919 209.111 24.7659 209.239 24.8152C209.367 24.8645 209.503 24.8881 209.64 24.8846Z" fill="#EBF1F8"/>
<path opacity="0.4" d="M198.347 100.9L326.13 100.9V20.6061L198.347 20.6061V100.9Z" fill="#EBF1F8"/>
<path d="M315.696 20.606C315.696 20.9837 315.809 21.3528 316.019 21.6668C316.23 21.9809 316.529 22.2256 316.878 22.3701C317.228 22.5146 317.613 22.5524 317.985 22.4788C318.356 22.4051 318.697 22.2232 318.965 21.9562C319.233 21.6892 319.415 21.3489 319.489 20.9785C319.563 20.6081 319.525 20.2242 319.38 19.8753C319.235 19.5264 318.99 19.2282 318.675 19.0184C318.36 18.8086 317.99 18.6966 317.611 18.6966C317.103 18.6966 316.616 18.8977 316.257 19.2558C315.898 19.6139 315.696 20.0996 315.696 20.606Z" fill="#EBF1F8"/>
<path d="M134.849 283.693H145.097V195.055H134.849V283.693Z" fill="#DEE8F2"/>
<path d="M23.6869 289.307H141.161V283.693H23.6869V289.307Z" fill="#DEE8F2"/>
<path d="M134.849 195.055H19.751V283.693H134.849V195.055Z" fill="#F0F6FD"/>
<path d="M120.48 205.963H34.1205C30.6347 205.963 27.8089 208.781 27.8089 212.257V228.735C27.8089 232.211 30.6347 235.029 34.1205 235.029H120.48C123.965 235.029 126.791 232.211 126.791 228.735V212.257C126.791 208.781 123.965 205.963 120.48 205.963Z" fill="#DEE8F2"/>
<path d="M120.48 243.71H34.1205C30.6347 243.71 27.8089 246.528 27.8089 250.004V266.482C27.8089 269.958 30.6347 272.776 34.1205 272.776H120.48C123.965 272.776 126.791 269.958 126.791 266.482V250.004C126.791 246.528 123.965 243.71 120.48 243.71Z" fill="#DEE8F2"/>
<path d="M55.8566 222.494H98.7436C99.2735 222.494 99.7817 222.285 100.157 221.912C100.533 221.539 100.745 221.033 100.747 220.505C100.745 219.976 100.533 219.469 100.158 219.095C99.7825 218.721 99.2743 218.51 98.7436 218.507H55.8566C55.326 218.51 54.8177 218.721 54.4425 219.095C54.0673 219.469 53.8555 219.976 53.8532 220.505C53.8555 221.033 54.0676 221.539 54.4431 221.912C54.8185 222.285 55.3268 222.494 55.8566 222.494Z" fill="#F0F6FD"/>
<path d="M55.8566 260.241H98.7436C99.2735 260.241 99.7817 260.032 100.157 259.659C100.533 259.286 100.745 258.78 100.747 258.252C100.745 257.723 100.533 257.216 100.158 256.842C99.7825 256.468 99.2743 256.256 98.7436 256.254H55.8566C55.326 256.256 54.8177 256.468 54.4425 256.842C54.0673 257.216 53.8555 257.723 53.8532 258.252C53.8555 258.78 54.0676 259.286 54.4431 259.659C54.8185 260.032 55.3268 260.241 55.8566 260.241Z" fill="#F0F6FD"/>
<path d="M217.601 41.0618H53.7823L66.5119 263.538H230.321L217.601 41.0618Z" fill="#1F364D"/>
<path d="M220.783 41.0618H56.9646L69.6942 263.538H233.512L220.783 41.0618Z" fill="#1864AB"/>
<path opacity="0.5" d="M209.498 48.5405H64.4552L74.8534 249.924H223.664L209.498 48.5405Z" fill="#1F364D"/>
<path d="M64.4552 48.5405C75.2346 115.671 67.8415 182.802 78.6386 249.924H227.431C216.652 182.802 224.045 115.671 213.248 48.5405H64.4552Z" fill="white"/>
<g opacity="0.3">
<path opacity="0.3" d="M94.8787 108.882C98.1646 108.908 101.315 110.191 103.68 112.466C106.046 114.741 107.445 117.834 107.591 121.108C107.657 122.683 107.401 124.255 106.839 125.728C106.276 127.201 105.419 128.544 104.319 129.676C103.22 130.808 101.901 131.706 100.442 132.313C98.9837 132.921 97.4165 133.226 95.836 133.21C92.5703 133.183 89.4403 131.904 87.095 129.637C84.7498 127.371 83.3691 124.291 83.2394 121.037C83.1711 119.467 83.4208 117.899 83.9737 116.428C84.5266 114.956 85.3713 113.61 86.4573 112.471C87.5467 111.343 88.8552 110.447 90.303 109.839C91.7509 109.231 93.3077 108.924 94.8787 108.935V108.882ZM94.79 106.381C92.8793 106.369 90.9862 106.745 89.2265 107.488C87.4668 108.231 85.8774 109.323 84.5556 110.699C83.2339 112.075 82.2074 113.706 81.5391 115.491C80.8708 117.276 80.5746 119.178 80.6687 121.081C80.8234 125.01 82.4888 128.729 85.3195 131.466C88.1501 134.204 91.9287 135.749 95.8715 135.782C97.791 135.798 99.6937 135.425 101.464 134.686C103.235 133.947 104.837 132.858 106.173 131.483C107.509 130.109 108.551 128.478 109.237 126.69C109.922 124.902 110.237 122.994 110.161 121.081C109.971 117.135 108.271 113.412 105.412 110.678C102.553 107.943 98.7515 106.405 94.79 106.381V106.381Z" fill="#1864AB"/>
</g>
<path d="M177.151 219.161H130.169C129.817 219.155 129.469 219.224 129.146 219.363C128.823 219.502 128.534 219.708 128.297 219.968C128.061 220.227 127.882 220.534 127.774 220.867C127.666 221.201 127.63 221.553 127.669 221.902C127.754 222.647 128.108 223.336 128.663 223.841C129.219 224.347 129.94 224.634 130.692 224.651H177.674C178.026 224.657 178.375 224.588 178.698 224.449C179.02 224.309 179.309 224.102 179.544 223.841C179.78 223.58 179.956 223.272 180.062 222.938C180.167 222.603 180.2 222.25 180.156 221.902C180.073 221.16 179.722 220.473 179.17 219.969C178.617 219.465 177.9 219.178 177.151 219.161Z" fill="#EBF1F8"/>
<path d="M202.282 207.625H129.22C128.867 207.618 128.516 207.686 128.19 207.825C127.865 207.963 127.573 208.168 127.332 208.427C127.092 208.686 126.909 208.992 126.796 209.326C126.683 209.66 126.642 210.014 126.676 210.365C126.74 211.108 127.078 211.801 127.625 212.309C128.172 212.817 128.889 213.104 129.637 213.115H202.664C203.018 213.125 203.37 213.06 203.697 212.925C204.024 212.789 204.319 212.586 204.562 212.329C204.805 212.072 204.99 211.766 205.106 211.432C205.222 211.098 205.266 210.744 205.234 210.392C205.177 209.647 204.842 208.95 204.296 208.438C203.75 207.926 203.032 207.636 202.282 207.625Z" fill="#EBF1F8"/>
<g opacity="0.3">
<path opacity="0.3" d="M96.3768 156.468C99.6385 156.491 102.765 157.771 105.103 160.039C107.44 162.308 108.808 165.39 108.92 168.641C108.98 170.214 108.721 171.784 108.159 173.256C107.597 174.727 106.743 176.071 105.649 177.207C104.554 178.338 103.239 179.234 101.786 179.842C100.332 180.45 98.7688 180.757 97.1923 180.743C93.9227 180.72 90.7872 179.443 88.4367 177.177C86.0862 174.91 84.7012 171.828 84.5691 168.57C84.5153 166.994 84.7815 165.423 85.3517 163.952C85.9218 162.481 86.7842 161.14 87.887 160.01C88.9898 158.88 90.3103 157.983 91.7693 157.375C93.2282 156.766 94.7954 156.458 96.3768 156.468V156.468ZM96.3768 153.904C94.456 153.893 92.5527 154.268 90.7809 155.008C89.0091 155.747 87.4054 156.836 86.066 158.209C84.7265 159.582 83.679 161.21 82.9861 162.997C82.2932 164.783 81.9693 166.691 82.0338 168.605C82.1912 172.545 83.8656 176.272 86.7088 179.012C89.552 181.752 93.345 183.293 97.2987 183.315C99.2137 183.323 101.11 182.943 102.875 182.2C104.639 181.457 106.233 180.365 107.563 178.99C108.892 177.616 109.929 175.987 110.61 174.202C111.291 172.417 111.603 170.514 111.526 168.605C111.394 164.678 109.742 160.955 106.919 158.214C104.095 155.474 100.317 153.93 96.3768 153.904V153.904Z" fill="#1864AB"/>
</g>
<path d="M151.072 118.005H125.94C125.202 117.999 124.494 117.71 123.963 117.199C123.432 116.687 123.118 115.992 123.086 115.256C123.074 114.9 123.134 114.546 123.262 114.214C123.391 113.882 123.585 113.579 123.833 113.323C124.081 113.068 124.378 112.864 124.707 112.726C125.035 112.587 125.388 112.515 125.745 112.516H150.868C151.606 112.521 152.315 112.808 152.849 113.318C153.383 113.827 153.701 114.52 153.74 115.256C153.753 115.613 153.694 115.969 153.565 116.303C153.437 116.636 153.242 116.941 152.993 117.198C152.744 117.454 152.445 117.658 152.115 117.797C151.785 117.936 151.43 118.007 151.072 118.005Z" fill="#EBF1F8"/>
<path d="M180.077 118.005H163.056C162.317 117.999 161.608 117.711 161.076 117.199C160.543 116.688 160.227 115.993 160.193 115.256C160.181 114.9 160.241 114.546 160.37 114.214C160.498 113.882 160.692 113.579 160.94 113.323C161.188 113.068 161.485 112.864 161.814 112.726C162.143 112.587 162.496 112.515 162.853 112.516H179.882C180.619 112.521 181.327 112.809 181.859 113.318C182.392 113.828 182.709 114.521 182.745 115.256C182.758 115.613 182.699 115.969 182.57 116.303C182.442 116.636 182.247 116.941 181.998 117.198C181.749 117.454 181.45 117.658 181.12 117.797C180.79 117.936 180.435 118.007 180.077 118.005Z" fill="#EBF1F8"/>
<path d="M193.799 129.541H126.339C125.601 129.537 124.893 129.249 124.363 128.737C123.832 128.224 123.521 127.528 123.494 126.792C123.482 126.436 123.542 126.082 123.67 125.75C123.798 125.418 123.992 125.115 124.241 124.859C124.489 124.604 124.786 124.4 125.114 124.262C125.443 124.123 125.796 124.051 126.153 124.052H193.604C194.34 124.056 195.046 124.343 195.574 124.854C196.103 125.364 196.413 126.059 196.441 126.792C196.454 127.147 196.395 127.501 196.269 127.833C196.142 128.165 195.95 128.468 195.703 128.724C195.457 128.981 195.161 129.185 194.834 129.325C194.507 129.466 194.155 129.539 193.799 129.541Z" fill="#EBF1F8"/>
<g opacity="0.3">
<path opacity="0.3" d="M98.3004 203.992C101.607 204.056 104.774 205.335 107.194 207.582C109.615 209.83 111.12 212.889 111.42 216.173C111.579 217.712 111.416 219.267 110.942 220.74C110.467 222.213 109.691 223.572 108.663 224.73C107.626 225.869 106.358 226.773 104.942 227.383C103.526 227.993 101.996 228.294 100.454 228.266C97.1191 228.213 93.9182 226.946 91.4533 224.704C88.9884 222.463 87.4293 219.401 87.0689 216.094C86.9169 214.543 87.0958 212.979 87.5939 211.502C88.092 210.026 88.898 208.671 89.9588 207.528C91.0262 206.392 92.3194 205.492 93.7557 204.883C95.192 204.274 96.7399 203.97 98.3004 203.992V203.992ZM98.1763 201.437C96.2779 201.4 94.393 201.763 92.6453 202.504C90.8976 203.244 89.3265 204.344 88.035 205.732C86.7435 207.12 85.7608 208.765 85.1513 210.558C84.5417 212.351 84.3192 214.253 84.4982 216.138C85.1808 224.253 92.565 230.839 100.703 230.839C108.84 230.839 114.673 224.253 114 216.138C113.648 212.173 111.838 208.478 108.919 205.764C105.999 203.05 102.176 201.509 98.1852 201.437H98.1763Z" fill="#1864AB"/>
</g>
<path d="M205.323 171.611H127.483C127.126 171.611 126.773 171.682 126.444 171.821C126.116 171.96 125.818 172.163 125.57 172.419C125.322 172.674 125.128 172.977 125 173.309C124.871 173.641 124.811 173.996 124.823 174.351C124.855 175.085 125.168 175.778 125.698 176.288C126.227 176.798 126.933 177.086 127.669 177.092H205.545C205.901 177.092 206.255 177.02 206.583 176.882C206.912 176.743 207.209 176.54 207.457 176.284C207.705 176.028 207.899 175.725 208.028 175.393C208.156 175.061 208.216 174.707 208.204 174.351C208.176 173.61 207.86 172.909 207.322 172.397C206.784 171.886 206.067 171.603 205.323 171.611Z" fill="#EBF1F8"/>
<path d="M186.876 160.066H127.146C126.788 160.066 126.434 160.137 126.105 160.277C125.776 160.416 125.478 160.62 125.23 160.877C124.982 161.133 124.788 161.437 124.66 161.77C124.532 162.103 124.473 162.459 124.487 162.815C124.512 163.548 124.82 164.242 125.347 164.753C125.874 165.264 126.579 165.551 127.314 165.555H187.053C187.41 165.556 187.763 165.484 188.092 165.346C188.42 165.207 188.717 165.003 188.966 164.748C189.214 164.492 189.408 164.189 189.536 163.857C189.664 163.525 189.724 163.171 189.712 162.815C189.692 162.079 189.384 161.379 188.854 160.866C188.324 160.353 187.614 160.066 186.876 160.066Z" fill="#EBF1F8"/>
<path d="M96.2261 129.7L95.18 127.985C92.8841 124.246 88.0883 120.913 86.4395 119.932L87.6806 117.74C90.9367 119.705 93.8376 122.204 96.2615 125.13C100.029 120.083 105.534 114.893 112.989 109.289L114.594 111.357C106.615 117.342 100.96 122.849 97.3341 128.092C96.9707 128.631 96.5984 129.17 96.2261 129.7Z" fill="#1864AB"/>
<path d="M97.5558 177.26C97.21 176.685 96.8555 176.11 96.5009 175.545C94.1961 171.805 89.4092 168.473 87.7781 167.483L89.0369 165.29C92.2762 167.261 95.1616 169.759 97.5735 172.681C101.35 167.642 106.899 162.444 114.469 156.839L116.038 158.908C107.954 164.893 102.263 170.4 98.655 175.642L97.5558 177.26Z" fill="#1864AB"/>
<path d="M100.596 224.925L99.4262 223.21C96.8732 219.471 91.9267 216.138 90.2247 215.157L91.3771 212.964C94.7269 214.944 97.7449 217.435 100.322 220.346C103.796 215.307 109.08 210.109 116.42 204.513L118.077 206.582C110.241 212.567 104.86 218.074 101.589 223.316L100.596 224.925Z" fill="#1864AB"/>
<path d="M156.656 65.416C155.096 68.8105 153.497 72.2021 151.86 75.5908C155.235 77.2647 158.12 79.7773 160.238 82.8864C162.356 85.9955 163.635 89.5963 163.952 93.3415H175.733C174.953 81.328 167.205 70.8703 156.656 65.416Z" fill="#1864AB"/>
<path d="M111.775 93.3592H123.556C123.267 90.0361 123.874 86.6965 125.314 83.6859C126.754 80.6754 128.975 78.1034 131.747 76.2361C129.454 72.8416 127.125 69.447 124.761 66.0525C116.163 71.604 111.021 81.7788 111.775 93.3592Z" fill="#1F364D"/>
<path d="M140.718 61.4733C135.065 61.4175 129.519 63.009 124.761 66.0524C127.125 69.447 129.454 72.8415 131.747 76.2361C134.818 74.2346 138.414 73.1828 142.083 73.2128C145.477 73.2324 148.819 74.0533 151.834 75.6084C153.465 72.2139 155.064 68.8223 156.63 65.4336C151.718 62.8664 146.263 61.5085 140.718 61.4733V61.4733Z" fill="#1864AB"/>
<path opacity="0.5" d="M140.718 61.4733C135.065 61.4175 129.519 63.009 124.761 66.0524C127.125 69.447 129.454 72.8415 131.747 76.2361C134.818 74.2346 138.414 73.1828 142.083 73.2128C145.477 73.2324 148.819 74.0533 151.834 75.6084C153.465 72.2139 155.064 68.8223 156.63 65.4336C151.718 62.8664 146.263 61.5085 140.718 61.4733Z" fill="#1F364D"/>
<path d="M155.114 85.3148C155.114 85.3148 143.217 90.168 141.959 91.052C141.658 91.279 141.406 91.5637 141.217 91.8894C141.029 92.215 140.907 92.5749 140.86 92.9481C140.813 93.3212 140.841 93.7 140.943 94.0621C141.045 94.4242 141.218 94.7623 141.453 95.0565C141.897 95.6854 142.569 96.1173 143.327 96.2608C144.085 96.4044 144.869 96.2483 145.513 95.8256C146.816 94.8885 155.131 85.3148 155.114 85.3148ZM142.615 94.1548C142.499 94.01 142.413 93.8436 142.363 93.6654C142.313 93.4872 142.299 93.3007 142.322 93.117C142.345 92.9333 142.405 92.7561 142.498 92.5958C142.591 92.4355 142.715 92.2953 142.863 92.1835C143.182 91.9787 143.568 91.904 143.941 91.9747C144.313 92.0454 144.645 92.2563 144.866 92.5636C144.982 92.7084 145.067 92.8748 145.118 93.0531C145.168 93.2313 145.182 93.4177 145.159 93.6014C145.136 93.7851 145.076 93.9624 144.983 94.1227C144.89 94.283 144.766 94.4232 144.618 94.5349C144.303 94.7434 143.92 94.8238 143.548 94.7597C143.175 94.6956 142.841 94.4919 142.615 94.1902V94.1548Z" fill="#1F364D"/>
<path d="M169.217 79.7015C169.275 80.2336 169.219 80.7719 169.052 81.2806C168.885 81.7892 168.611 82.2566 168.249 82.6514C167.887 83.0462 167.444 83.3595 166.951 83.5703C166.457 83.7811 165.924 83.8846 165.388 83.874C164.251 83.8516 163.161 83.4149 162.325 82.6461C161.489 81.8774 160.964 80.8299 160.849 79.7015C160.788 79.1722 160.842 78.6362 161.006 78.1292C161.17 77.6222 161.44 77.156 161.8 76.7618C162.159 76.3675 162.598 76.0544 163.089 75.8433C163.579 75.6322 164.109 75.5281 164.643 75.5378C165.783 75.557 166.877 75.9907 167.72 76.7574C168.562 77.524 169.094 78.5709 169.217 79.7015Z" fill="white"/>
<path d="M164.032 78.7467C164.04 78.8307 164.031 78.9156 164.005 78.9958C163.978 79.076 163.935 79.1498 163.879 79.2124C163.822 79.2749 163.752 79.3248 163.675 79.3588C163.597 79.3928 163.513 79.4102 163.429 79.4097C163.247 79.4084 163.072 79.3399 162.938 79.2175C162.803 79.095 162.719 78.9273 162.702 78.7467C162.692 78.6625 162.7 78.577 162.726 78.4962C162.751 78.4153 162.794 78.3409 162.852 78.278C162.909 78.2152 162.979 78.1653 163.057 78.1318C163.135 78.0982 163.22 78.0819 163.305 78.0837C163.487 78.0851 163.662 78.1536 163.796 78.276C163.93 78.3985 164.014 78.5662 164.032 78.7467Z" fill="#1F364D"/>
<path d="M167.205 78.7467C167.214 78.8315 167.205 78.9171 167.178 78.9979C167.151 79.0788 167.107 79.153 167.049 79.2157C166.991 79.2784 166.921 79.3281 166.842 79.3616C166.764 79.395 166.679 79.4114 166.593 79.4097C166.413 79.4046 166.24 79.3348 166.106 79.2131C165.973 79.0914 165.888 78.9258 165.867 78.7467C165.856 78.6617 165.865 78.5755 165.891 78.494C165.917 78.4124 165.961 78.3376 166.019 78.2746C166.077 78.2116 166.148 78.1619 166.228 78.1289C166.307 78.096 166.392 78.0805 166.478 78.0837C166.66 78.0851 166.835 78.1536 166.969 78.276C167.104 78.3984 167.188 78.5661 167.205 78.7467Z" fill="#1F364D"/>
<path d="M165.228 82.2119C164.351 82.205 163.508 81.8743 162.861 81.2837C162.801 81.2225 162.767 81.1399 162.767 81.0539C162.767 80.9678 162.801 80.8853 162.861 80.824C162.891 80.793 162.927 80.7683 162.967 80.7515C163.006 80.7346 163.049 80.7259 163.092 80.7259C163.135 80.7259 163.178 80.7346 163.217 80.7515C163.257 80.7683 163.293 80.793 163.322 80.824C163.847 81.3063 164.533 81.5772 165.246 81.5843C165.577 81.5917 165.906 81.5294 166.212 81.4014C166.517 81.2735 166.792 81.0828 167.019 80.8417C167.079 80.7784 167.162 80.7415 167.249 80.739C167.292 80.7377 167.335 80.745 167.376 80.7604C167.416 80.7757 167.453 80.7989 167.484 80.8285C167.516 80.8581 167.541 80.8935 167.559 80.9329C167.576 80.9722 167.586 81.0147 167.587 81.0578C167.589 81.1009 167.581 81.1438 167.566 81.1841C167.551 81.2244 167.527 81.2612 167.498 81.2926C167.206 81.5966 166.853 81.8356 166.461 81.9941C166.07 82.1525 165.65 82.2267 165.228 82.2119Z" fill="#1F364D"/>
<path d="M145.593 67.2725C145.666 67.7985 145.624 68.3341 145.47 68.8423C145.315 69.3505 145.052 69.8192 144.698 70.2159C144.344 70.6127 143.907 70.928 143.419 71.1402C142.931 71.3524 142.402 71.4564 141.87 71.4449C140.723 71.4183 139.624 70.9827 138.772 70.2172C137.92 69.4517 137.371 68.4069 137.225 67.2725C137.146 66.7488 137.183 66.2143 137.333 65.7064C137.483 65.1985 137.743 64.7296 138.095 64.3327C138.446 63.9358 138.881 63.6205 139.368 63.4091C139.854 63.1976 140.382 63.0951 140.913 63.1088C142.061 63.1358 143.163 63.5695 144.021 64.3323C144.878 65.0951 145.436 66.1373 145.593 67.2725Z" fill="white"/>
<path d="M140.381 66.3C140.392 66.383 140.386 66.4675 140.361 66.5478C140.337 66.628 140.296 66.7021 140.24 66.765C140.185 66.8279 140.116 66.8782 140.04 66.9123C139.963 66.9465 139.88 66.9638 139.796 66.963C139.613 66.9584 139.438 66.8893 139.301 66.7678C139.165 66.6464 139.076 66.4806 139.051 66.3C139.038 66.2167 139.044 66.1316 139.067 66.0507C139.091 65.9698 139.132 65.8951 139.188 65.8318C139.244 65.7685 139.313 65.7183 139.39 65.6846C139.468 65.6509 139.552 65.6347 139.636 65.637C139.819 65.6397 139.996 65.7083 140.132 65.8301C140.269 65.9518 140.357 66.1187 140.381 66.3Z" fill="#1F364D"/>
<path d="M143.545 66.3C143.557 66.3837 143.55 66.469 143.525 66.5499C143.501 66.6308 143.459 66.7053 143.402 66.7684C143.346 66.8314 143.276 66.8815 143.198 66.9151C143.12 66.9487 143.036 66.965 142.952 66.963C142.769 66.9567 142.595 66.8869 142.459 66.7658C142.323 66.6447 142.234 66.4798 142.207 66.3C142.195 66.2162 142.202 66.1309 142.227 66.05C142.252 65.9691 142.294 65.8946 142.35 65.8315C142.407 65.7685 142.476 65.7184 142.554 65.6848C142.632 65.6512 142.716 65.6349 142.801 65.637C142.984 65.6415 143.159 65.7107 143.295 65.8321C143.432 65.9535 143.52 66.1194 143.545 66.3Z" fill="#1F364D"/>
<path d="M143.634 68.9519H139.485C139.407 68.9391 139.335 68.8986 139.283 68.8379C139.231 68.7772 139.203 68.7001 139.203 68.6204C139.203 68.5408 139.231 68.4637 139.283 68.403C139.335 68.3422 139.407 68.3018 139.485 68.2889H143.634C143.713 68.3018 143.785 68.3422 143.836 68.403C143.888 68.4637 143.916 68.5408 143.916 68.6204C143.916 68.7001 143.888 68.7772 143.836 68.8379C143.785 68.8986 143.713 68.9391 143.634 68.9519Z" fill="#1F364D"/>
<path d="M124.54 79.7015C124.598 80.2336 124.541 80.7719 124.374 81.2806C124.207 81.7892 123.934 82.2566 123.571 82.6514C123.209 83.0462 122.766 83.3595 122.273 83.5703C121.78 83.7811 121.247 83.8846 120.71 83.874C119.573 83.8516 118.484 83.4149 117.647 82.6461C116.811 81.8774 116.286 80.8299 116.171 79.7015C116.111 79.1722 116.164 78.6362 116.328 78.1292C116.492 77.6222 116.763 77.156 117.122 76.7618C117.481 76.3675 117.921 76.0544 118.411 75.8433C118.901 75.6322 119.431 75.5281 119.966 75.5378C121.105 75.5589 122.198 75.9932 123.04 76.7595C123.882 77.5258 124.415 78.5716 124.54 79.7015Z" fill="white"/>
<path d="M119.336 78.7467C119.345 78.8307 119.336 78.9156 119.309 78.9958C119.283 79.076 119.24 79.1498 119.183 79.2124C119.126 79.2749 119.057 79.3248 118.979 79.3588C118.902 79.3928 118.818 79.4102 118.733 79.4097C118.551 79.4084 118.376 79.3399 118.242 79.2175C118.108 79.095 118.024 78.9273 118.006 78.7467C117.996 78.6625 118.004 78.577 118.03 78.4962C118.056 78.4153 118.099 78.3409 118.156 78.278C118.213 78.2152 118.283 78.1653 118.362 78.1318C118.44 78.0982 118.524 78.0819 118.609 78.0837C118.791 78.0851 118.966 78.1536 119.1 78.276C119.235 78.3985 119.319 78.5662 119.336 78.7467Z" fill="#1F364D"/>
<path d="M122.51 78.7467C122.52 78.831 122.512 78.9164 122.486 78.9973C122.46 79.0782 122.417 79.1526 122.36 79.2154C122.303 79.2783 122.233 79.3282 122.155 79.3617C122.076 79.3952 121.992 79.4116 121.907 79.4097C121.726 79.4046 121.553 79.3348 121.42 79.2131C121.286 79.0914 121.201 78.9258 121.18 78.7467C121.17 78.6625 121.178 78.577 121.204 78.4962C121.23 78.4153 121.272 78.3409 121.33 78.278C121.387 78.2152 121.457 78.1653 121.535 78.1318C121.613 78.0982 121.698 78.0819 121.783 78.0837C121.965 78.0831 122.141 78.1509 122.276 78.2737C122.411 78.3966 122.494 78.5654 122.51 78.7467Z" fill="#1F364D"/>
<path d="M118.45 82.212C118.409 82.2126 118.368 82.2051 118.33 82.1899C118.292 82.1748 118.257 82.1522 118.228 82.1236C118.167 82.0624 118.133 81.9798 118.133 81.8938C118.133 81.8077 118.167 81.7252 118.228 81.664C118.516 81.3591 118.863 81.1169 119.249 80.9526C119.635 80.7882 120.051 80.7054 120.471 80.7092C121.349 80.7185 122.192 81.0524 122.838 81.6463C122.869 81.676 122.894 81.7117 122.91 81.7512C122.927 81.7907 122.936 81.8332 122.936 81.8761C122.936 81.9191 122.927 81.9616 122.91 82.0011C122.894 82.0406 122.869 82.0762 122.838 82.106C122.774 82.165 122.69 82.1978 122.603 82.1978C122.516 82.1978 122.432 82.165 122.368 82.106C121.843 81.618 121.153 81.3463 120.435 81.3457C120.105 81.3383 119.777 81.3997 119.471 81.5261C119.166 81.6524 118.891 81.8409 118.662 82.0794C118.611 82.1486 118.535 82.196 118.45 82.212Z" fill="#1F364D"/>
<path d="M185.59 49.115C182.825 43.3071 176.371 39.4617 169.412 39.4617H155.229C154.255 39.5046 153.287 39.2901 152.423 38.8399C151.559 38.3897 150.83 37.7199 150.309 36.8981C148.332 33.203 143.616 30.5687 138.262 30.5687C132.908 30.5687 128.511 33.2207 126.951 36.8981C126.304 38.454 124.451 39.4617 122.323 39.4617H108.14C101.181 39.4617 95.1623 43.3071 93.0702 49.115C92.9927 49.3177 92.9624 49.5354 92.9816 49.7515C93.0044 50.2049 93.2012 50.6322 93.5312 50.9449C93.8613 51.2576 94.2993 51.4317 94.7545 51.4311H184.181C184.454 51.4317 184.723 51.3619 184.961 51.2285C185.199 51.0951 185.399 50.9026 185.541 50.6697C185.683 50.4367 185.762 50.1712 185.77 49.8988C185.779 49.6264 185.717 49.3565 185.59 49.115ZM138.838 41.0618C137.78 41.04 136.769 40.6242 136.003 39.8962C135.237 39.1683 134.771 38.1808 134.699 37.128C134.663 36.6209 134.733 36.112 134.905 35.6334C135.076 35.1548 135.346 34.7169 135.695 34.3472C136.045 33.9776 136.468 33.6843 136.937 33.4858C137.407 33.2873 137.912 33.188 138.422 33.1942C139.486 33.2051 140.508 33.6163 141.282 34.3456C142.056 35.0749 142.526 36.0685 142.597 37.128C142.633 37.638 142.562 38.1499 142.388 38.631C142.214 39.1121 141.942 39.5518 141.588 39.922C141.234 40.2921 140.807 40.5847 140.334 40.781C139.86 40.9772 139.351 41.0729 138.838 41.0618Z" fill="#1F364D"/>
<path d="M277.499 313.033C276.805 313.119 276.104 312.945 275.531 312.547C275.455 312.454 275.409 312.34 275.398 312.221C275.387 312.101 275.412 311.981 275.469 311.875C275.511 311.784 275.574 311.704 275.652 311.642C275.731 311.579 275.823 311.535 275.921 311.513C276.967 311.221 279.387 312.512 279.467 312.574C279.497 312.587 279.522 312.61 279.538 312.638C279.554 312.667 279.56 312.7 279.555 312.733C279.554 312.762 279.543 312.79 279.523 312.813C279.504 312.835 279.478 312.851 279.449 312.857C278.805 312.971 278.153 313.03 277.499 313.033V313.033ZM276.329 311.778C276.232 311.764 276.133 311.764 276.036 311.778C275.976 311.789 275.919 311.814 275.869 311.851C275.82 311.888 275.78 311.935 275.752 311.99C275.664 312.185 275.752 312.282 275.752 312.335C276.107 312.75 277.756 312.759 278.944 312.591C278.128 312.166 277.242 311.89 276.329 311.778Z" fill="#1864AB"/>
<path d="M279.449 312.856H279.387C278.563 312.503 276.843 311.088 276.878 310.364C276.878 310.187 276.985 309.975 277.41 309.93C277.729 309.903 278.046 309.998 278.297 310.196C278.96 310.889 279.409 311.757 279.591 312.697C279.602 312.719 279.607 312.744 279.607 312.768C279.607 312.793 279.602 312.817 279.591 312.839C279.571 312.853 279.547 312.862 279.522 312.865C279.497 312.869 279.472 312.865 279.449 312.856V312.856ZM277.561 310.204H277.472C277.197 310.204 277.189 310.337 277.189 310.372C277.189 310.814 278.35 311.919 279.21 312.397C279.041 311.642 278.664 310.95 278.119 310.399C277.959 310.279 277.762 310.216 277.561 310.222V310.204Z" fill="#1864AB"/>
<path d="M286.594 312.706H280.078L277.747 297.661H284.262L286.594 312.706Z" fill="#F8C7BA"/>
<path d="M280.034 311.955H287.126C287.259 311.958 287.389 312.003 287.496 312.082C287.604 312.161 287.685 312.271 287.728 312.397L289.661 318.169C289.702 318.299 289.712 318.436 289.692 318.57C289.671 318.704 289.62 318.831 289.542 318.942C289.464 319.053 289.361 319.145 289.242 319.21C289.123 319.276 288.99 319.313 288.854 319.318C286.284 319.318 282.56 319.133 279.334 319.133C275.566 319.133 275.903 319.336 271.48 319.336C268.82 319.336 267.765 316.64 268.82 316.392C273.793 315.287 274.37 315.164 278.465 312.459C278.924 312.134 279.472 311.958 280.034 311.955Z" fill="#1F364D"/>
<path opacity="0.2" d="M277.747 297.669L278.953 305.422H285.468L284.262 297.669H277.747Z" fill="#1F364D"/>
<path d="M285.849 150.678L281.417 155.142L288.207 157.538C288.207 157.538 290.867 153.896 288.996 151.403L285.849 150.678Z" fill="#F8C7BA"/>
<path d="M279.928 161.383L286.709 162.373L288.225 157.538L281.435 155.142L279.928 161.383Z" fill="#F8C7BA"/>
<path d="M288.81 95.7108C289.386 96.9484 289.847 98.0003 290.308 99.1495C290.769 100.299 291.195 101.404 291.638 102.535C292.48 104.807 293.233 107.123 293.934 109.466C294.646 111.836 295.238 114.241 295.707 116.67L296.044 118.527L296.318 120.419C296.416 121.046 296.478 121.7 296.531 122.346C296.584 122.991 296.673 123.574 296.673 124.388V125.537V126.554L296.62 127.552L296.522 128.498C296.407 129.771 296.239 130.965 296.079 132.176C295.724 134.563 295.317 136.896 294.865 139.248C293.925 143.871 292.897 148.388 291.656 152.941L283.58 151.35C284.094 146.859 284.626 142.298 285.051 137.807C285.255 135.561 285.477 133.325 285.601 131.133C285.654 130.054 285.716 128.958 285.716 127.924V127.146V126.43V125.714L285.654 125.13C285.614 124.665 285.549 124.201 285.459 123.742C285.379 123.247 285.308 122.752 285.193 122.248L284.865 120.737L284.484 119.216C283.934 117.183 283.314 115.141 282.605 113.099C281.896 111.057 281.107 109.024 280.273 107.008C279.866 105.992 279.44 104.984 278.997 103.994C278.554 103.004 278.11 101.969 277.676 101.112L288.81 95.7108Z" fill="#1F364D"/>
<path d="M258.2 147.513C258.2 147.513 259.282 197.229 262.207 217.031C265.257 237.628 276.391 303.919 276.391 303.919H287.418C287.418 303.919 283.465 240.828 282.206 220.558C280.832 198.458 281.133 147.513 281.133 147.513H258.2Z" fill="#1864AB"/>
<path d="M273.74 299.535C273.687 299.535 274.875 304.105 274.875 304.105H288.296L288.198 300.03L273.74 299.535Z" fill="#1F364D"/>
<path d="M255.716 66.9181C255.75 66.3674 255.484 65.9031 255.122 65.8809C254.761 65.8587 254.44 66.2871 254.406 66.8378C254.372 67.3884 254.638 67.8528 254.999 67.8749C255.361 67.8971 255.682 67.4687 255.716 66.9181Z" fill="#1F364D"/>
<path d="M255.444 67.8735C254.725 69.5588 253.782 71.1405 252.642 72.5764C253.015 72.8461 253.442 73.0303 253.894 73.1159C254.346 73.2015 254.812 73.1863 255.257 73.0714L255.444 67.8735Z" fill="#EBB6A8"/>
<path d="M257.784 63.8248C257.715 63.825 257.648 63.8067 257.589 63.7718C257.272 63.5229 256.899 63.3544 256.502 63.2805C256.105 63.2066 255.696 63.2296 255.311 63.3475C255.271 63.3631 255.229 63.3706 255.186 63.3697C255.144 63.3688 255.102 63.3594 255.063 63.3421C255.024 63.3248 254.989 63.2999 254.96 63.269C254.931 63.238 254.909 63.2016 254.894 63.1618C254.88 63.1212 254.874 63.0782 254.877 63.0354C254.88 62.9925 254.891 62.9506 254.91 62.912C254.928 62.8734 254.955 62.8389 254.987 62.8105C255.019 62.7821 255.057 62.7603 255.098 62.7464C255.584 62.5888 256.101 62.5515 256.604 62.6377C257.108 62.724 257.582 62.9312 257.988 63.2414C258.055 63.2938 258.099 63.3702 258.11 63.4543C258.122 63.5384 258.1 63.6238 258.05 63.6923C258.019 63.7332 257.978 63.7664 257.932 63.7894C257.886 63.8124 257.835 63.8245 257.784 63.8248Z" fill="#1F364D"/>
<path d="M272.96 72.9478C271.861 77.7037 270.62 86.4111 273.847 89.5758C273.847 89.5758 272.375 94.3936 263.519 94.3936C253.768 94.3936 259.043 89.5758 259.043 89.5758C264.361 88.3117 264.406 84.3867 263.608 80.6916L272.96 72.9478Z" fill="#F8C7BA"/>
<path d="M277.277 91.8035C278.235 89.8675 279.289 87.6398 277.277 86.9503C275.079 86.1812 262.925 85.4033 258.661 86.8354C257.522 87.1249 256.545 87.8539 255.945 88.8618C255.345 89.8698 255.171 91.0742 255.461 92.2101L277.277 91.8035Z" fill="#1864AB"/>
<path d="M286.603 91.441C292.214 94.0223 295.068 113.594 295.068 113.594L283.766 117.13C281.747 111.952 280.109 106.634 278.864 101.218C277.126 93.0499 280.858 88.8067 286.603 91.441Z" fill="#1F364D"/>
<path d="M217.139 121.895L211.927 117.422L207.238 124.229C207.238 124.229 211.448 127.597 216.102 126.218L217.139 121.895Z" fill="#F8C7BA"/>
<path d="M205.057 115.256L204.339 121.983L207.238 124.229L211.927 117.422L205.057 115.256Z" fill="#F8C7BA"/>
<path d="M274.157 65.7078C273.501 72.4615 273.457 76.4395 269.911 79.9048C268.769 81.0329 267.34 81.8301 265.779 82.2111C264.217 82.592 262.581 82.5423 261.046 82.0674C259.511 81.5924 258.134 80.7101 257.063 79.5148C255.991 78.3194 255.266 76.8561 254.965 75.2815C253.724 69.2173 254.965 59.1927 261.729 56.5053C263.168 55.8862 264.746 55.6554 266.304 55.8361C267.861 56.0167 269.343 56.6025 270.602 57.5346C271.861 58.4667 272.852 59.7125 273.476 61.147C274.1 62.5815 274.335 64.1543 274.157 65.7078Z" fill="#F8C7BA"/>
<path d="M260.284 67.8735C259.69 63.206 259.787 61.438 262.287 60.4037C259.69 59.891 257.438 59.8203 256.365 58.3086C255.293 56.797 255.036 52.9339 260.248 51.1659C259.769 52.0499 261.285 53.8886 266.081 52.2267C270.877 50.5648 277.862 50.388 278.492 55.25C281.027 54.366 285.273 62.1717 280.265 67.8735C276.089 72.6471 273.306 75.9444 272.481 78.4815C272.443 78.6004 272.379 78.7097 272.295 78.8023C272.211 78.8949 272.108 78.9688 271.994 79.0189C271.879 79.069 271.755 79.0943 271.63 79.0931C271.504 79.0919 271.381 79.0642 271.267 79.0119C269.538 78.2075 266.445 78.897 265.062 79.2683C264.867 79.3186 264.661 79.3014 264.477 79.2195C264.293 79.1376 264.143 78.9958 264.051 78.8174C263.156 76.9787 260.736 71.7278 260.284 67.8735Z" fill="#1F364D"/>
<path d="M277.552 55.8424C277.552 55.8424 279.609 52.9517 283.553 55.0998C281.525 55.0056 279.496 55.2567 277.552 55.8424Z" fill="#1F364D"/>
<path d="M277.889 56.4611C277.889 56.4611 280.752 54.6931 278.518 51.3604C278.655 53.0855 278.441 54.8205 277.889 56.4611Z" fill="#1F364D"/>
<path d="M263.599 68.068C263.288 69.7393 262.457 71.2704 261.223 72.4438C259.583 73.9908 258.165 72.8947 258.121 70.9057C258.076 69.1377 258.874 66.1498 260.78 65.3542C262.686 64.5586 263.936 66.0702 263.599 68.068Z" fill="#F8C7BA"/>
<path opacity="0.3" d="M259.114 175.138C259.752 189.972 260.754 207.192 262.207 217.031C262.766 220.779 263.581 226.03 264.556 232.121C268.475 210.799 270.815 183.324 259.114 175.138Z" fill="#1F364D"/>
<path d="M254.229 313.033C253.396 313.033 252.589 312.918 252.332 312.547C252.265 312.448 252.229 312.331 252.229 312.211C252.229 312.092 252.265 311.975 252.332 311.875C252.451 311.698 252.631 311.569 252.837 311.513C253.928 311.221 256.162 312.512 256.259 312.574C256.287 312.589 256.308 312.613 256.319 312.642C256.331 312.671 256.331 312.703 256.321 312.733C256.315 312.763 256.3 312.791 256.278 312.813C256.256 312.835 256.228 312.85 256.197 312.857C255.547 312.97 254.889 313.029 254.229 313.033ZM253.245 311.778C253.145 311.764 253.044 311.764 252.944 311.778C252.88 311.79 252.82 311.815 252.766 311.852C252.713 311.888 252.668 311.935 252.633 311.99C252.518 312.185 252.554 312.282 252.589 312.335C252.882 312.75 254.522 312.759 255.745 312.591C254.973 312.159 254.124 311.883 253.245 311.778V311.778Z" fill="#1864AB"/>
<path d="M256.206 312.856H256.144C255.373 312.503 253.857 311.088 254.008 310.364C254.008 310.187 254.167 309.975 254.593 309.93C254.751 309.911 254.911 309.924 255.064 309.97C255.217 310.015 255.358 310.092 255.479 310.196C256.286 310.876 256.366 312.627 256.366 312.697C256.365 312.725 256.358 312.751 256.346 312.776C256.334 312.8 256.316 312.822 256.295 312.839C256.267 312.853 256.237 312.859 256.206 312.856ZM254.708 310.204H254.619C254.335 310.204 254.318 310.337 254.309 310.372C254.22 310.814 255.24 311.919 256.029 312.397C255.98 311.665 255.704 310.967 255.24 310.399C255.089 310.279 254.9 310.216 254.708 310.222V310.204Z" fill="#1864AB"/>
<path d="M263.369 312.706H256.862L256.738 297.661H263.253L263.369 312.706Z" fill="#F8C7BA"/>
<path d="M256.924 311.955H264.016C264.143 311.953 264.266 311.997 264.364 312.078C264.461 312.159 264.526 312.272 264.548 312.397L265.638 318.169C265.663 318.311 265.656 318.457 265.617 318.597C265.579 318.736 265.511 318.865 265.417 318.975C265.323 319.084 265.206 319.172 265.074 319.231C264.942 319.291 264.799 319.321 264.654 319.318C262.092 319.318 258.387 319.133 255.169 319.133C251.392 319.133 248.13 319.336 243.707 319.336C241.047 319.336 240.391 316.64 241.517 316.392C246.65 315.287 250.816 315.164 255.311 312.459C255.793 312.148 256.35 311.974 256.924 311.955Z" fill="#1F364D"/>
<path opacity="0.2" d="M256.747 297.669L256.8 305.422H263.315L263.262 297.669H256.747Z" fill="#1F364D"/>
<path d="M246.579 147.513C246.579 147.513 243.92 196.071 243.973 215.873C243.973 236.47 254.433 303.919 254.433 303.919H265.461C265.461 303.919 262.588 237.672 263.829 217.464C265.15 195.364 271.551 147.531 271.551 147.531L246.579 147.513Z" fill="#1864AB"/>
<path d="M252.465 299.535C252.412 299.535 252.917 304.105 252.917 304.105H266.338L266.852 300.03L252.465 299.535Z" fill="#1F364D"/>
<path d="M248.955 91.3791C248.955 91.3791 237.856 119.34 242.687 167.668H283.216C283.642 162.364 279.405 116.166 285.45 91.0432C281.616 90.3029 277.736 89.8127 273.838 89.5758C268.907 89.2927 263.964 89.2927 259.034 89.5758C255.632 89.917 252.263 90.5199 248.955 91.3791Z" fill="#1F364D"/>
<path opacity="0.2" d="M243.219 116.688C242.616 121.108 242.12 126.156 241.801 131.716C249.673 124.503 252.368 106.531 252.368 106.531L243.219 116.688Z" fill="#1F364D"/>
<path d="M253.13 104.692C251.534 108.829 249.921 112.816 248.148 116.821C246.375 120.825 244.54 124.777 242.475 128.737L241.668 130.213L241.26 130.956C241.092 131.256 241.11 131.274 240.649 132.043C239.854 133.29 238.752 134.312 237.448 135.013C236.37 135.579 235.194 135.933 233.982 136.057C232.317 136.209 230.638 136.074 229.018 135.659C227.738 135.343 226.481 134.935 225.26 134.439C223.066 133.533 220.942 132.47 218.904 131.256C217.902 130.682 216.945 130.063 215.996 129.488C215.048 128.914 214.188 128.18 213.168 127.473L217.955 120.153C221.39 122.041 224.996 123.601 228.726 124.812C229.517 125.056 230.326 125.239 231.146 125.36C231.613 125.459 232.096 125.459 232.564 125.36C232.617 125.36 232.449 125.307 232.156 125.457C231.8 125.638 231.495 125.906 231.27 126.235C231.084 126.545 231.323 126.085 231.403 125.908L231.722 125.21L232.36 123.822C234.044 120.074 235.605 116.193 237.12 112.33C238.636 108.467 240.108 104.436 241.464 100.537L253.13 104.692Z" fill="#1F364D"/>
<path d="M257.536 94.314C259.61 100.095 244.93 123.371 244.93 123.371L236.225 114.77C236.225 114.77 238.45 107.459 241.384 98.6544C244.274 90.0001 255.559 88.789 257.536 94.314Z" fill="#1F364D"/>
</g>
<defs>
<clipPath id="clip0_61_685">
<rect width="360" height="329" fill="white"/>
</clipPath>
</defs>
</svg>
