<svg width="406" height="353" viewBox="0 0 406 353" fill="none" xmlns="http://www.w3.org/2000/svg">
<g clip-path="url(#clip0_61_421)">
<path d="M434.694 271.375H0V271.593H434.694V271.375Z" fill="#F6FBFF"/>
<path d="M376.236 277.983H325.794V278.201H376.236V277.983Z" fill="#F6FBFF"/>
<path d="M387.382 282.33H378.905V282.548H387.382V282.33Z" fill="#F6FBFF"/>
<path d="M243.611 281.687H232.222V281.904H243.611V281.687Z" fill="#F6FBFF"/>
<path d="M227.223 281.687H172.374V281.904H227.223V281.687Z" fill="#F6FBFF"/>
<path d="M121.427 280.313H112.768V280.531H121.427V280.313Z" fill="#F6FBFF"/>
<path d="M293.297 276.731H278.7V276.948H293.297V276.731Z" fill="#F6FBFF"/>
<path d="M82.0093 280.209H56.4493V280.426H82.0093V280.209Z" fill="#F6FBFF"/>
<path d="M206.045 232.597H38.1748C36.8597 232.595 35.5993 232.071 34.6702 231.14C33.7411 230.209 33.2193 228.948 33.2193 227.633V-8.36421C33.2307 -9.67185 33.7576 -10.9222 34.6855 -11.8436C35.6133 -12.765 36.8672 -13.2831 38.1748 -13.2853H206.045C207.361 -13.2853 208.624 -12.7623 209.555 -11.8312C210.486 -10.9002 211.009 -9.63743 211.009 -8.32073V227.633C211.009 228.95 210.486 230.212 209.555 231.143C208.624 232.074 207.361 232.597 206.045 232.597ZM38.1748 -13.1114C36.9174 -13.1091 35.7122 -12.608 34.8239 -11.7179C33.9356 -10.8279 33.4366 -9.62175 33.4366 -8.36421V227.633C33.4366 228.89 33.9356 230.097 34.8239 230.987C35.7122 231.877 36.9174 232.378 38.1748 232.38H206.045C207.303 232.378 208.509 231.877 209.399 230.987C210.289 230.097 210.789 228.891 210.792 227.633V-8.36421C210.789 -9.62255 210.289 -10.8287 209.399 -11.7185C208.509 -12.6083 207.303 -13.1091 206.045 -13.1114H38.1748Z" fill="#F6FBFF"/>
<path d="M394.102 232.597H226.223C224.907 232.595 223.646 232.071 222.716 231.141C221.785 230.21 221.261 228.949 221.259 227.633V-8.36421C221.273 -9.67264 221.802 -10.923 222.731 -11.8441C223.66 -12.7653 224.915 -13.2831 226.223 -13.2853H394.102C395.408 -13.2808 396.66 -12.7617 397.586 -11.8405C398.512 -10.9194 399.038 -9.67035 399.049 -8.36421V227.633C399.049 228.947 398.528 230.207 397.601 231.137C396.674 232.068 395.416 232.593 394.102 232.597ZM226.223 -13.1114C224.965 -13.1091 223.759 -12.6083 222.869 -11.7185C221.98 -10.8287 221.479 -9.62255 221.477 -8.36421V227.633C221.479 228.891 221.98 230.097 222.869 230.987C223.759 231.877 224.965 232.378 226.223 232.38H394.102C395.36 232.378 396.566 231.877 397.456 230.987C398.346 230.097 398.847 228.891 398.849 227.633V-8.36421C398.847 -9.62255 398.346 -10.8287 397.456 -11.7185C396.566 -12.6083 395.36 -13.1091 394.102 -13.1114H226.223Z" fill="#F6FBFF"/>
<path d="M73.698 271.375H134.616L134.616 152.877H73.698L73.698 271.375Z" fill="#DEE8F2" fill-opacity="0.5"/>
<path d="M73.698 271.375H78.7231L78.7231 152.877H73.698L73.698 271.375Z" fill="#F6FBFF"/>
<path d="M270.18 156.259H129.921V181.856H270.18V156.259Z" fill="#DEE8F2"/>
<path d="M271.831 271.462H211.696C201.776 271.462 200.107 267.88 200.107 257.116V130.175C200.107 129.945 200.199 129.723 200.362 129.56C200.525 129.397 200.746 129.306 200.976 129.306C201.207 129.306 201.428 129.397 201.591 129.56C201.754 129.723 201.846 129.945 201.846 130.175V257.116C201.846 267.184 203.002 269.723 211.696 269.723H271.831C272.062 269.723 272.283 269.815 272.446 269.978C272.609 270.141 272.701 270.362 272.701 270.593C272.701 270.823 272.609 271.044 272.446 271.208C272.283 271.371 272.062 271.462 271.831 271.462Z" fill="#DEE8F2"/>
<path d="M263.424 152.877H73.7067V161.763H263.424V152.877Z" fill="#F6FBFF"/>
<path d="M263.424 271.375H324.342V152.877H263.424V271.375Z" fill="#DEE8F2" fill-opacity="0.5"/>
<path d="M263.424 271.375H268.45V152.877H263.424V271.375Z" fill="#F6FBFF"/>
<path d="M362.039 271.367V113.264H309.763V271.367H362.039Z" fill="#F6FBFF"/>
<path d="M359.17 163.78V117.238H312.632V163.78H359.17Z" fill="#DEE8F2"/>
<path d="M359.17 214.495V167.953H312.632V214.495H359.17Z" fill="#DEE8F2"/>
<path d="M359.17 265.211V218.669H312.632V265.211H359.17Z" fill="#DEE8F2"/>
<path d="M346.199 116.62H325.603C325.603 117.9 326.111 119.128 327.016 120.033C327.921 120.938 329.149 121.446 330.428 121.446H341.374C342.653 121.446 343.881 120.938 344.786 120.033C345.691 119.128 346.199 117.9 346.199 116.62Z" fill="#F6FBFF"/>
<path d="M346.199 167.336H325.603C325.602 167.97 325.726 168.598 325.968 169.184C326.21 169.77 326.566 170.302 327.014 170.751C327.462 171.199 327.994 171.554 328.58 171.796C329.166 172.038 329.794 172.163 330.428 172.161H341.374C342.008 172.163 342.636 172.038 343.222 171.796C343.808 171.554 344.34 171.199 344.788 170.751C345.237 170.302 345.592 169.77 345.834 169.184C346.076 168.598 346.2 167.97 346.199 167.336Z" fill="#F6FBFF"/>
<path d="M346.199 218.051H325.603C325.602 218.685 325.726 219.313 325.968 219.899C326.21 220.485 326.566 221.018 327.014 221.466C327.462 221.914 327.994 222.27 328.58 222.512C329.166 222.754 329.794 222.878 330.428 222.877H341.374C342.008 222.878 342.636 222.754 343.222 222.512C343.808 222.27 344.34 221.914 344.788 221.466C345.237 221.018 345.592 220.485 345.834 219.899C346.076 219.313 346.2 218.685 346.199 218.051Z" fill="#F6FBFF"/>
<path d="M376.236 271.367V113.264H362.039V271.367H376.236Z" fill="#DEE8F2" fill-opacity="0.5"/>
<path d="M52.3024 98.0053L113.699 98.0053L113.699 0.434723L52.3024 0.434723L52.3024 98.0053Z" fill="#DEE8F2"/>
<path d="M49.6768 98.0053L111.073 98.0053L111.073 0.434723L49.6768 0.434723L49.6768 98.0053Z" fill="#F6FBFF"/>
<path d="M106.37 92.9363V5.51233L54.3889 5.51233L54.3889 92.9363H106.37Z" fill="white"/>
<path d="M56.3624 92.9363L56.3624 5.51233H54.3802L54.3802 92.9363H56.3624Z" fill="#DEE8F2"/>
<path d="M51.6242 69.2871H109.126V62.4706L51.6242 62.4706V69.2871Z" fill="#F6FBFF"/>
<path d="M140.954 98.0053L202.35 98.0053V0.434723L140.954 0.434723V98.0053Z" fill="#DEE8F2"/>
<path d="M138.337 98.0053L199.733 98.0053V0.434723L138.337 0.434723V98.0053Z" fill="#F6FBFF"/>
<path d="M195.021 92.9363V5.51233L143.04 5.51233V92.9363H195.021Z" fill="white"/>
<path d="M145.023 92.9277V5.50366H143.04V92.9277H145.023Z" fill="#DEE8F2"/>
<path d="M140.284 69.2871H197.786V62.4706L140.284 62.4706V69.2871Z" fill="#F6FBFF"/>
<path d="M229.605 98.0053L291.001 98.0053V0.434723L229.605 0.434723V98.0053Z" fill="#DEE8F2"/>
<path d="M226.988 98.0053L288.385 98.0053V0.434723L226.988 0.434723V98.0053Z" fill="#F6FBFF"/>
<path d="M283.681 92.9363V5.51233L231.701 5.51233V92.9363H283.681Z" fill="white"/>
<path d="M233.674 92.9364V5.51233H231.692V92.9364H233.674Z" fill="#DEE8F2"/>
<path d="M228.936 69.2871H286.437V62.4706L228.936 62.4706V69.2871Z" fill="#F6FBFF"/>
<path d="M318.265 98.0053L379.662 98.0053V0.434723L318.265 0.434723V98.0053Z" fill="#DEE8F2"/>
<path d="M315.64 98.0053L377.036 98.0053V0.434723L315.64 0.434723V98.0053Z" fill="#F6FBFF"/>
<path d="M372.341 92.9277V5.50366L320.361 5.50366V92.9277H372.341Z" fill="white"/>
<path d="M322.334 92.9363V5.51233H320.352V92.9363H322.334Z" fill="#DEE8F2"/>
<path d="M317.587 69.2871H375.089V62.4706L317.587 62.4706V69.2871Z" fill="#F6FBFF"/>
<path d="M208.131 152.877H221.268L218.077 127.297H204.932L208.131 152.877Z" fill="#F6FBFF"/>
<path d="M205.228 152.877H218.364L215.173 127.297H202.028L205.228 152.877Z" fill="#DEE8F2" fill-opacity="0.5"/>
<path d="M177.033 152.877H186.536L188.362 149.982H178.859L177.033 152.877Z" fill="#F6FBFF"/>
<path d="M126.122 152.877H183.632L185.449 149.982H133.877L126.122 152.877Z" fill="#DEE8F2" fill-opacity="0.5"/>
<path d="M249.801 145.539H245.654C244.69 145.537 243.735 145.726 242.844 146.095C241.952 146.463 241.142 147.003 240.46 147.685C239.778 148.366 239.237 149.176 238.867 150.067C238.498 150.957 238.308 151.912 238.308 152.877H257.147C257.147 151.912 256.957 150.957 256.588 150.067C256.219 149.176 255.678 148.366 254.995 147.685C254.313 147.003 253.503 146.463 252.612 146.095C251.721 145.726 250.765 145.537 249.801 145.539Z" fill="#F6FBFF"/>
<path d="M203.628 140.087H216.764L215.173 127.297H202.028L203.628 140.087Z" fill="#F6FBFF"/>
<path d="M251.914 137.027H158.95C158.767 137.027 158.586 136.988 158.419 136.913C158.252 136.838 158.103 136.727 157.982 136.59C157.861 136.453 157.771 136.291 157.718 136.116C157.664 135.941 157.649 135.756 157.672 135.575L164.836 78.2599C164.874 77.9479 165.025 77.6607 165.261 77.4525C165.496 77.2443 165.8 77.1294 166.114 77.1296H259.078C259.26 77.1295 259.44 77.1681 259.606 77.2429C259.772 77.3177 259.921 77.4269 260.042 77.5633C260.162 77.6998 260.253 77.8604 260.307 78.0344C260.361 78.2085 260.378 78.392 260.356 78.5729L253.192 135.896C253.154 136.208 253.002 136.496 252.767 136.704C252.532 136.912 252.228 137.027 251.914 137.027Z" fill="#F6FBFF"/>
<path d="M250.531 137.027H157.568C157.385 137.027 157.204 136.988 157.037 136.913C156.87 136.837 156.721 136.727 156.6 136.59C156.479 136.453 156.389 136.291 156.335 136.116C156.282 135.941 156.266 135.756 156.29 135.575L163.445 78.2599C163.487 77.9494 163.639 77.6643 163.873 77.4568C164.108 77.2492 164.41 77.1331 164.723 77.1296H257.695C257.878 77.1281 258.059 77.1657 258.226 77.24C258.393 77.3143 258.542 77.4236 258.663 77.5603C258.784 77.6971 258.874 77.8583 258.928 78.033C258.981 78.2076 258.997 78.3917 258.973 78.5729L251.809 135.896C251.771 136.208 251.62 136.495 251.385 136.704C251.149 136.912 250.846 137.027 250.531 137.027Z" fill="#DEE8F2" fill-opacity="0.5"/>
<path d="M159.289 133.853L165.992 80.2075C166.005 80.1199 166.049 80.0399 166.116 79.9824C166.183 79.9248 166.269 79.8936 166.357 79.8945H255.6C255.651 79.8928 255.703 79.9023 255.75 79.9224C255.797 79.9424 255.84 79.9724 255.875 80.0104C255.909 80.0484 255.935 80.0935 255.951 80.1425C255.967 80.1915 255.971 80.2434 255.965 80.2944L249.253 133.949C249.245 134.036 249.203 134.117 249.137 134.175C249.071 134.233 248.985 134.264 248.897 134.262H159.646C159.595 134.261 159.544 134.249 159.498 134.228C159.452 134.206 159.41 134.175 159.377 134.137C159.343 134.098 159.318 134.053 159.303 134.004C159.288 133.955 159.283 133.904 159.289 133.853Z" fill="#DEE8F2"/>
<path d="M195.395 150.477H212.539C213.104 150.477 213.646 150.702 214.045 151.101C214.445 151.5 214.669 152.042 214.669 152.607V152.877H193.265V152.607C193.265 152.042 193.489 151.5 193.889 151.101C194.288 150.702 194.83 150.477 195.395 150.477Z" fill="#DEE8F2" fill-opacity="0.5"/>
<path d="M214.321 150.477H224.58C225.145 150.477 225.687 150.702 226.086 151.101C226.486 151.5 226.71 152.042 226.71 152.607V152.877H212.191V152.607C212.191 152.042 212.416 151.5 212.815 151.101C213.215 150.702 213.757 150.477 214.321 150.477Z" fill="#F6FBFF"/>
<path d="M107.126 212.122H68.16C64.5853 212.122 61.1529 210.722 58.5993 208.22C56.0458 205.718 54.5747 202.315 54.5019 198.741L53.0326 127.393C53.0061 126.07 53.2436 124.754 53.7314 123.524C54.2192 122.293 54.9475 121.173 55.8736 120.227C56.7997 119.281 57.905 118.53 59.1249 118.017C60.3449 117.503 61.6549 117.239 62.9784 117.238H87.4082C89.8532 117.237 92.213 118.136 94.0377 119.764C95.8624 121.391 97.0243 123.633 97.3019 126.063L107.126 212.122Z" fill="#DEE8F2"/>
<path d="M85.8781 204.662H124.009C125.425 204.662 126.783 205.224 127.784 206.225C128.785 207.226 129.347 208.584 129.347 210V210.165C129.347 210.682 129.142 211.177 128.777 211.543C128.412 211.908 127.917 212.113 127.4 212.113H85.8781V204.644V204.662Z" fill="#DEE8F2"/>
<path d="M136.407 272.349C136.205 272.354 136.007 272.287 135.849 272.162C135.69 272.037 135.58 271.86 135.538 271.662L123.366 212.991H102.17L89.999 271.662C89.9517 271.893 89.8148 272.095 89.6184 272.225C89.4219 272.354 89.182 272.401 88.9514 272.353C88.7208 272.306 88.5185 272.169 88.3889 271.973C88.2592 271.776 88.213 271.536 88.2602 271.306L100.579 211.948C100.62 211.748 100.729 211.57 100.888 211.443C101.047 211.315 101.245 211.248 101.449 211.252H124.053C124.256 211.248 124.455 211.315 124.614 211.443C124.772 211.57 124.882 211.748 124.922 211.948L137.25 271.306C137.273 271.418 137.274 271.533 137.252 271.645C137.23 271.757 137.187 271.864 137.124 271.959C137.061 272.054 136.98 272.136 136.885 272.2C136.79 272.264 136.684 272.309 136.572 272.332C136.518 272.345 136.463 272.351 136.407 272.349Z" fill="#DEE8F2"/>
<path d="M102.362 272.349C102.16 272.353 101.962 272.287 101.803 272.162C101.645 272.037 101.535 271.86 101.492 271.662L89.3209 212.991H68.1252L55.9538 271.662C55.9304 271.776 55.8847 271.885 55.8194 271.981C55.7541 272.078 55.6704 272.161 55.5731 272.225C55.4758 272.289 55.3669 272.333 55.2524 272.355C55.138 272.377 55.0203 272.377 54.9062 272.353C54.792 272.33 54.6836 272.284 54.587 272.219C54.4905 272.154 54.4078 272.07 54.3436 271.973C54.2794 271.875 54.2351 271.766 54.213 271.652C54.1909 271.538 54.1916 271.42 54.215 271.306L66.5429 211.948C66.5836 211.748 66.6928 211.57 66.8517 211.443C67.0105 211.315 67.2089 211.248 67.4123 211.252H90.0164C90.2198 211.248 90.4182 211.315 90.577 211.443C90.7359 211.57 90.8451 211.748 90.8858 211.948L103.205 271.306C103.228 271.418 103.228 271.533 103.207 271.645C103.185 271.757 103.141 271.864 103.078 271.959C103.015 272.054 102.934 272.136 102.84 272.2C102.745 272.264 102.639 272.309 102.527 272.332C102.473 272.346 102.417 272.351 102.362 272.349Z" fill="#DEE8F2"/>
<path d="M103.9 130.303C104.725 136.729 105.627 143.189 106.585 149.616L109.457 169.161C109.901 171.536 110.851 173.788 112.241 175.764C113.511 177.537 115.044 179.106 116.785 180.419C119.854 182.656 123.266 184.381 126.887 185.525C130.212 186.616 133.625 187.418 137.088 187.924C138.794 188.189 140.488 188.365 142.194 188.508C143.899 188.651 145.55 188.739 147.366 188.739L147.927 182.532C144.967 181.85 141.831 181.057 138.893 180.078C135.981 179.174 133.135 178.071 130.375 176.776C127.865 175.656 125.533 174.173 123.454 172.374C122.642 171.637 121.948 170.78 121.396 169.832C120.994 169.083 120.75 168.259 120.681 167.411L120.362 162.778C120.252 161.127 120.098 159.477 119.955 157.848C119.668 154.568 119.342 151.3 118.975 148.043C118.26 141.506 117.413 135.024 116.389 128.52L103.9 130.303Z" fill="#F8C7BA"/>
<path d="M111.019 120.453C111.019 120.453 120.813 145.522 111.515 192.216H67.1022C66.8051 185.393 71.0857 152.147 64.5053 120.024C69.4147 119.077 74.3808 118.452 79.3717 118.153C85.6569 117.784 91.9584 117.784 98.2436 118.153C102.556 118.584 106.827 119.354 111.019 120.453Z" fill="#1864AB"/>
<path opacity="0.2" d="M111.019 120.453C111.019 120.453 120.813 145.522 111.515 192.216H67.1022C66.8051 185.393 71.0857 152.147 64.5053 120.024C69.4147 119.077 74.3808 118.452 79.3717 118.153C85.6569 117.784 91.9584 117.784 98.2436 118.153C102.556 118.584 106.827 119.354 111.019 120.453Z" fill="black"/>
<path d="M101.16 126.132C98.3647 133.56 105.066 158.464 105.066 158.464L123.509 149.242C123.509 149.242 122.64 136.829 118.414 127.232C114.188 117.636 104.175 117.988 101.16 126.132Z" fill="#1864AB"/>
<path opacity="0.2" d="M101.16 126.132C98.3647 133.56 105.066 158.464 105.066 158.464L123.509 149.242C123.509 149.242 122.64 136.829 118.414 127.232C114.188 117.636 104.175 117.988 101.16 126.132Z" fill="black"/>
<path d="M58.464 344.525H66.7721L73.2425 325.299H64.9344L58.464 344.525Z" fill="#F8C7BA"/>
<path d="M127.393 325.299L126.26 335.214H117.952L119.096 325.299H127.393Z" fill="#EBB6A8"/>
<path d="M64.9344 325.299H73.2425L69.8972 335.214H61.6002L64.9344 325.299Z" fill="#EBB6A8"/>
<path d="M95.7567 192.216C95.7567 192.216 112.263 238.437 107.08 262.219C101.424 288.245 73.8036 333.289 73.8036 333.289H58.596C58.596 333.289 78.9425 290.369 82.1777 264.585C85.688 236.61 67.1022 213.016 67.1022 192.216H95.7567Z" fill="#1864AB"/>
<path opacity="0.7" d="M95.7567 192.216C95.7567 192.216 112.263 238.437 107.08 262.219C101.424 288.245 73.8036 333.289 73.8036 333.289H58.596C58.596 333.289 78.9425 290.369 82.1777 264.585C85.688 236.61 67.1022 213.016 67.1022 192.216H95.7567Z" fill="#1864AB"/>
<path d="M116.895 344.525H125.193L127.404 325.299H119.096L116.895 344.525Z" fill="#F8C7BA"/>
<path d="M111.515 192.216C111.515 192.216 143.877 237.083 142.975 262.395C142.04 288.73 129.374 333.289 129.374 333.289H115.311C115.311 333.289 121.066 290.27 120.45 264.409C119.768 236.214 82.3208 213.962 82.3208 192.216H111.515Z" fill="#1864AB"/>
<path opacity="0.7" d="M111.515 192.216C111.515 192.216 143.877 237.083 142.975 262.395C142.04 288.73 129.374 333.289 129.374 333.289H115.311C115.311 333.289 121.066 290.27 120.45 264.409C119.768 236.214 82.3208 213.962 82.3208 192.216H111.515Z" fill="#1864AB"/>
<path d="M67.8615 343.556H57.7377C57.5723 343.555 57.4117 343.612 57.2833 343.716C57.1549 343.821 57.0666 343.966 57.0335 344.128L55.3939 351.502C55.354 351.682 55.3554 351.868 55.3979 352.048C55.4405 352.227 55.5231 352.395 55.6395 352.538C55.756 352.68 55.9033 352.795 56.0704 352.873C56.2374 352.951 56.42 352.99 56.6043 352.987C59.9055 352.932 62.2384 352.734 66.3429 352.734C68.8628 352.734 74.0457 352.998 77.545 352.998C81.0443 352.998 81.4845 349.554 80.0539 349.246C73.6606 347.837 71.2507 345.944 69.204 344.073C68.836 343.741 68.3576 343.556 67.8615 343.556Z" fill="#1F364D"/>
<path d="M125.082 343.556H116.015C115.849 343.557 115.688 343.614 115.558 343.718C115.428 343.822 115.337 343.966 115.3 344.128L113.66 351.502C113.621 351.681 113.622 351.867 113.664 352.045C113.706 352.224 113.787 352.39 113.902 352.533C114.018 352.676 114.164 352.791 114.329 352.869C114.495 352.948 114.676 352.988 114.86 352.987C118.161 352.932 122.86 352.734 126.964 352.734C131.773 352.734 135.921 352.998 141.555 352.998C144.967 352.998 145.957 349.554 144.483 349.246C137.99 347.815 132.686 347.672 127.074 344.205C126.484 343.808 125.794 343.583 125.082 343.556Z" fill="#1F364D"/>
<path d="M143.514 181.773L152.571 182.378L148.334 192.095C146.633 192.048 144.993 191.457 143.652 190.409C142.312 189.362 141.342 187.912 140.884 186.274L143.514 181.773Z" fill="#F8C7BA"/>
<path d="M157.467 185.448L152.439 192.249L148.334 192.095L152.571 182.378L157.467 185.448Z" fill="#F8C7BA"/>
<path opacity="0.2" d="M73.5615 135.376C72.109 128.047 69.281 129.312 66.607 132.922C67.7544 142.64 68.2837 152.421 68.1916 162.206C70.0622 159.102 75.9824 147.657 73.5615 135.376Z" fill="black"/>
<path d="M81.2424 96.8916C82.4308 102.966 83.6192 114.092 79.3717 118.153C79.3717 118.153 81.0333 124.305 92.3235 124.305C104.725 124.305 98.2436 118.153 98.2436 118.153C91.4761 116.535 91.6412 111.55 92.8296 106.785L81.2424 96.8916Z" fill="#F8C7BA"/>
<path d="M85.9631 100.93L92.8297 106.785C92.5377 107.866 92.3425 108.971 92.2464 110.087C89.6605 109.712 86.1062 106.873 85.8311 104.166C85.6789 103.088 85.7237 101.992 85.9631 100.93Z" fill="#EBB6A8"/>
<path d="M95.9768 73.5722C100.301 74.5957 104.857 87.1633 100.147 90.6298C95.4376 94.0964 87.8008 71.6684 95.9768 73.5722Z" fill="#263238"/>
<path d="M79.4817 89.7164C81.8916 97.596 82.904 102.328 87.9328 105.464C95.4816 110.186 104.439 104.155 104.439 95.7141C104.439 88.1097 100.488 76.5105 91.8943 75.2009C90.004 74.9103 88.0708 75.107 86.2778 75.7725C84.4849 76.438 82.8914 77.5502 81.6484 79.0038C80.4054 80.4573 79.554 82.2042 79.1749 84.0789C78.7957 85.9535 78.9013 87.894 79.4817 89.7164Z" fill="#F8C7BA"/>
<path d="M81.9246 97.4198C86.5573 98.1462 90.2107 80.9125 78.0402 79.5809C63.2838 77.9081 74.4639 96.2533 81.9246 97.4198Z" fill="#263238"/>
<path d="M76.0485 83.6747C81.8696 83.7848 98.8929 80.2962 101.094 70.854C101.996 66.9802 95.2946 61.918 88.5381 62.6773C97.4624 66.5951 90.4528 72.8569 80.9893 72.0315C70.1723 71.0741 68.1916 83.5317 76.0485 83.6747Z" fill="#263238"/>
<path d="M73.4625 80.3842C73.4625 80.3842 67.5864 79.955 69.0609 85.1934C69.3157 84.0794 69.8553 83.0506 70.6268 82.2076C71.3984 81.3647 72.3754 80.7364 73.4625 80.3842Z" fill="#263238"/>
<path d="M75.0361 80.1972C75.0361 80.1972 69.9853 83.2455 68.9619 77.8861C69.6932 78.7575 70.6352 79.4272 71.6984 79.8318C72.7616 80.2363 73.9106 80.362 75.0361 80.1972Z" fill="#263238"/>
<path d="M77.9852 99.4008C79.4753 100.838 81.4723 101.629 83.5423 101.602C86.2823 101.547 86.8435 98.9056 85.446 96.7266C84.1695 94.7677 81.1984 92.4237 78.7665 93.5352C76.3346 94.6467 76.1916 97.607 77.9852 99.4008Z" fill="#F8C7BA"/>
<path d="M76.4996 333.619H56.6153V328.27L78.8435 327.929L76.4996 333.619Z" fill="#1864AB"/>
<path d="M132.51 333.619H112.637V328.204L134.854 327.929L132.51 333.619Z" fill="#1864AB"/>
<path d="M92.1474 89.0451C92.3015 89.6944 92.7746 90.1456 93.2478 90.0355C93.721 89.9255 93.8861 89.3202 93.732 88.6709C93.5779 88.0216 93.1048 87.5704 92.6316 87.6805C92.1584 87.7905 91.9934 88.3958 92.1474 89.0451Z" fill="#263238"/>
<path d="M99.5091 87.2733C99.6632 87.9336 100.136 88.3738 100.61 88.2748C101.083 88.1757 101.248 87.5595 101.094 86.9102C100.94 86.2609 100.466 85.8097 99.9933 85.9087C99.5201 86.0078 99.3551 86.624 99.5091 87.2733Z" fill="#263238"/>
<path d="M97.2423 88.1757C98.4997 89.9793 99.9993 91.6012 101.699 92.9959C101.33 93.4208 100.874 93.7601 100.36 93.9901C99.8473 94.2201 99.2901 94.3352 98.7278 94.3275L97.2423 88.1757Z" fill="#EBB6A8"/>
<path d="M95.7788 96.7486C96.2754 96.7466 96.7701 96.6875 97.2533 96.5725C97.305 96.5595 97.3498 96.5271 97.3784 96.4821C97.407 96.4371 97.4174 96.3828 97.4074 96.3304C97.4009 96.3051 97.3896 96.2812 97.3739 96.2603C97.3582 96.2394 97.3386 96.2218 97.3161 96.2085C97.2936 96.1952 97.2687 96.1865 97.2428 96.1828C97.2169 96.1792 97.1906 96.1807 97.1653 96.1874C96.3594 96.4005 95.5146 96.4198 94.6999 96.2439C93.8851 96.0679 93.1236 95.7016 92.4775 95.1749C92.4396 95.1384 92.3887 95.1185 92.3361 95.1195C92.2835 95.1206 92.2334 95.1425 92.1969 95.1804C92.1605 95.2184 92.1406 95.2692 92.1416 95.3219C92.1426 95.3745 92.1645 95.4245 92.2024 95.461C93.2003 96.3075 94.4704 96.7648 95.7788 96.7486Z" fill="#263238"/>
<path d="M89.2754 87.2183C89.3507 87.2145 89.4236 87.1899 89.4857 87.1471C89.5479 87.1044 89.597 87.0452 89.6275 86.9762C89.8182 86.5123 90.1177 86.1012 90.5008 85.7775C90.8838 85.4538 91.3392 85.227 91.8283 85.1163C91.8792 85.1084 91.928 85.0903 91.9718 85.0631C92.0156 85.036 92.0535 85.0003 92.0833 84.9582C92.113 84.9161 92.134 84.8685 92.145 84.8182C92.1561 84.7678 92.1569 84.7158 92.1474 84.6651C92.1312 84.5616 92.0746 84.4688 91.99 84.4069C91.9054 84.345 91.7998 84.3192 91.6963 84.335C91.0884 84.4745 90.523 84.7584 90.048 85.1625C89.573 85.5667 89.2023 86.0793 88.9672 86.657C88.9452 86.7047 88.9328 86.7562 88.9309 86.8087C88.9289 86.8611 88.9374 86.9134 88.9558 86.9626C88.9743 87.0117 89.0023 87.0567 89.0382 87.095C89.0742 87.1332 89.1174 87.1639 89.1653 87.1853C89.2004 87.201 89.2374 87.2121 89.2754 87.2183Z" fill="#263238"/>
<path d="M101.974 83.9829C102.066 83.9858 102.157 83.9544 102.227 83.8948C102.306 83.8284 102.356 83.7337 102.367 83.6309C102.377 83.5281 102.347 83.4254 102.282 83.3446C101.894 82.8462 101.391 82.4496 100.816 82.1889C100.241 81.9281 99.6113 81.8111 98.9809 81.8479C98.8776 81.8617 98.7838 81.9156 98.72 81.998C98.6561 82.0804 98.6273 82.1846 98.6398 82.2881C98.6453 82.3388 98.6607 82.388 98.6853 82.4326C98.7099 82.4773 98.7431 82.5167 98.7831 82.5484C98.823 82.5801 98.8688 82.6036 98.9179 82.6175C98.967 82.6314 99.0183 82.6354 99.0689 82.6293C99.5633 82.6129 100.055 82.714 100.502 82.9245C100.95 83.1349 101.341 83.4486 101.644 83.8398C101.682 83.8895 101.733 83.9286 101.791 83.9536C101.848 83.9786 101.911 83.9887 101.974 83.9829Z" fill="#263238"/>
<path d="M70.6235 345.009C71.2017 345.06 71.78 344.912 72.2631 344.591C72.4118 344.463 72.5267 344.301 72.5978 344.119C72.6688 343.937 72.6937 343.739 72.6702 343.545C72.671 343.432 72.6407 343.321 72.5825 343.224C72.5242 343.127 72.4404 343.047 72.3401 342.995C71.4268 342.522 68.7418 344.161 68.4337 344.36C68.4013 344.38 68.3758 344.41 68.3602 344.445C68.3445 344.481 68.3395 344.52 68.3457 344.558C68.3535 344.596 68.3722 344.63 68.3996 344.658C68.427 344.685 68.4618 344.704 68.4997 344.712C69.1941 344.891 69.9066 344.991 70.6235 345.009ZM71.8559 343.292C71.9439 343.285 72.0318 343.304 72.109 343.347C72.1503 343.367 72.1849 343.398 72.2084 343.437C72.2319 343.476 72.2433 343.522 72.2411 343.567C72.2595 343.7 72.2439 343.835 72.1958 343.96C72.1476 344.085 72.0686 344.196 71.966 344.282C71.0433 344.711 69.9904 344.767 69.0279 344.437C69.8879 343.876 70.8483 343.488 71.8559 343.292Z" fill="#1864AB"/>
<path d="M68.4997 344.723C68.528 344.734 68.5594 344.734 68.5877 344.723C69.4571 344.26 71.1077 342.445 70.9316 341.52C70.9079 341.374 70.8326 341.242 70.7195 341.147C70.6064 341.052 70.463 341.001 70.3154 341.003C70.1643 340.984 70.011 340.997 69.8652 341.041C69.7193 341.084 69.5841 341.158 69.468 341.256C68.5107 342.037 68.3676 344.437 68.3016 344.558C68.3008 344.593 68.3083 344.629 68.3235 344.661C68.3388 344.694 68.3615 344.722 68.3897 344.745C68.4277 344.749 68.4661 344.741 68.4997 344.723ZM70.1723 341.355H70.2603C70.5244 341.355 70.5355 341.509 70.5465 341.553C70.6565 342.103 69.6001 343.479 68.7418 344.128C68.8018 343.181 69.1428 342.273 69.7212 341.52C69.848 341.415 70.0074 341.356 70.1723 341.355Z" fill="#1864AB"/>
<path d="M128.582 345.009C129.294 345.073 130.008 344.895 130.607 344.503C130.74 344.384 130.843 344.235 130.906 344.069C130.969 343.902 130.991 343.722 130.97 343.545C130.964 343.438 130.931 343.333 130.876 343.241C130.82 343.149 130.743 343.072 130.651 343.017C129.638 342.456 126.304 344.117 125.919 344.348C125.884 344.368 125.857 344.397 125.839 344.432C125.821 344.468 125.815 344.507 125.82 344.547C125.824 344.587 125.841 344.625 125.869 344.655C125.897 344.685 125.934 344.705 125.974 344.712C126.832 344.893 127.705 344.993 128.582 345.009ZM130.089 343.292C130.215 343.284 130.341 343.31 130.452 343.369C130.491 343.389 130.524 343.419 130.547 343.455C130.57 343.492 130.583 343.535 130.585 343.578C130.596 343.694 130.58 343.812 130.538 343.921C130.496 344.029 130.429 344.127 130.342 344.205C129.825 344.657 128.461 344.734 126.634 344.436C127.712 343.86 128.881 343.473 130.089 343.292Z" fill="#1864AB"/>
<path d="M126.018 344.723H126.095C127.096 344.271 129.077 342.522 128.934 341.542C128.934 341.322 128.736 341.047 128.197 340.992C128 340.967 127.801 340.983 127.611 341.04C127.422 341.097 127.246 341.193 127.096 341.322C125.996 342.192 125.82 344.426 125.809 344.525C125.803 344.558 125.807 344.593 125.821 344.624C125.835 344.655 125.857 344.682 125.886 344.701C125.927 344.721 125.973 344.728 126.018 344.723ZM128.043 341.355H128.153C128.516 341.355 128.538 341.531 128.538 341.575C128.637 342.147 127.283 343.556 126.26 344.172C126.355 343.225 126.739 342.33 127.36 341.608C127.548 341.442 127.792 341.352 128.043 341.355Z" fill="#1864AB"/>
<path d="M126.524 129.389C124.623 128.057 122.478 127.114 120.211 126.614C117.945 126.114 115.602 126.068 113.317 126.477C111.032 126.886 108.851 127.743 106.899 128.998C104.946 130.253 103.262 131.882 101.941 133.791C98.0974 131.113 93.3475 130.072 88.7363 130.897C84.125 131.721 80.0301 134.344 77.3525 138.188C74.6748 142.032 73.6336 146.782 74.458 151.393C75.2825 156.005 77.905 160.1 81.7486 162.778L110.777 182.972L130.959 153.974C132.289 152.071 133.23 149.924 133.727 147.656C134.224 145.388 134.268 143.044 133.856 140.759C133.444 138.474 132.584 136.293 131.325 134.342C130.067 132.39 128.435 130.707 126.524 129.389Z" fill="#1864AB"/>
<path opacity="0.3" d="M126.524 129.389C124.623 128.057 122.478 127.114 120.211 126.614C117.945 126.114 115.602 126.068 113.317 126.477C111.032 126.886 108.851 127.743 106.899 128.998C104.946 130.253 103.262 131.882 101.941 133.791C98.0974 131.113 93.3475 130.072 88.7363 130.897C84.125 131.721 80.0301 134.344 77.3525 138.188C74.6748 142.032 73.6336 146.782 74.458 151.393C75.2825 156.005 77.905 160.1 81.7486 162.778L110.777 182.972L130.959 153.974C132.289 152.071 133.23 149.924 133.727 147.656C134.224 145.388 134.268 143.044 133.856 140.759C133.444 138.474 132.584 136.293 131.325 134.342C130.067 132.39 128.435 130.707 126.524 129.389Z" fill="white"/>
<path d="M165.005 159.246C164.183 155.51 161.913 152.253 158.693 150.19C155.472 148.126 151.565 147.425 147.828 148.241C146.939 144.578 144.653 141.409 141.458 139.411C138.263 137.412 134.413 136.743 130.732 137.547C127.05 138.351 123.829 140.563 121.758 143.711C119.686 146.859 118.928 150.693 119.646 154.392L125.798 182.576L153.979 176.424C155.831 176.021 157.586 175.257 159.143 174.175C160.7 173.094 162.028 171.716 163.052 170.12C164.076 168.525 164.776 166.743 165.111 164.877C165.446 163.011 165.41 161.098 165.005 159.246Z" fill="#1864AB"/>
<path opacity="0.5" d="M165.005 159.246C164.183 155.51 161.913 152.253 158.693 150.19C155.472 148.126 151.565 147.425 147.828 148.241C146.939 144.578 144.653 141.409 141.458 139.411C138.263 137.412 134.413 136.743 130.732 137.547C127.05 138.351 123.829 140.563 121.758 143.711C119.686 146.859 118.928 150.693 119.646 154.392L125.798 182.576L153.979 176.424C155.831 176.021 157.586 175.257 159.143 174.175C160.7 173.094 162.028 171.716 163.052 170.12C164.076 168.525 164.776 166.743 165.111 164.877C165.446 163.011 165.41 161.098 165.005 159.246Z" fill="white"/>
<path d="M147.63 169.469C144.048 164.123 138.491 160.417 132.179 159.167C125.867 157.916 119.317 159.223 113.968 162.8C112.223 160.088 109.954 157.751 107.295 155.926C104.636 154.1 101.64 152.823 98.4823 152.168C95.3243 151.514 92.0675 151.495 88.9022 152.114C85.7369 152.732 82.7265 153.975 80.047 155.77C77.3675 157.565 75.0725 159.876 73.2961 162.569C71.5196 165.261 70.2974 168.28 69.7008 171.449C69.1042 174.619 69.1451 177.876 69.8212 181.03C70.4973 184.183 71.7951 187.171 73.6386 189.817L100.643 230.139L140.972 203.122C143.624 201.354 145.9 199.079 147.671 196.429C149.441 193.779 150.671 190.805 151.289 187.678C151.908 184.552 151.903 181.334 151.275 178.209C150.647 175.084 149.408 172.114 147.63 169.469Z" fill="#1864AB"/>
<path opacity="0.7" d="M147.63 169.469C144.048 164.123 138.491 160.417 132.179 159.167C125.867 157.916 119.317 159.223 113.968 162.8C112.223 160.088 109.954 157.751 107.295 155.926C104.636 154.1 101.64 152.823 98.4823 152.168C95.3243 151.514 92.0675 151.495 88.9022 152.114C85.7369 152.732 82.7265 153.975 80.047 155.77C77.3675 157.565 75.0725 159.876 73.2961 162.569C71.5196 165.261 70.2974 168.28 69.7008 171.449C69.1042 174.619 69.1451 177.876 69.8212 181.03C70.4973 184.183 71.7951 187.171 73.6386 189.817L100.643 230.139L140.972 203.122C143.624 201.354 145.9 199.079 147.671 196.429C149.441 193.779 150.671 190.805 151.289 187.678C151.908 184.552 151.903 181.334 151.275 178.209C150.647 175.084 149.408 172.114 147.63 169.469Z" fill="white"/>
<path d="M61.3471 126.484C60.6208 128.025 60.0266 129.389 59.4544 130.886C58.8822 132.383 58.354 133.769 57.7818 135.288C56.6814 138.204 55.7681 141.164 54.9427 144.191C54.0871 147.231 53.3856 150.313 52.841 153.424L52.4448 155.79L52.1587 158.2C52.0487 159.003 52.0047 159.829 51.9496 160.643L51.8616 161.876V162.184V162.69C51.8616 163.086 51.8616 163.427 51.8616 163.791C52.0778 165.955 52.7052 168.058 53.7103 169.986C54.4861 171.539 55.3685 173.035 56.3513 174.465C58.1669 177.083 60.1558 179.575 62.3045 181.927C66.4468 186.478 70.9352 190.702 75.7294 194.56L80.131 190.158C76.5327 185.569 72.9563 180.826 69.7102 176.116C68.1209 173.824 66.6517 171.451 65.3085 169.007C64.7026 167.907 64.1732 166.768 63.724 165.595C63.398 164.847 63.2115 164.045 63.1737 163.229C63.1737 163.229 63.1737 163.174 63.1737 163.229C63.1737 163.284 63.1737 163.295 63.1737 163.229V162.976L63.3278 161.986C63.4269 161.314 63.5149 160.665 63.6689 159.983L64.0651 157.98L64.5383 155.955C65.1985 153.259 65.9688 150.552 66.8381 147.855C67.7074 145.159 68.6538 142.463 69.6551 139.778C70.1393 138.435 70.6565 137.104 71.1847 135.772L72.7583 131.898L61.3471 126.484Z" fill="#F8C7BA"/>
<path d="M62.7776 120.574C55.3719 123.425 50.0569 150.519 50.0569 150.519L67.6634 157.463C67.6634 157.463 73.5725 143.85 75.5533 133.78C77.6771 123.182 71.1627 117.339 62.7776 120.574Z" fill="#1864AB"/>
<path opacity="0.2" d="M62.7776 120.574C55.3719 123.425 50.0569 150.519 50.0569 150.519L67.6634 157.463C67.6634 157.463 73.5725 143.85 75.5533 133.78C77.6771 123.182 71.1627 117.339 62.7776 120.574Z" fill="black"/>
<path d="M78.2053 188.926L86.3482 191.127L79.6028 199.304C79.6028 199.304 73.0774 195.925 74.4859 192.26L78.2053 188.926Z" fill="#F8C7BA"/>
<path d="M92.2464 197.895L86.3482 204.3L79.6028 199.271L86.3482 191.094L92.2464 197.895Z" fill="#F8C7BA"/>
<path d="M285.516 85.8434C285.516 85.8434 289.819 87.3511 281.203 140.296H244.559C245.175 125.384 245.197 116.184 238.067 85.5793C243.197 84.5189 248.397 83.8348 253.627 83.5323C259.165 83.1357 264.726 83.1357 270.265 83.5323C277.417 84.1816 285.516 85.8434 285.516 85.8434Z" fill="#1864AB"/>
<path opacity="0.6" d="M285.516 85.8434C285.516 85.8434 289.819 87.3511 281.203 140.296H244.559C245.175 125.384 245.197 116.184 238.067 85.5793C243.197 84.5189 248.397 83.8348 253.627 83.5323C259.165 83.1357 264.726 83.1357 270.265 83.5323C277.417 84.1816 285.516 85.8434 285.516 85.8434Z" fill="white"/>
<path d="M313.345 116.008C311.398 117.846 309.362 119.695 307.326 121.455C305.291 123.216 303.211 124.911 301.12 126.408C300.11 127.138 299.059 127.811 297.973 128.421C297.19 128.885 296.355 129.254 295.486 129.522L295.343 129.148L294.661 127.332C292.947 122.343 291.605 117.233 290.644 112.046C290.116 109.427 289.753 106.775 289.357 104.134C288.961 101.492 288.674 98.7632 288.443 96.254L279.233 96.8373C279.409 99.8416 279.761 102.582 280.146 105.443C280.531 108.304 281.071 111.067 281.676 113.873C282.855 119.519 284.55 125.044 286.738 130.38L287.651 132.405L287.871 132.9L287.992 133.154C288.037 133.266 288.089 133.377 288.146 133.484C288.462 134.122 288.857 134.717 289.324 135.256C289.88 135.891 290.548 136.421 291.293 136.818C292.029 137.199 292.826 137.449 293.648 137.556C294.898 137.69 296.163 137.555 297.357 137.159C299.028 136.592 300.605 135.776 302.033 134.738C303.275 133.857 304.462 132.902 305.588 131.877C309.784 127.962 313.554 123.613 316.834 118.902L313.345 116.008Z" fill="#F8C7BA"/>
<path d="M285.516 85.8434C289.236 86.7898 291.833 102.087 291.833 102.087L281.588 109.053C281.588 109.053 271.761 93.6459 274.622 89.53C277.604 85.2711 280.091 84.4568 285.516 85.8434Z" fill="#1864AB"/>
<path opacity="0.6" d="M285.516 85.8434C289.236 86.7898 291.833 102.087 291.833 102.087L281.588 109.053C281.588 109.053 271.761 93.6459 274.622 89.53C277.604 85.2711 280.091 84.4568 285.516 85.8434Z" fill="white"/>
<path d="M265.401 343.414H274.424L275.029 322.515H266.006L265.401 343.414Z" fill="#F8C7BA"/>
<path d="M274.732 342.368H264.598C264.422 342.364 264.251 342.424 264.117 342.538C263.983 342.652 263.896 342.811 263.871 342.985L262.716 350.996C262.696 351.199 262.719 351.404 262.783 351.598C262.846 351.791 262.95 351.97 263.087 352.121C263.224 352.272 263.39 352.393 263.577 352.476C263.763 352.559 263.965 352.602 264.168 352.603C267.701 352.603 269.406 352.339 273.863 352.339C276.603 352.339 282.27 352.625 286.066 352.625C289.863 352.625 290.05 348.872 288.476 348.542C281.401 347.012 278.573 344.921 276.24 342.919C275.818 342.563 275.284 342.368 274.732 342.368Z" fill="#1F364D"/>
<path d="M275.018 322.515L274.71 333.289H265.687L265.995 322.515H275.018Z" fill="#EBB6A8"/>
<path d="M201.522 287.454L208.4 293.297L200.279 300.539L193.401 294.695L201.522 287.454Z" fill="#EBB6A8"/>
<path d="M278.122 343.942C277.168 343.92 276.217 343.813 275.282 343.623C275.238 343.613 275.197 343.589 275.166 343.556C275.135 343.523 275.114 343.481 275.106 343.436C275.101 343.392 275.108 343.348 275.128 343.309C275.147 343.27 275.178 343.237 275.216 343.216C275.624 343.007 279.222 341.169 280.333 341.774C280.435 341.833 280.521 341.916 280.585 342.016C280.648 342.116 280.686 342.229 280.696 342.346C280.72 342.537 280.697 342.73 280.63 342.91C280.563 343.09 280.454 343.252 280.311 343.381C279.666 343.811 278.894 344.009 278.122 343.942ZM275.987 343.315C277.989 343.645 279.475 343.557 280.025 343.073C280.118 342.985 280.188 342.876 280.23 342.755C280.272 342.635 280.285 342.506 280.267 342.379C280.266 342.332 280.251 342.285 280.226 342.245C280.201 342.204 280.166 342.171 280.124 342.148C279.53 341.851 277.461 342.599 275.987 343.315Z" fill="#1864AB"/>
<path d="M275.315 343.623C275.276 343.636 275.234 343.636 275.194 343.623C275.166 343.601 275.144 343.572 275.128 343.54C275.113 343.507 275.106 343.472 275.106 343.436C275.106 343.337 275.327 340.905 276.46 339.958C276.621 339.82 276.809 339.717 277.011 339.655C277.214 339.592 277.427 339.572 277.637 339.595C278.232 339.595 278.408 339.947 278.441 340.189C278.606 341.213 276.482 343.161 275.404 343.645L275.315 343.623ZM277.516 339.969C277.245 339.967 276.982 340.065 276.779 340.244C276.115 341.031 275.712 342.003 275.624 343.029C276.724 342.357 278.166 340.828 278.067 340.222C278.067 340.222 278.067 340.013 277.637 339.969H277.516Z" fill="#1864AB"/>
<path d="M281.203 140.296C281.203 140.296 288.333 209.792 287.728 237.304C287.112 265.917 276.625 331.198 276.625 331.198H264.433C264.433 331.198 266.358 267.59 265.28 239.483C264.102 208.846 254.375 140.285 254.375 140.285L281.203 140.296Z" fill="#1864AB"/>
<path d="M313.246 115.436L318.121 107.732L320.883 116.481C320.883 116.481 316.889 120.674 313.268 119.673L313.246 115.436Z" fill="#F8C7BA"/>
<path d="M185.787 301.496L192.664 307.34L208.4 293.297L201.522 287.454L185.787 301.496Z" fill="#F8C7BA"/>
<path d="M194.546 306.635L187.877 299.009C187.767 298.873 187.61 298.783 187.437 298.757C187.264 298.73 187.088 298.769 186.942 298.866L180.142 303.268C179.975 303.385 179.835 303.537 179.731 303.712C179.627 303.887 179.561 304.082 179.537 304.284C179.513 304.487 179.532 304.692 179.592 304.886C179.653 305.081 179.754 305.261 179.888 305.414C182.254 308.033 183.531 309.177 186.491 312.534C188.296 314.603 190.716 317.805 193.203 320.656C195.69 323.506 198.705 321.195 197.869 319.786C194.359 313.458 195.206 311.235 195.14 308.132C195.126 307.578 194.915 307.048 194.546 306.635Z" fill="#1F364D"/>
<path d="M245.484 58.221C237.781 66.7938 244.922 86.0745 258.017 78.415C271.112 70.7556 259.602 63.4263 259.602 63.4263L245.484 58.221Z" fill="#263238"/>
<path d="M246.122 77.3366C246.085 77.3361 246.048 77.328 246.014 77.3129C245.98 77.2977 245.949 77.2759 245.924 77.2485C242.446 73.793 240.73 70.1613 240.818 66.4637C240.988 63.0916 242.431 59.9096 244.856 57.5607C244.882 57.5341 244.913 57.5129 244.947 57.4984C244.981 57.484 245.017 57.4765 245.054 57.4765C245.091 57.4765 245.128 57.484 245.162 57.4984C245.196 57.5129 245.227 57.5341 245.252 57.5607C245.279 57.5864 245.3 57.6171 245.315 57.6512C245.329 57.6852 245.337 57.7218 245.337 57.7588C245.337 57.7958 245.329 57.8324 245.315 57.8664C245.3 57.9005 245.279 57.9312 245.252 57.9569C242.958 60.2168 241.586 63.2486 241.401 66.4637C241.313 69.9963 242.975 73.4848 246.331 76.8303C246.357 76.856 246.379 76.8868 246.393 76.9208C246.408 76.9548 246.415 76.9914 246.415 77.0284C246.415 77.0654 246.408 77.102 246.393 77.1361C246.379 77.1701 246.357 77.2008 246.331 77.2265C246.306 77.2592 246.275 77.2861 246.239 77.3051C246.203 77.3242 246.163 77.3349 246.122 77.3366Z" fill="#263238"/>
<path d="M263.299 41.5156C262.397 44.4539 269.153 49.7362 267.481 57.1756C266.589 61.1484 268.273 64.879 270.155 65.9795C272.036 67.08 279.189 67.5422 280.652 64.1417C278.228 60.503 276.787 56.2983 276.471 51.9372C275.844 43.8486 265.797 33.3829 263.299 41.5156Z" fill="#263238"/>
<path d="M264.267 38.6212C261.12 33.1188 235.36 38.181 244.46 56.5042C253.561 74.8274 264.267 38.6212 264.267 38.6212Z" fill="#263238"/>
<path d="M255.321 64.791C256.367 70.1504 257.423 79.9557 253.671 83.4993C253.671 83.4993 255.134 88.9248 265.082 88.9248C276.02 88.9248 270.309 83.4993 270.309 83.4993C264.344 82.0687 264.499 77.6447 265.533 73.4848L255.321 64.791Z" fill="#F8C7BA"/>
<path d="M259.437 68.3455L265.489 73.5068C265.227 74.4758 265.054 75.4667 264.972 76.4672C262.694 76.137 259.558 73.6279 259.316 71.2398C259.185 70.2755 259.226 69.2955 259.437 68.3455Z" fill="#EBB6A8"/>
<path d="M249.632 54.9746C251.734 63.6795 252.438 67.4101 257.676 71.1408C265.566 76.7423 275.8 72.2413 276.383 63.1072C276.878 54.8645 273.357 42.0108 264.124 39.9969C262.083 39.5369 259.957 39.6098 257.952 40.2086C255.946 40.8074 254.128 41.9119 252.673 43.4161C251.218 44.9202 250.173 46.7734 249.641 48.7976C249.108 50.8217 249.105 52.9489 249.632 54.9746Z" fill="#F8C7BA"/>
<path d="M263.376 331.638H277.681L278.738 327.071L262.705 326.521L263.376 331.638Z" fill="#1864AB"/>
<path opacity="0.2" d="M265.401 157.585C274.402 175.699 267.206 208.724 264.025 221.006C262.397 202.551 259.624 180.002 257.5 163.428C258.864 154.052 261.252 149.265 265.401 157.585Z" fill="black"/>
<path d="M263.409 55.0626C263.541 55.7779 264.025 56.2951 264.51 56.1631C264.994 56.031 265.258 55.4258 265.137 54.7104C265.016 53.9951 264.521 53.4779 264.036 53.6099C263.552 53.742 263.288 54.3473 263.409 55.0626Z" fill="#263238"/>
<path d="M271.519 53.632C271.64 54.3473 272.124 54.8645 272.62 54.7325C273.115 54.6004 273.368 54.0061 273.247 53.2908C273.126 52.5755 272.631 52.0583 272.146 52.1353C271.662 52.2123 271.387 52.9166 271.519 53.632Z" fill="#263238"/>
<path d="M271.937 52.2563L273.566 51.464C273.566 51.464 272.928 52.9607 271.937 52.2563Z" fill="#263238"/>
<path d="M269.626 55.2386C270.554 56.7626 271.687 58.1513 272.994 59.3655C272.673 59.6907 272.285 59.9426 271.858 60.1041C271.431 60.2655 270.973 60.3327 270.518 60.3009L269.626 55.2386Z" fill="#EBB6A8"/>
<path d="M267.25 63.6684C265.693 63.6947 264.188 63.11 263.057 62.0397C263.017 61.9986 262.994 61.9433 262.994 61.8856C262.994 61.828 263.017 61.7727 263.057 61.7316C263.076 61.7119 263.1 61.6964 263.125 61.6857C263.151 61.6751 263.178 61.6696 263.206 61.6696C263.233 61.6696 263.261 61.6751 263.286 61.6857C263.312 61.6964 263.335 61.7119 263.354 61.7316C264.023 62.3436 264.828 62.7892 265.701 63.032C266.575 63.2749 267.494 63.3082 268.383 63.1292C268.438 63.1226 268.494 63.1371 268.539 63.1697C268.583 63.2024 268.614 63.2508 268.625 63.3053C268.635 63.3621 268.622 63.4205 268.589 63.4678C268.556 63.5152 268.506 63.5477 268.449 63.5584C268.052 63.6251 267.652 63.6619 267.25 63.6684Z" fill="#263238"/>
<path d="M266.578 40.8882C266.325 43.9476 258.083 46.3907 256.884 53.8851C256.246 57.8909 253.274 60.7851 251.14 61.0713C248.204 61.0177 245.389 59.8991 243.217 57.9239C242.988 57.6689 242.817 57.368 242.714 57.0414C242.612 56.7147 242.58 56.3699 242.622 56.03C242.663 55.6902 242.777 55.3632 242.956 55.071C243.134 54.7789 243.373 54.5284 243.657 54.3363C246.672 52.2233 249.863 49.6482 250.457 45.6644C251.184 40.9873 267.283 32.4034 266.578 40.8882Z" fill="#263238"/>
<path d="M249.258 62.4689C249.932 64.0616 251.205 65.326 252.801 65.9905C254.936 66.8489 256.246 65.0111 255.871 62.8651C255.519 60.9392 254.001 58.177 251.767 58.232C251.278 58.2529 250.803 58.3954 250.383 58.6465C249.964 58.8977 249.613 59.2496 249.364 59.6704C249.115 60.0912 248.975 60.5675 248.956 61.0562C248.938 61.5449 249.041 62.0305 249.258 62.4689Z" fill="#F8C7BA"/>
<path d="M260.438 52.8946C260.372 52.905 260.306 52.905 260.24 52.8946C260.141 52.8388 260.067 52.7477 260.032 52.6396C259.998 52.5315 260.005 52.4143 260.053 52.3114C260.349 51.6996 260.787 51.1676 261.331 50.7598C261.875 50.3521 262.508 50.0803 263.178 49.9673C263.292 49.9557 263.406 49.9897 263.494 50.0619C263.583 50.1341 263.64 50.2387 263.651 50.3525C263.663 50.4663 263.629 50.5801 263.557 50.6689C263.484 50.7576 263.38 50.8141 263.266 50.8257C262.736 50.9205 262.237 51.1408 261.81 51.4683C261.383 51.7957 261.041 52.2206 260.812 52.7076C260.772 52.7689 260.716 52.8184 260.65 52.8513C260.585 52.8841 260.511 52.8991 260.438 52.8946Z" fill="#263238"/>
<path d="M274.457 49.252C274.4 49.2524 274.342 49.2409 274.289 49.2182C274.236 49.1954 274.189 49.162 274.149 49.1199C273.788 48.7205 273.338 48.4124 272.835 48.2211C272.331 48.0298 271.79 47.9607 271.255 48.0194C271.151 48.0242 271.05 47.9913 270.968 47.9267C270.887 47.8622 270.832 47.7704 270.813 47.6684C270.794 47.5664 270.813 47.461 270.866 47.3718C270.919 47.2826 271.002 47.2155 271.101 47.183C271.776 47.0952 272.462 47.1725 273.1 47.4083C273.738 47.6441 274.31 48.0313 274.765 48.5366C274.845 48.6171 274.89 48.7259 274.89 48.8393C274.89 48.9527 274.845 49.0615 274.765 49.1419C274.68 49.2159 274.57 49.2551 274.457 49.252Z" fill="#263238"/>
<path d="M249.819 120.96C245.418 123.161 240.884 125.538 236.471 127.332C235.635 127.684 234.799 127.981 233.995 128.245C234.083 127.728 234.16 127.211 234.248 126.694C234.667 124.361 235.173 122.017 235.811 119.673C236.449 117.329 237.098 114.962 237.825 112.618C239.321 107.963 240.972 103.209 242.7 98.7082L234.16 95.2196C232.187 100.042 230.479 104.968 229.044 109.977C227.543 115.019 226.44 120.17 225.742 125.384C225.61 126.738 225.445 128.08 225.412 129.489L225.357 130.523C225.321 131.221 225.376 131.92 225.522 132.603C225.666 133.181 225.896 133.734 226.204 134.243C226.565 134.824 227.031 135.332 227.58 135.74C228.416 136.359 229.405 136.739 230.441 136.84C231.059 136.915 231.683 136.915 232.301 136.84C232.772 136.767 233.238 136.668 233.698 136.543C234.449 136.333 235.184 136.072 235.899 135.762C237.192 135.218 238.449 134.593 239.662 133.891C244.175 131.239 248.437 128.182 252.394 124.757L249.819 120.96Z" fill="#F8C7BA"/>
<path d="M197 311.037H196.868C195.767 310.916 194.667 309.111 194.062 308.055C194.038 308.019 194.025 307.977 194.025 307.934C194.025 307.891 194.038 307.849 194.062 307.813C194.088 307.782 194.123 307.759 194.162 307.747C194.201 307.735 194.243 307.735 194.282 307.747C194.645 307.846 197.77 308.748 198.111 309.849C198.147 309.973 198.15 310.104 198.119 310.23C198.088 310.355 198.025 310.471 197.935 310.564C197.822 310.705 197.68 310.82 197.518 310.901C197.357 310.983 197.18 311.029 197 311.037ZM194.689 308.297C195.481 309.684 196.307 310.498 196.89 310.608C197.03 310.617 197.17 310.59 197.296 310.53C197.423 310.471 197.533 310.38 197.616 310.267C197.656 310.227 197.684 310.178 197.697 310.124C197.711 310.069 197.709 310.012 197.693 309.959C197.55 309.331 195.899 308.649 194.7 308.253L194.689 308.297Z" fill="#1864AB"/>
<path d="M195.69 308.286C195.181 308.3 194.673 308.237 194.183 308.099C194.149 308.085 194.119 308.062 194.096 308.033C194.073 308.004 194.057 307.97 194.051 307.934C194.043 307.898 194.046 307.861 194.057 307.826C194.069 307.791 194.089 307.76 194.117 307.736C194.205 307.659 196.185 305.975 197.418 306.129C197.582 306.145 197.741 306.198 197.881 306.284C198.022 306.37 198.142 306.486 198.232 306.624C198.337 306.758 198.393 306.923 198.393 307.092C198.393 307.262 198.337 307.426 198.232 307.56C197.502 308.105 196.598 308.363 195.69 308.286ZM194.722 307.791C195.822 307.989 197.572 307.791 197.957 307.296C198.023 307.219 198.078 307.087 197.957 306.866C197.9 306.778 197.824 306.703 197.735 306.648C197.645 306.593 197.545 306.558 197.44 306.547C196.428 306.675 195.48 307.109 194.722 307.791Z" fill="#1864AB"/>
<path d="M263.838 53.698L265.467 52.8946C265.467 52.8946 264.818 54.3913 263.838 53.698Z" fill="#263238"/>
<path d="M271.53 140.296C271.53 140.296 263.233 212.554 256.961 235.753C249.522 263.265 203.294 300.352 203.294 300.352L193.919 292.395C193.919 292.395 227.426 252.128 233.115 237.623C245.219 206.656 234.865 160.501 244.559 140.296H271.53Z" fill="#1864AB"/>
<path opacity="0.5" d="M271.53 140.296C271.53 140.296 263.233 212.554 256.961 235.753C249.522 263.265 203.294 300.352 203.294 300.352L193.919 292.395C193.919 292.395 227.426 252.128 233.115 237.623C245.219 206.656 234.865 160.501 244.559 140.296H271.53Z" fill="#1864AB"/>
<path d="M192.422 291.966L204.053 301.848L208.4 299.24L195.239 287.002L192.422 291.966Z" fill="#1864AB"/>
<path d="M244.02 138.15L243.074 141.451C242.953 141.704 243.25 141.957 243.679 141.957H281.39C281.72 141.957 281.995 141.803 282.017 141.594L282.347 138.293C282.347 138.062 282.083 137.875 281.72 137.875H244.614C244.5 137.864 244.384 137.883 244.28 137.932C244.175 137.98 244.086 138.055 244.02 138.15Z" fill="#1864AB"/>
<path opacity="0.2" d="M244.02 138.15L243.074 141.451C242.953 141.704 243.25 141.957 243.679 141.957H281.39C281.72 141.957 281.995 141.803 282.017 141.594L282.347 138.293C282.347 138.062 282.083 137.875 281.72 137.875H244.614C244.5 137.864 244.384 137.883 244.28 137.932C244.175 137.98 244.086 138.055 244.02 138.15Z" fill="white"/>
<path d="M248.994 142.299H248.003C247.805 142.299 247.651 142.189 247.673 142.068L248.136 137.809C248.136 137.677 248.323 137.578 248.521 137.578H249.511C249.709 137.578 249.863 137.677 249.852 137.809L249.379 142.068C249.368 142.189 249.192 142.299 248.994 142.299Z" fill="#1864AB"/>
<path d="M278.595 142.299H277.604C277.406 142.299 277.252 142.189 277.263 142.068L277.736 137.809C277.736 137.677 277.923 137.578 278.122 137.578H279.112C279.31 137.578 279.453 137.677 279.442 137.809L278.98 142.068C278.969 142.189 278.793 142.299 278.595 142.299Z" fill="#1864AB"/>
<path d="M263.794 142.299H262.804C262.606 142.299 262.452 142.189 262.463 142.068L262.936 137.809C262.936 137.677 263.123 137.578 263.321 137.578H264.311C264.51 137.578 264.664 137.677 264.653 137.809L264.179 142.068C264.124 142.189 263.992 142.299 263.794 142.299Z" fill="#1864AB"/>
<path opacity="0.5" d="M248.994 142.299H248.003C247.805 142.299 247.651 142.189 247.673 142.068L248.136 137.809C248.136 137.677 248.323 137.578 248.521 137.578H249.511C249.709 137.578 249.863 137.677 249.852 137.809L249.379 142.068C249.368 142.189 249.192 142.299 248.994 142.299Z" fill="black"/>
<path opacity="0.5" d="M278.595 142.299H277.604C277.406 142.299 277.252 142.189 277.263 142.068L277.736 137.809C277.736 137.677 277.923 137.578 278.122 137.578H279.112C279.31 137.578 279.453 137.677 279.442 137.809L278.98 142.068C278.969 142.189 278.793 142.299 278.595 142.299Z" fill="black"/>
<path opacity="0.5" d="M263.794 142.299H262.804C262.606 142.299 262.452 142.189 262.463 142.068L262.936 137.809C262.936 137.677 263.123 137.578 263.321 137.578H264.311C264.51 137.578 264.664 137.677 264.653 137.809L264.179 142.068C264.124 142.189 263.992 142.299 263.794 142.299Z" fill="black"/>
<path d="M315.678 92.0391C311.749 89.0901 306.968 87.4987 302.055 87.5051V86.4046C307.215 86.3846 312.239 88.0543 316.361 91.1587L315.678 92.0391Z" fill="#1864AB"/>
<path d="M321.268 98.0699C320.271 96.5029 319.089 95.0619 317.747 93.778L318.506 92.9856C319.915 94.3276 321.157 95.8353 322.204 97.4756L321.268 98.0699Z" fill="#1864AB"/>
<path opacity="0.2" d="M315.678 92.0391C311.749 89.0901 306.968 87.4987 302.055 87.5051V86.4046C307.215 86.3846 312.239 88.0543 316.361 91.1587L315.678 92.0391Z" fill="black"/>
<path opacity="0.2" d="M321.268 98.0699C320.271 96.5029 319.089 95.0619 317.747 93.778L318.506 92.9856C319.915 94.3276 321.157 95.8353 322.204 97.4756L321.268 98.0699Z" fill="black"/>
<path d="M258.028 102.285C261.207 98.0395 265.942 95.2306 271.192 94.4753C276.441 93.72 281.775 95.0802 286.022 98.257C289.241 94.1176 293.955 91.4072 299.151 90.7088C304.347 90.0104 309.61 91.3799 313.807 94.5227C318.003 97.6654 320.799 102.33 321.591 107.513C322.384 112.696 321.11 117.983 318.044 122.237L294.066 154.261L262.045 130.292C259.942 128.717 258.17 126.743 256.831 124.483C255.491 122.223 254.609 119.721 254.236 117.12C253.863 114.52 254.006 111.871 254.657 109.325C255.307 106.78 256.453 104.388 258.028 102.285Z" fill="#1864AB"/>
<path opacity="0.2" d="M258.028 102.285C261.207 98.0395 265.942 95.2306 271.192 94.4753C276.441 93.72 281.775 95.0802 286.022 98.257C289.241 94.1176 293.955 91.4072 299.151 90.7088C304.347 90.0104 309.61 91.3799 313.807 94.5227C318.003 97.6654 320.799 102.33 321.591 107.513C322.384 112.696 321.11 117.983 318.044 122.237L294.066 154.261L262.045 130.292C259.942 128.717 258.17 126.743 256.831 124.483C255.491 122.223 254.609 119.721 254.236 117.12C253.863 114.52 254.006 111.871 254.657 109.325C255.307 106.78 256.453 104.388 258.028 102.285Z" fill="black"/>
<path d="M257.885 108.436L261.582 115.182L256.422 120.454L251.591 112.662L257.885 108.436Z" fill="#F8C7BA"/>
<path d="M248.565 121.929L251.591 112.662L256.422 120.454C256.422 120.454 253.583 125.505 249.819 125.428L248.565 121.929Z" fill="#F8C7BA"/>
<path d="M238.067 85.5792C234.403 86.6797 229.99 99.3354 229.99 99.3354L244.229 109.515C244.229 109.515 249.423 98.9612 247.882 94.2181C246.276 89.2769 242.259 84.3357 238.067 85.5792Z" fill="#1864AB"/>
<path opacity="0.6" d="M238.067 85.5792C234.403 86.6797 229.99 99.3354 229.99 99.3354L244.229 109.515C244.229 109.515 249.423 98.9612 247.882 94.2181C246.276 89.2769 242.259 84.3357 238.067 85.5792Z" fill="white"/>
<path d="M325.263 105.19L327.189 112.64L320.883 116.492L318.121 107.743L325.263 105.19Z" fill="#F8C7BA"/>
</g>
<defs>
<clipPath id="clip0_61_421">
<rect width="406" height="353" fill="white"/>
</clipPath>
</defs>
</svg>
