<svg width="20" height="20" viewBox="0 0 20 20" fill="none" xmlns="http://www.w3.org/2000/svg">
<g clip-path="url(#clip0_3072_1516)">
<path d="M9.99999 1.66663C5.39999 1.66663 1.66666 5.39996 1.66666 9.99996C1.66666 14.6 5.39999 18.3333 9.99999 18.3333H14.1667V16.6666H9.99999C6.38332 16.6666 3.33332 13.6166 3.33332 9.99996C3.33332 6.38329 6.38332 3.33329 9.99999 3.33329C13.6167 3.33329 16.6667 6.38329 16.6667 9.99996V11.1916C16.6667 11.85 16.075 12.5 15.4167 12.5C14.7583 12.5 14.1667 11.85 14.1667 11.1916V9.99996C14.1667 7.69996 12.3 5.83329 9.99999 5.83329C7.69999 5.83329 5.83332 7.69996 5.83332 9.99996C5.83332 12.3 7.69999 14.1666 9.99999 14.1666C11.15 14.1666 12.2 13.7 12.95 12.9416C13.4917 13.6833 14.425 14.1666 15.4167 14.1666C17.0583 14.1666 18.3333 12.8333 18.3333 11.1916V9.99996C18.3333 5.39996 14.6 1.66663 9.99999 1.66663ZM9.99999 12.5C8.61666 12.5 7.49999 11.3833 7.49999 9.99996C7.49999 8.61663 8.61666 7.49996 9.99999 7.49996C11.3833 7.49996 12.5 8.61663 12.5 9.99996C12.5 11.3833 11.3833 12.5 9.99999 12.5Z" fill="#1864AB"/>
</g>
<defs>
<clipPath id="clip0_3072_1516">
<rect width="20" height="20" fill="white"/>
</clipPath>
</defs>
</svg>
