<svg width="36" height="32" viewBox="0 0 36 32" fill="none" xmlns="http://www.w3.org/2000/svg">
<path d="M32 7.25H25V3.75L21.5 0.25H14.5L11 3.75V7.25H4C2.075 7.25 0.5 8.825 0.5 10.75V19.5C0.5 20.8125 1.2 21.915 2.25 22.5275V28.25C2.25 30.1925 3.8075 31.75 5.75 31.75H30.25C32.1925 31.75 33.75 30.1925 33.75 28.25V22.51C34.7825 21.8975 35.5 20.7775 35.5 19.5V10.75C35.5 8.825 33.925 7.25 32 7.25ZM14.5 3.75H21.5V7.25H14.5V3.75ZM30.25 28.25H5.75V23H12.75V24.75H23.25V23H30.25V28.25ZM16.25 21.25V17.75H19.75V21.25H16.25ZM32 19.5H23.25V14.25H12.75V19.5H4V10.75H32V19.5Z" fill="#1864AB"/>
</svg>
