<svg width="30" height="31" viewBox="0 0 30 31" fill="none" xmlns="http://www.w3.org/2000/svg">
<g clip-path="url(#clip0_61_815)">
<path opacity="0.3" d="M13.325 24.675L18.75 19.25V6.74999H7.5L3.75 15.5V18H14.7125L13.325 24.675Z" fill="#E1ECF8"/>
<path d="M3.75 20.5H11.6375L10.45 26.2125L10.4125 26.6125C10.4125 27.125 10.625 27.6 10.9625 27.9375L12.2875 29.25L20.5125 21.0125C20.975 20.5625 21.25 19.9375 21.25 19.25V6.75C21.25 5.375 20.125 4.25 18.75 4.25H7.5C6.4625 4.25 5.575 4.875 5.2 5.775L1.425 14.5875C1.3125 14.875 1.25 15.175 1.25 15.5V18C1.25 19.375 2.375 20.5 3.75 20.5ZM3.75 15.5L7.5 6.75H18.75V19.25L13.325 24.675L14.7125 18H3.75V15.5ZM28.75 19.25H23.75V4.25H28.75V19.25Z" fill="#1864AB"/>
</g>
<defs>
<clipPath id="clip0_61_815">
<rect width="30" height="30" fill="white" transform="translate(30 30.5) rotate(-180)"/>
</clipPath>
</defs>
</svg>
