<svg width="30" height="31" viewBox="0 0 30 31" fill="none" xmlns="http://www.w3.org/2000/svg">
<g clip-path="url(#clip0_61_640)">
<path opacity="0.3" d="M16.675 6.325L11.25 11.75V24.25H22.5L26.25 15.5V13H15.2875L16.675 6.325Z" fill="#E1ECF8"/>
<path d="M26.25 10.5H18.3625L19.55 4.7875L19.5875 4.3875C19.5875 3.875 19.375 3.4 19.0375 3.0625L17.7125 1.75L9.4875 9.9875C9.025 10.4375 8.75 11.0625 8.75 11.75V24.25C8.75 25.625 9.875 26.75 11.25 26.75H22.5C23.5375 26.75 24.425 26.125 24.8 25.225L28.575 16.4125C28.6875 16.125 28.75 15.825 28.75 15.5V13C28.75 11.625 27.625 10.5 26.25 10.5ZM26.25 15.5L22.5 24.25H11.25V11.75L16.675 6.325L15.2875 13H26.25V15.5ZM1.25 11.75H6.25V26.75H1.25V11.75Z" fill="#1864AB"/>
</g>
<defs>
<clipPath id="clip0_61_640">
<rect width="30" height="30" fill="white" transform="translate(0 0.5)"/>
</clipPath>
</defs>
</svg>
