<svg width="25" height="24" viewBox="0 0 25 24" fill="none" xmlns="http://www.w3.org/2000/svg">
<g clip-path="url(#clip0_257_8982)">
<path d="M11.29 16.29C11.68 16.68 12.31 16.68 12.7 16.29L16.29 12.7C16.68 12.31 16.68 11.68 16.29 11.29L12.7 7.7C12.31 7.31 11.68 7.31 11.29 7.7C10.9 8.09 10.9 8.72 11.29 9.11L13.17 11H4.5C3.95 11 3.5 11.45 3.5 12C3.5 12.55 3.95 13 4.5 13H13.17L11.29 14.88C10.9 15.27 10.91 15.91 11.29 16.29ZM19.5 3H5.5C4.39 3 3.5 3.9 3.5 5V8C3.5 8.55 3.95 9 4.5 9C5.05 9 5.5 8.55 5.5 8V6C5.5 5.45 5.95 5 6.5 5H18.5C19.05 5 19.5 5.45 19.5 6V18C19.5 18.55 19.05 19 18.5 19H6.5C5.95 19 5.5 18.55 5.5 18V16C5.5 15.45 5.05 15 4.5 15C3.95 15 3.5 15.45 3.5 16V19C3.5 20.1 4.4 21 5.5 21H19.5C20.6 21 21.5 20.1 21.5 19V5C21.5 3.9 20.6 3 19.5 3Z" fill="#1864AB"/>
</g>
<defs>
<clipPath id="clip0_257_8982">
<rect width="24" height="24" fill="white" transform="translate(0.5)"/>
</clipPath>
</defs>
</svg>
