<svg width="42" height="42" viewBox="0 0 42 42" fill="none" xmlns="http://www.w3.org/2000/svg">
<g clip-path="url(#clip0_3027_1220)">
<path d="M22.25 22.75L17 18.8125L11.75 22.75V7H10V35H31V7H22.25V22.75Z" fill="#98C6F0" fill-opacity="0.25"/>
<path d="M31.5 3H10.5C8.575 3 7 4.575 7 6.5V34.5C7 36.425 8.575 38 10.5 38H31.5C33.425 38 35 36.425 35 34.5V6.5C35 4.575 33.425 3 31.5 3ZM15.75 6.5H19.25V15.25L17.5 13.9375L15.75 15.25V6.5ZM31.5 34.5H10.5V6.5H12.25V22.25L17.5 18.3125L22.75 22.25V6.5H31.5V34.5Z" fill="#1864AB"/>
</g>
<defs>
<clipPath id="clip0_3027_1220">
<rect width="42" height="42" fill="white"/>
</clipPath>
</defs>
</svg>
