<svg width="18" height="18" viewBox="0 0 18 18" fill="none" xmlns="http://www.w3.org/2000/svg">
<path d="M9.44999 4.5H7.64999V8.1H4.04999V9.9H7.64999V13.5H9.44999V9.9H13.05V8.1H9.44999V4.5ZM8.54999 0C3.59099 0 -0.450012 4.041 -0.450012 9C-0.450012 13.959 3.59099 18 8.54999 18C13.509 18 17.55 13.959 17.55 9C17.55 4.041 13.509 0 8.54999 0ZM8.54999 16.2C4.58099 16.2 1.34999 12.969 1.34999 9C1.34999 5.031 4.58099 1.8 8.54999 1.8C12.519 1.8 15.75 5.031 15.75 9C15.75 12.969 12.519 16.2 8.54999 16.2Z" fill="#FBFBFB"/>
</svg>
