<svg width="34" height="34" viewBox="0 0 34 34" fill="none" xmlns="http://www.w3.org/2000/svg">
<g clip-path="url(#clip0_96_33)">
<path d="M10 12H24C24.55 12 25 12.45 25 13C25 13.55 24.55 14 24 14H10C9.45 14 9 13.55 9 13C9 12.45 9.45 12 10 12Z" fill="#405E7B" fill-opacity="0.65"/>
<path d="M10 18H24C24.55 18 25 17.55 25 17C25 16.45 24.55 16 24 16H10C9.45 16 9 16.45 9 17C9 17.55 9.45 18 10 18Z" fill="#405E7B" fill-opacity="0.65"/>
<path d="M10 22H15C15.55 22 16 21.55 16 21C16 20.45 15.55 20 15 20H10C9.45 20 9 20.45 9 21C9 21.55 9.45 22 10 22Z" fill="#405E7B" fill-opacity="0.65"/>
<path d="M10 26H15C15.55 26 16 25.55 16 25C16 24.45 15.55 24 15 24H10C9.45 24 9 24.45 9 25C9 25.55 9.45 26 10 26Z" fill="#405E7B" fill-opacity="0.65"/>
<path d="M20.4101 23.17L19.7001 22.46C19.3101 22.07 18.6801 22.07 18.2901 22.46C17.9001 22.85 17.9001 23.48 18.2901 23.87L19.7101 25.29C20.1001 25.68 20.7301 25.68 21.1201 25.29L24.2901 22.12C24.6801 21.73 24.6801 21.1 24.2901 20.71C23.9001 20.32 23.2701 20.32 22.8801 20.71L20.4101 23.17Z" fill="#405E7B" fill-opacity="0.65"/>
<path d="M9 9C9 9.55 9.45 10 10 10H24C24.55 10 25 9.55 25 9C25 8.45 24.55 8 24 8H10C9.45 8 9 8.45 9 9Z" fill="#405E7B" fill-opacity="0.65"/>
</g>
<rect x="0.5" y="0.5" width="33" height="33" rx="6.5" stroke="#405E7B" stroke-opacity="0.25"/>
<defs>
<clipPath id="clip0_96_33">
<rect width="24" height="24" fill="white" transform="translate(5 5)"/>
</clipPath>
</defs>
</svg>
