<svg width="42" height="42" viewBox="0 0 42 42" fill="none" xmlns="http://www.w3.org/2000/svg">
<path opacity="0.3" d="M32.6375 33.8625L28.875 30.1V24.5H30.625V29.3825L33.8625 32.62L32.6375 33.8625ZM29.75 17.5C30.345 17.5 30.9225 17.5525 31.5 17.64V8.75H28V14H14V8.75H10.5V35H18.69C17.9375 33.4075 17.5 31.64 17.5 29.75C17.5 22.9775 22.9775 17.5 29.75 17.5ZM21 8.75C20.0375 8.75 19.25 7.9625 19.25 7C19.25 6.0375 20.0375 5.25 21 5.25C21.9625 5.25 22.75 6.0375 22.75 7C22.75 7.9625 21.9625 8.75 21 8.75Z" fill="#1864AB" fill-opacity="0.25"/>
<path d="M29.75 21C24.92 21 21 24.92 21 29.75C21 34.58 24.92 38.5 29.75 38.5C34.58 38.5 38.5 34.58 38.5 29.75C38.5 24.92 34.58 21 29.75 21ZM32.6375 33.8625L28.875 30.1V24.5H30.625V29.3825L33.8625 32.62L32.6375 33.8625ZM31.5 5.25H25.935C25.2 3.22 23.275 1.75 21 1.75C18.725 1.75 16.8 3.22 16.065 5.25H10.5C8.575 5.25 7 6.825 7 8.75V35C7 36.925 8.575 38.5 10.5 38.5H21.1925C20.16 37.5025 19.32 36.3125 18.7075 35H10.5V8.75H14V14H28V8.75H31.5V17.64C32.7425 17.815 33.915 18.1825 35 18.69V8.75C35 6.825 33.425 5.25 31.5 5.25ZM21 8.75C20.0375 8.75 19.25 7.9625 19.25 7C19.25 6.0375 20.0375 5.25 21 5.25C21.9625 5.25 22.75 6.0375 22.75 7C22.75 7.9625 21.9625 8.75 21 8.75Z" fill="#1864AB"/>
</svg>
