<svg class="active" width="32" height="33" viewBox="0 0 32 33" fill="none" xmlns="http://www.w3.org/2000/svg">
<rect y="0.5" width="32" height="32" rx="8" fill="white"/>
<path d="M25.5434 8.50893C24.6927 9.10898 23.7508 9.56793 22.754 9.86809C22.219 9.25292 21.508 8.81691 20.7171 8.61902C19.9262 8.42113 19.0936 8.47091 18.3319 8.76162C17.5703 9.05234 16.9163 9.56996 16.4584 10.2445C16.0005 10.919 15.7608 11.7179 15.7717 12.5331V13.4214C14.2106 13.4619 12.6636 13.1157 11.2687 12.4136C9.8738 11.7115 8.67417 10.6753 7.77667 9.39727C7.77667 9.39727 4.22333 17.3923 12.2183 20.9456C10.3888 22.1875 8.20943 22.8102 6 22.7223C13.995 27.164 23.7667 22.7223 23.7667 12.5064C23.7659 12.259 23.7421 12.0122 23.6956 11.7691C24.6023 10.875 25.2421 9.74613 25.5434 8.50893V8.50893Z" stroke="#405E7B" stroke-opacity="0.65" stroke-width="2" stroke-linecap="round" stroke-linejoin="round"/>
<rect x="0.75" y="1.25" width="30.5" height="30.5" rx="7.25" stroke="#405E7B" stroke-opacity="0.65" stroke-width="1.5"/>
</svg>
