<svg width="20" height="20" viewBox="0 0 20 20" fill="none" xmlns="http://www.w3.org/2000/svg">
<g clip-path="url(#clip0_3072_1521)">
<path d="M16.4208 3.49744C14.7061 1.77869 12.4226 0.833374 9.99592 0.833374C4.98699 0.833374 0.911096 4.90927 0.911096 9.91819C0.911096 11.5183 1.32851 13.0815 2.12241 14.4606L0.833344 19.1667L5.64994 17.9022C6.97583 18.6265 8.4695 19.0071 9.99183 19.0071H9.99592C15.0008 19.0071 19.1667 14.9312 19.1667 9.92229C19.1667 7.49558 18.1354 5.21619 16.4208 3.49744ZM9.99592 17.4766C8.63729 17.4766 7.3073 17.1124 6.14919 16.4249L5.87501 16.2612L3.01861 17.0101L3.77977 14.2233L3.59971 13.9368C2.84264 12.7337 2.44569 11.3464 2.44569 9.91819C2.44569 5.75636 5.83409 2.36797 10 2.36797C12.0175 2.36797 13.9122 3.15369 15.3363 4.58189C16.7604 6.01008 17.6362 7.9048 17.6321 9.92229C17.6321 14.0882 14.1577 17.4766 9.99592 17.4766ZM14.1373 11.8211C13.9122 11.7065 12.795 11.1581 12.5863 11.0845C12.3776 11.0067 12.2262 10.9699 12.0748 11.1991C11.9234 11.4282 11.4896 11.9357 11.3545 12.0912C11.2236 12.2426 11.0886 12.2631 10.8635 12.1485C9.5294 11.4814 8.65366 10.9576 7.77382 9.44759C7.54056 9.04654 8.00708 9.07519 8.44086 8.20763C8.51452 8.05622 8.47769 7.92526 8.4204 7.81068C8.36311 7.6961 7.90886 6.57891 7.72062 6.12467C7.53647 5.6827 7.34822 5.74409 7.20909 5.7359C7.07814 5.72772 6.92672 5.72772 6.77531 5.72772C6.62389 5.72772 6.37836 5.78501 6.16965 6.01008C5.96095 6.23925 5.37575 6.78761 5.37575 7.9048C5.37575 9.02199 6.19011 10.1023 6.30061 10.2538C6.41519 10.4052 7.90068 12.6968 10.1801 13.6831C11.6205 14.3051 12.1853 14.3583 12.9055 14.2519C13.3434 14.1864 14.2478 13.7035 14.436 13.1715C14.6243 12.6395 14.6243 12.1853 14.567 12.0912C14.5138 11.9889 14.3624 11.9316 14.1373 11.8211Z" fill="#1864AB"/>
</g>
<defs>
<clipPath id="clip0_3072_1521">
<rect width="20" height="20" fill="white"/>
</clipPath>
</defs>
</svg>
