<svg width="37" height="8" viewBox="0 0 37 8" fill="none" xmlns="http://www.w3.org/2000/svg">
<rect width="37" height="8" fill="white"/>
<path d="M0 7C9.30698 7 9.46474 1.20168 18.4615 1.00511M18.4615 1.00511C18.6167 1.00172 18.7744 1 18.9349 1M18.4615 1.00511C27.4583 1.20168 27.6161 7 36.9231 7C46.2301 7 46.3878 1.20169 55.3846 1.00511M18.4615 1.00511C18.3064 1.00172 18.1486 1 17.9882 1M55.3846 1.00511C55.5397 1.00172 55.6975 1 55.858 1M55.3846 1.00511C64.3814 1.20169 64.5392 7 73.8462 7C83.1531 7 83.3109 1.20169 92.3077 1.00511M55.3846 1.00511C55.2295 1.00172 55.0717 1 54.9112 1M92.3077 1.00511C92.4628 1.00172 92.6206 1 92.7811 1M92.3077 1.00511C101.304 1.20169 101.462 7 110.769 7C120.076 7 120.234 1.20169 129.231 1.00511M92.3077 1.00511C92.1525 1.00172 91.9948 1 91.8343 1M129.231 1.00511C129.386 1.00172 129.544 1 129.704 1M129.231 1.00511C138.228 1.20169 138.385 7 147.692 7C156.999 7 157.157 1.20169 166.154 1.00511M129.231 1.00511C129.076 1.00172 128.918 1 128.757 1M166.154 1.00511C166.309 1.00172 166.467 1 166.627 1M166.154 1.00511C175.151 1.20169 175.308 7 184.615 7C193.922 7 194.08 1.20169 203.077 1.00511M166.154 1.00511C165.999 1.00172 165.841 1 165.68 1M203.077 1.00511C203.232 1.00172 203.39 1 203.55 1M203.077 1.00511C212.074 1.20169 212.231 7 221.538 7C230.845 7 231.003 1.20169 240 1.00511M203.077 1.00511C202.922 1.00172 202.764 1 202.604 1M240 1.00511C240.155 1.00172 240.313 1 240.473 1M240 1.00511C248.997 1.20169 249.155 7 258.462 7C267.769 7 267.926 1.20169 276.923 1.00511M240 1.00511C239.845 1.00172 239.687 1 239.527 1M276.923 1.00511C277.078 1.00172 277.236 1 277.396 1M276.923 1.00511C285.92 1.20169 286.078 7 295.385 7C304.692 7 304.849 1.20169 313.846 1.00511M276.923 1.00511C276.768 1.00172 276.61 1 276.45 1M313.846 1.00511C314.001 1.00172 314.159 1 314.32 1M313.846 1.00511C322.843 1.20169 323.001 7 332.308 7C341.615 7 341.772 1.20169 350.769 1.00511M313.846 1.00511C313.691 1.00172 313.533 1 313.373 1M350.769 1.00511C350.924 1.00172 351.082 1 351.243 1M350.769 1.00511C359.766 1.20169 359.924 7 369.231 7C378.538 7 378.695 1.20169 387.692 1.00511M350.769 1.00511C350.614 1.00172 350.456 1 350.296 1M387.692 1.00511C387.847 1.00172 388.005 1 388.166 1M387.692 1.00511C396.689 1.20169 396.847 7 406.154 7C415.461 7 415.619 1.20169 424.615 1.00511M387.692 1.00511C387.537 1.00172 387.379 1 387.219 1M424.615 1.00511C424.771 1.00172 424.928 1 425.089 1M424.615 1.00511C433.612 1.20169 433.77 7 443.077 7C452.384 7 452.542 1.20169 461.538 1.00511M424.615 1.00511C424.46 1.00172 424.303 1 424.142 1M461.538 1.00511C461.694 1.00172 461.851 1 462.012 1M461.538 1.00511C470.535 1.20169 470.693 7 480 7C489.307 7 489.465 1.20169 498.462 1.00511M461.538 1.00511C461.383 1.00172 461.226 1 461.065 1M498.462 1.00511C498.617 1.00172 498.774 1 498.935 1M498.462 1.00511C507.458 1.20169 507.616 7 516.923 7C526.23 7 526.388 1.20169 535.385 1.00511M498.462 1.00511C498.306 1.00172 498.149 1 497.988 1M535.385 1.00511C535.54 1.00172 535.698 1 535.858 1M535.385 1.00511C544.381 1.20169 544.539 7 553.846 7C563.153 7 563.311 1.20169 572.308 1.00511M535.385 1.00511C535.229 1.00172 535.072 1 534.911 1M572.308 1.00511C572.463 1.00172 572.621 1 572.781 1M572.308 1.00511C581.305 1.20169 581.462 7 590.769 7C600.076 7 600.234 1.2017 609.231 1.00511M572.308 1.00511C572.153 1.00172 571.995 1 571.834 1M609.231 1.00511C609.386 1.00172 609.544 1 609.704 1M609.231 1.00511C618.228 1.2017 618.385 7 627.692 7C636.999 7 637.157 1.20169 646.154 1.00511M609.231 1.00511C609.076 1.00172 608.918 1 608.757 1M646.154 1.00511C646.309 1.00172 646.467 1 646.627 1M646.154 1.00511C655.151 1.20169 655.308 7 664.615 7C673.922 7 674.08 1.20169 683.077 1.00511M646.154 1.00511C645.999 1.00172 645.841 1 645.68 1M683.077 1.00511C683.232 1.00172 683.39 1 683.55 1M683.077 1.00511C692.074 1.20169 692.232 7 701.538 7C710.845 7 711.003 1.2017 720 1.00511M683.077 1.00511C682.922 1.00172 682.764 1 682.604 1M720 1.00511C720.155 1.00172 720.313 1 720.473 1M720 1.00511C728.997 1.2017 729.155 7 738.462 7C747.768 7 747.926 1.2017 756.923 1.00511M720 1.00511C719.845 1.00172 719.687 1 719.527 1M756.923 1.00511C757.078 1.00172 757.236 1 757.396 1M756.923 1.00511C765.92 1.2017 766.078 7 775.385 7C784.692 7 784.849 1.20169 793.846 1.00511M756.923 1.00511C756.768 1.00172 756.61 1 756.45 1M793.846 1.00511C794.001 1.00172 794.159 1 794.32 1M793.846 1.00511C802.843 1.20169 803.001 7 812.308 7C821.615 7 821.772 1.20169 830.769 1.00511M793.846 1.00511C793.691 1.00172 793.533 1 793.373 1M830.769 1.00511C830.924 1.00172 831.082 1 831.243 1M830.769 1.00511C839.766 1.20169 839.924 7 849.231 7C858.538 7 858.695 1.2017 867.692 1.00511M830.769 1.00511C830.614 1.00172 830.456 1 830.296 1M867.692 1.00511C867.847 1.00172 868.005 1 868.166 1M867.692 1.00511C876.689 1.2017 876.847 7 886.154 7C895.461 7 895.619 1.20169 904.615 1.00511M867.692 1.00511C867.537 1.00172 867.379 1 867.219 1M904.615 1.00511C904.771 1.00172 904.928 1 905.089 1M904.615 1.00511C913.612 1.20169 913.77 7 923.077 7C932.384 7 932.542 1.20169 941.538 1.00511M904.615 1.00511C904.46 1.00172 904.302 1 904.142 1M941.538 1.00511C941.694 1.00172 941.851 1 942.012 1M941.538 1.00511C950.535 1.20169 950.693 7 960 7C969.307 7 969.465 1.20168 978.462 1.00511M941.538 1.00511C941.383 1.00172 941.226 1 941.065 1M978.462 1.00511C978.617 1.00172 978.774 1 978.935 1M978.462 1.00511C987.458 1.20168 987.616 7 996.923 7C1006.23 7 1006.39 1.20169 1015.38 1.00511M978.462 1.00511C978.306 1.00172 978.149 1 977.988 1M1015.38 1.00511C1015.54 1.00172 1015.7 1 1015.86 1M1015.38 1.00511C1024.38 1.20169 1024.54 7 1033.85 7C1043.15 7 1043.31 1.20169 1052.31 1.00511M1015.38 1.00511C1015.23 1.00172 1015.07 1 1014.91 1M1052.31 1.00511C1052.46 1.00172 1052.62 1 1052.78 1M1052.31 1.00511C1061.3 1.20169 1061.46 7 1070.77 7C1080.08 7 1080.23 1.20169 1089.23 1.00511M1052.31 1.00511C1052.15 1.00172 1051.99 1 1051.83 1M1089.23 1.00511C1089.39 1.00172 1089.54 1 1089.7 1M1089.23 1.00511C1098.23 1.20169 1098.39 7 1107.69 7C1117 7 1117.16 1.20169 1126.15 1.00511M1089.23 1.00511C1089.08 1.00172 1088.92 1 1088.76 1M1126.15 1.00511C1126.31 1.00172 1126.47 1 1126.63 1M1126.15 1.00511C1135.15 1.20169 1135.31 7 1144.62 7C1153.92 7 1154.08 1.20169 1163.08 1.00511M1126.15 1.00511C1126 1.00172 1125.84 1 1125.68 1M1163.08 1.00511C1163.23 1.00172 1163.39 1 1163.55 1M1163.08 1.00511C1172.07 1.20169 1172.23 7 1181.54 7C1190.85 7 1191 1.20169 1200 1.00511M1163.08 1.00511C1162.92 1.00172 1162.76 1 1162.6 1M1200 1.00511C1200.16 1.00172 1200.31 1 1200.47 1M1200 1.00511C1209 1.20169 1209.15 7 1218.46 7C1227.77 7 1227.93 1.20169 1236.92 1.00511M1200 1.00511C1199.84 1.00172 1199.69 1 1199.53 1M1236.92 1.00511C1237.08 1.00172 1237.24 1 1237.4 1M1236.92 1.00511C1245.92 1.20169 1246.08 7 1255.38 7C1264.69 7 1264.85 1.20169 1273.85 1.00511M1236.92 1.00511C1236.77 1.00172 1236.61 1 1236.45 1M1273.85 1.00511C1274 1.00172 1274.16 1 1274.32 1M1273.85 1.00511C1282.84 1.20169 1283 7 1292.31 7C1301.61 7 1301.77 1.20169 1310.77 1.00511M1273.85 1.00511C1273.69 1.00172 1273.53 1 1273.37 1M1310.77 1.00511C1310.92 1.00172 1311.08 1 1311.24 1M1310.77 1.00511C1319.77 1.20169 1319.92 7 1329.23 7C1338.54 7 1338.7 1.20169 1347.69 1.00511M1310.77 1.00511C1310.61 1.00172 1310.46 1 1310.3 1M1347.69 1.00511C1347.85 1.00172 1348.01 1 1348.17 1M1347.69 1.00511C1356.69 1.20169 1356.85 7 1366.15 7C1375.46 7 1375.62 1.20169 1384.62 1.00511M1347.69 1.00511C1347.54 1.00172 1347.38 1 1347.22 1M1384.62 1.00511C1384.77 1.00172 1384.93 1 1385.09 1M1384.62 1.00511C1393.61 1.20169 1393.77 7 1403.08 7C1412.38 7 1412.54 1.20169 1421.54 1.00511M1384.62 1.00511C1384.46 1.00172 1384.3 1 1384.14 1M1421.54 1.00511C1421.69 1.00172 1421.85 1 1422.01 1M1421.54 1.00511C1430.54 1.20169 1430.69 7 1440 7C1449.31 7 1449.46 1.20169 1458.46 1.00511M1421.54 1.00511C1421.38 1.00172 1421.23 1 1421.07 1M1458.46 1.00511C1458.62 1.00172 1458.77 1 1458.93 1M1458.46 1.00511C1467.46 1.20169 1467.62 7 1476.92 7C1486.23 7 1486.39 1.20169 1495.38 1.00511M1458.46 1.00511C1458.31 1.00172 1458.15 1 1457.99 1M1495.38 1.00511C1495.54 1.00172 1495.7 1 1495.86 1M1495.38 1.00511C1504.38 1.20169 1504.54 7 1513.85 7C1523.15 7 1523.31 1.20169 1532.31 1.00511M1495.38 1.00511C1495.23 1.00172 1495.07 1 1494.91 1M1532.31 1.00511C1532.46 1.00172 1532.62 1 1532.78 1M1532.31 1.00511C1541.3 1.20169 1541.46 7 1550.77 7C1560.08 7 1560.23 1.2017 1569.23 1.00511M1532.31 1.00511C1532.15 1.00172 1531.99 1 1531.83 1M1569.23 1.00511C1569.39 1.00172 1569.54 1 1569.7 1M1569.23 1.00511C1578.23 1.2017 1578.39 7 1587.69 7C1597 7 1597.16 1.20169 1606.15 1.00511M1569.23 1.00511C1569.08 1.00172 1568.92 1 1568.76 1M1606.15 1.00511C1606.31 1.00172 1606.47 1 1606.63 1M1606.15 1.00511C1615.15 1.20169 1615.31 7 1624.62 7C1633.92 7 1634.08 1.20169 1643.08 1.00511M1606.15 1.00511C1606 1.00172 1605.84 1 1605.68 1M1643.08 1.00511C1643.23 1.00172 1643.39 1 1643.55 1M1643.08 1.00511C1652.07 1.20169 1652.23 7 1661.54 7C1670.85 7 1671 1.2017 1680 1.00511M1643.08 1.00511C1642.92 1.00172 1642.76 1 1642.6 1M1680 1.00511C1680.16 1.00172 1680.31 1 1680.47 1M1680 1.00511C1689 1.2017 1689.15 7 1698.46 7C1707.77 7 1707.93 1.2017 1716.92 1.00511M1680 1.00511C1679.84 1.00172 1679.69 1 1679.53 1M1716.92 1.00511C1717.08 1.00172 1717.24 1 1717.4 1M1716.92 1.00511C1725.92 1.2017 1726.08 7 1735.38 7C1744.69 7 1744.85 1.20169 1753.85 1.00511M1716.92 1.00511C1716.77 1.00172 1716.61 1 1716.45 1M1753.85 1.00511C1754 1.00172 1754.16 1 1754.32 1M1753.85 1.00511C1762.84 1.20169 1763 7 1772.31 7C1781.61 7 1781.77 1.20169 1790.77 1.00511M1753.85 1.00511C1753.69 1.00172 1753.53 1 1753.37 1M1790.77 1.00511C1790.92 1.00172 1791.08 1 1791.24 1M1790.77 1.00511C1799.77 1.20169 1799.92 7 1809.23 7C1818.54 7 1818.7 1.2017 1827.69 1.00511M1790.77 1.00511C1790.61 1.00172 1790.46 1 1790.3 1M1827.69 1.00511C1827.85 1.00172 1828.01 1 1828.17 1M1827.69 1.00511C1836.69 1.2017 1836.85 7 1846.15 7C1855.46 7 1855.62 1.20169 1864.62 1.00511M1827.69 1.00511C1827.54 1.00172 1827.38 1 1827.22 1M1864.62 1.00511C1864.77 1.00172 1864.93 1 1865.09 1M1864.62 1.00511C1873.61 1.20169 1873.77 7 1883.08 7C1892.38 7 1892.54 1.20169 1901.54 1.00511M1864.62 1.00511C1864.46 1.00172 1864.3 1 1864.14 1M1901.54 1.00511C1901.69 1.00172 1901.85 1 1902.01 1M1901.54 1.00511C1910.54 1.20169 1910.69 7 1920 7M1901.54 1.00511C1901.38 1.00172 1901.23 1 1901.07 1" stroke="#DEE8F2" stroke-linecap="round" stroke-linejoin="round"/>
</svg>
