<svg width="42" height="42" viewBox="0 0 42 42" fill="none" xmlns="http://www.w3.org/2000/svg">
<rect width="42" height="42" rx="8" fill="#F0F7FE"/>
<g clip-path="url(#clip0_257_3785)">
<path d="M20.9997 23.6667C22.4724 23.6667 23.6663 22.4728 23.6663 21C23.6663 19.5273 22.4724 18.3334 20.9997 18.3334C19.5269 18.3334 18.333 19.5273 18.333 21C18.333 22.4728 19.5269 23.6667 20.9997 23.6667Z" fill="#405E7B" fill-opacity="0.65"/>
<path d="M27.667 14.3333H25.0253L23.992 13.2083C23.6837 12.8666 23.2337 12.6666 22.767 12.6666H19.2337C18.767 12.6666 18.317 12.8666 18.0003 13.2083L16.9753 14.3333H14.3337C13.417 14.3333 12.667 15.0833 12.667 16V26C12.667 26.9166 13.417 27.6666 14.3337 27.6666H27.667C28.5837 27.6666 29.3337 26.9166 29.3337 26V16C29.3337 15.0833 28.5837 14.3333 27.667 14.3333ZM21.0003 25.1666C18.7003 25.1666 16.8337 23.3 16.8337 21C16.8337 18.7 18.7003 16.8333 21.0003 16.8333C23.3003 16.8333 25.167 18.7 25.167 21C25.167 23.3 23.3003 25.1666 21.0003 25.1666Z" fill="#405E7B" fill-opacity="0.65"/>
</g>
<defs>
<clipPath id="clip0_257_3785">
<rect width="20" height="20" fill="white" transform="translate(11 11)"/>
</clipPath>
</defs>
</svg>
