<svg width="35" height="40" viewBox="0 0 35 40" fill="none" xmlns="http://www.w3.org/2000/svg">
<g clip-path="url(#clip0_3001_2509)">
<path d="M24.2464 16.25H21.2695C21.156 18.3617 20.7714 20.2617 20.1873 21.7508C22.2976 20.7164 23.8443 18.6891 24.2464 16.25ZM24.2464 13.75C23.8435 11.3109 22.2976 9.2836 20.1873 8.24923C20.7722 9.73827 21.156 11.6383 21.2695 13.75H24.2464ZM17.0588 7.60233C16.4732 8.18437 15.4771 10.2914 15.2745 13.75H18.8439C18.6406 10.2922 17.6445 8.18437 17.0588 7.60233ZM13.9304 8.24923C11.8201 9.2836 10.2734 11.3109 9.87127 13.75H12.8482C12.9617 11.6383 13.3455 9.73827 13.9304 8.24923ZM13.9304 21.7508C13.3455 20.2617 12.9617 18.3617 12.8482 16.25H9.87127C10.2734 18.6891 11.8201 20.7164 13.9304 21.7508ZM18.8431 16.25H15.2737C15.4763 19.7078 16.4724 21.8156 17.0581 22.3977C17.6445 21.8156 18.6406 19.7078 18.8431 16.25ZM34.1176 28V2C34.1176 0.75 33.3866 0 32.1681 0L7.31092 0C3.16807 0 0 3.25 0 7.5L0 32.5C0 36.75 3.16807 40 7.31092 40H32.1681C33.1429 40 34.1176 39.25 34.1176 38V36.75C34.1176 36.25 33.8739 35.75 33.3866 35.25C33.1429 34 33.1429 30.5 33.3866 29.5C33.8739 29.25 34.1176 28.75 34.1176 28ZM17.0588 5C22.4423 5 26.8067 9.47733 26.8067 15C26.8067 20.5227 22.4423 25 17.0588 25C11.6754 25 7.31092 20.5227 7.31092 15C7.31092 9.47733 11.6754 5 17.0588 5ZM29.2437 35H7.31092C5.84874 35 4.87395 34 4.87395 32.5C4.87395 31 6.09244 30 7.31092 30H29.2437V35Z" fill="#1864AB"/>
</g>
<defs>
<clipPath id="clip0_3001_2509">
<rect width="34.1176" height="40" fill="white"/>
</clipPath>
</defs>
</svg>
